<svg width="18" height="14" viewBox="0 0 18 14" fill="none" xmlns="http://www.w3.org/2000/svg">
<path d="M17.9055 7.0131C17.9055 6.82693 17.7929 6.57971 17.6787 6.45975L10.9682 0.251115C10.6677 -0.0595677 10.1809 -0.0955731 9.83052 0.219736C9.5173 0.501615 9.5095 1.05137 9.79914 1.35746L15.2399 6.20837L1.71008 6.20854C1.26572 6.20854 0.905518 6.56874 0.905518 7.0131C0.905518 7.45747 1.26572 7.81772 1.71008 7.81772L15.2399 7.81755L9.79914 12.5447C9.50954 12.8508 9.53009 13.387 9.83052 13.6824C10.1477 13.9943 10.6723 13.9665 10.9682 13.6511L17.6787 7.56614C17.8678 7.38065 17.9023 7.20202 17.9055 7.0131Z" fill="#3062BF"/>
</svg>
