<svg viewBox="0 0 6 13" fill="#3062BF" xmlns="http://www.w3.org/2000/svg"><path d="M5.99726 5.94069C5.98144 5.78886 5.91926 5.64557 5.81916 5.53031L1.35932 0.327166C1.3007 0.240406 1.2244 0.167014 1.13544 0.11179C1.04647 0.0565653 0.946848 0.0207616 0.843083 0.00671773C0.739319 -0.00732611 0.633758 0.000704584 0.533315 0.0302939C0.432872 0.0598831 0.339813 0.110365 0.260234 0.17842C0.180654 0.246474 0.11635 0.330571 0.0715328 0.425205C0.0267155 0.51984 0.00239651 0.622865 0.000168342 0.727552C-0.00205983 0.832238 0.0178529 0.936224 0.058603 1.03268C0.0993531 1.12914 0.160021 1.21589 0.236633 1.28727L4.2861 6.01036L0.236633 10.7334C0.160021 10.8048 0.0993531 10.8916 0.058603 10.9881C0.0178529 11.0845 -0.00205983 11.1885 0.000168342 11.2932C0.00239651 11.3979 0.0267155 11.5009 0.0715328 11.5955C0.11635 11.6902 0.180654 11.7742 0.260234 11.8423C0.339813 11.9104 0.432872 11.9609 0.533315 11.9904C0.633758 12.02 0.739319 12.028 0.843083 12.014C0.946848 12 1.04647 11.9642 1.13544 11.9089C1.2244 11.8537 1.3007 11.7803 1.35932 11.6936L5.81916 6.49041C5.88404 6.41531 5.93322 6.32798 5.96381 6.23357C5.9944 6.13916 6.00577 6.03957 5.99726 5.94069Z"/></svg>