<svg width="13" height="6" viewBox="0 0 13 6" fill="none" xmlns="http://www.w3.org/2000/svg">
<path d="M5.94069 5.99726C5.78886 5.98144 5.64557 5.91926 5.53031 5.81916L0.327166 1.35932C0.240406 1.3007 0.167014 1.2244 0.11179 1.13544C0.0565653 1.04647 0.0207616 0.946848 0.00671773 0.843083C-0.00732611 0.739319 0.000704584 0.633758 0.0302939 0.533315C0.0598831 0.432872 0.110365 0.339813 0.17842 0.260234C0.246474 0.180654 0.330571 0.11635 0.425205 0.0715328C0.51984 0.0267155 0.622865 0.00239651 0.727552 0.000168342C0.832238 -0.00205983 0.936224 0.0178529 1.03268 0.058603C1.12914 0.0993531 1.21589 0.160021 1.28727 0.236633L6.01036 4.2861L10.7334 0.236633C10.8048 0.160021 10.8916 0.0993531 10.9881 0.058603C11.0845 0.0178529 11.1885 -0.00205983 11.2932 0.000168342C11.3979 0.00239651 11.5009 0.0267155 11.5955 0.0715328C11.6902 0.11635 11.7742 0.180654 11.8423 0.260234C11.9104 0.339813 11.9609 0.432872 11.9904 0.533315C12.02 0.633758 12.028 0.739319 12.014 0.843083C12 0.946848 11.9642 1.04647 11.9089 1.13544C11.8537 1.2244 11.7803 1.3007 11.6936 1.35932L6.49041 5.81916C6.41531 5.88404 6.32798 5.93322 6.23357 5.96381C6.13916 5.9944 6.03957 6.00577 5.94069 5.99726Z" fill="#3062BF"/>
</svg>
