
<svg xmlns="http://www.w3.org/2000/svg" viewBox="0 0 299.9414 299.9414"><g><g><path fill="black" fill-rule="nonzero" d="M284.2442 116.1578l-200.2629 -17.75c-1.0672,-0.1227 -2.0717,-0.1227 -3.0765,-0.0614l-9.8835 -45.0626c-0.1884,-0.7371 -0.3768,-1.474 -0.6907,-2.0883 -1.1929,-2.9482 -3.7043,-5.3435 -7.0318,-6.3262l-49.4155 -16.4851c-5.7132,-1.6584 -11.7404,1.5355 -13.4356,7.186 -1.6953,5.5891 1.5696,11.4854 7.3457,13.1437l43.2625 14.7039 37.2308 175.5348c0.6907,5.1592 5.2111,9.1514 10.736,9.1514l175.0958 -0.0614c5.9645,0 10.7989,-4.7292 10.7989,-10.564 0,-5.8349 -4.8344,-10.564 -10.7989,-10.564l-166.2433 0.0613 -5.1483 -24.2604 164.9158 0c8.3503,0 15.5704,-5.4049 17.0772,-12.8365l14.9691 -55.234c1.6952,-9.0902 -5.3365,-17.5661 -15.4448,-18.4873z"/><ellipse fill="black" fill-rule="nonzero" cx="129.7869" cy="278.8134" rx="21.5976" ry="21.128"/><ellipse fill="black" fill-rule="nonzero" cx="233.0035" cy="278.8134" rx="21.5976" ry="21.128"/><path fill="black" fill-rule="nonzero" d="M97.3984 95.785l2.8593 0.2869 8.9442 0.7889 36.8035 3.3708 1.3196 -13.842c1.8329,-18.7188 18.7683,-32.4172 37.9031,-30.6959 19.1349,1.793 33.1377,18.3602 31.3782,37.079l-1.3196 13.842 36.8034 3.3707 11.7301 1.0758c4.3255,0.4303 8.2111,-2.7254 8.5777,-6.9569l1.173 -12.3358c0.44,-4.2315 -2.7859,-8.0326 -7.1115,-8.3913l-11.73 -1.0757c-0.9532,-9.5387 -3.8857,-18.5754 -8.4311,-26.6797l9.0908 -7.3871c3.3725,-2.7253 3.8123,-7.6022 1.0264,-10.9014l-8.0644 -9.5387c-2.786,-3.2992 -7.7712,-3.7294 -11.1437,-1.0041l-9.1641 7.3155c-7.3314,-5.8094 -15.8356,-10.3277 -25.2198,-13.053l1.0996 -11.4751c0.4399,-4.2315 -2.7859,-8.0326 -7.1115,-8.3912l-12.61 -1.1476c-4.3255,-0.4304 -8.2111,2.7253 -8.5776,6.9568l-1.0997 11.4751c-9.7507,0.9324 -18.9882,3.8013 -27.2726,8.2478l-7.5513 -8.8933c-2.7859,-3.2992 -7.7712,-3.7294 -11.1436,-1.0041l-9.7507 7.8892c-3.3725,2.7254 -3.8123,7.6022 -1.0264,10.9014l7.5512 8.8933c-5.9384,7.172 -10.5571,15.4914 -13.3431,24.6715l-11.73 -1.0757c-4.3255,-0.4304 -8.2112,2.7253 -8.5777,6.9568l-1.1731 12.3359c-0.6598,4.2312 2.566,7.9607 6.8915,8.391z"/></g></g></svg>