<svg width="22" height="13" viewBox="0 0 22 13" fill="none" xmlns="http://www.w3.org/2000/svg">
<path d="M0 6.49999C0 6.34166 0.0958099 6.13142 0.193026 6.02941L5.66983 0.21355C5.92553 -0.0506569 6.33979 -0.0812762 6.6379 0.186865C6.90442 0.426578 6.91106 0.894093 6.6646 1.1544L2.26819 5.81564L21.3154 5.81578C21.6935 5.81578 22 6.1221 22 6.49999C22 6.87788 21.6935 7.18424 21.3154 7.18424L2.26819 7.18409L6.6646 11.8453C6.91103 12.1056 6.89354 12.5616 6.6379 12.8128C6.368 13.078 5.92163 13.0544 5.66983 12.7862L0.193026 6.9703C0.0321064 6.81256 0.00270462 6.66064 0 6.49999Z" fill="#3062BF"/>
</svg>
