<svg xmlns="http://www.w3.org/2000/svg" viewBox="0 0 299.7738 299.7737"><g><path fill="black" d="M17.9912 53.0003c0,-3.9582 1.3739,-7.2127 5.232,-9.1315 2.697,-1.3415 15.6236,-0.6554 21.2557,-0.9441 0.0098,-5.1295 -0.2117,-12.4256 0.2214,-17.407l-21.3014 -0.1581c-15.2354,-0.0084 -23.099,-2.5477 -23.0598,12.1255 0.0937,35.2176 -0.3054,70.3075 -0.0166,105.5453 0.2876,35.0975 -0.0084,70.2925 -0.0095,105.4225 -0.0004,11.9674 -3.0686,24.8453 10.0187,24.8783 34.0681,0.0862 70.7888,0.3439 104.6368,-0.0143 0.1344,-3.2383 0.2633,-15.1855 -0.105,-17.7721l-81.8457 0.0278c-11.2633,0.0406 -15.0266,-0.8156 -15.0266,-12.5438l0 -190.0287z"/><path fill="black" d="M47.6193 74.0224c-2.8685,0.9408 -3.1918,3.1822 -3.1899,6.7096 0.0068,12.9551 0.1503,10.6678 19.3348,10.7368 13.1704,0.0473 26.4458,0.1578 39.6241,0.0282 8.8649,-0.0872 77.0899,0.394 79.1647,-0.281 3.1864,-1.0368 3.0758,-2.9014 3.0583,-6.5979 -0.015,-3.1454 0.4956,-7.1408 -0.8985,-9.1869 -1.9238,-2.8234 -13.8841,-1.648 -18.3428,-1.667 -13.1808,-0.0565 -26.4057,-0.0643 -39.586,-0.0018 -8.6835,0.041 -76.9195,-0.4763 -79.1647,0.26z"/><path fill="black" d="M185.8228 37.6275c2.5235,0.3993 7.0255,0.1526 9.7562,0.1432 2.2753,-0.0078 7.9577,-0.5569 9.6985,0.5594 3.2459,-0.0085 6.442,2.586 6.7338,5.6261 0.2812,0.456 0.2385,-0.4397 0.4674,1.2668l-0.0133 57.3643 16.873 0c0,-16.7163 -0.0681,-4.9505 0.0086,-21.6645 0.0765,-16.708 -0.3841,-33.6379 -0.0264,-50.2242 0.3104,-2.8143 -3.6128,-5.0433 -6.8385,-5.1727l-36.7315 0.1386 0.0721 11.963z"/><path fill="black" d="M60.5365 0.5289c-6.3303,1.4018 -7.2435,6.5891 -7.2648,14.3734 -0.0208,7.6342 -0.0145,15.2861 -0.0019,22.9208 0.0165,9.9335 -2.1242,22.7847 9.6991,22.9577 18.8196,0.2752 17.0576,-0.7918 16.804,-37.4477 -0.0663,-9.5859 2.2018,-22.7496 -9.473,-23.0123 -2.3148,-0.0521 -7.8152,-0.2233 -9.7634,0.2082z"/><path fill="black" d="M157.2239 0.6768c-6.2461,1.7177 -6.904,6.7483 -6.9295,14.6914 -0.0246,7.6376 -0.0275,15.2845 0.0001,22.9209 0.0352,9.7492 -2.1366,22.357 9.9137,22.4797 2.5308,0.0257 7.619,0.2776 9.7783,-0.2683 2.4968,-0.6311 4.1935,-1.9232 5.5611,-4.6702 1.4845,-2.9816 1.235,-6.1293 1.2315,-10.0732l0.0097 -33.9431c-0.0336,-4.1847 -0.7498,-6.4479 -2.5734,-8.5495 -2.7717,-3.1946 -11.794,-4.0173 -16.9916,-2.5877z"/><path fill="black" d="M45.6331 202.3297c8.6346,0.6836 41.857,0.0137 53.4833,0.1468l2.6429 -0.104c1.1959,-0.2734 1.6601,-0.8817 1.9171,-2.3801l-0.0054 -12.6995c-0.5877,-3.4007 -2.3435,-2.56 -8.4023,-2.56 -12.1944,0 -39.1001,-0.4627 -49.6033,0.1052 -1.9476,3.2981 -1.8983,14.1931 -0.0324,17.4916z"/><polygon fill="black" points="88.6759,43.0387 141.4639,42.9067 141.3549,25.4898 88.6817,25.5386 "/><path fill="#9D9D9D" d="M88.6817 25.5386l52.6732 -0.0489 0.109 17.417 -52.7881 0.132 0.0058 -17.5001zm-0.4636 -0.3212c-0.0103,0.8777 -0.3527,17.122 0.4001,17.8213 1.0023,0.931 11.2619,0.2729 12.7943,0.2722l39.21 0.072c0.8721,-0.1856 0.9556,-0.6298 0.9591,-0.6127 0.0093,0.046 0.0888,-0.1858 0.0991,-0.2509l-0.0661 -16.8976c-0.6277,-1.1074 -6.6786,-0.5459 -8.2852,-0.5656 -3.1345,-0.0385 -6.143,0.0959 -9.2387,0.0925 -3.6023,-0.004 -35.3843,-0.1884 -35.8726,0.0688z"/><path fill="#9D9D9D" d="M185.8228 37.6275c0.3499,0.5594 -0.8456,0.4132 0.9166,0.496 6.1236,0.0237 12.6098,-0.0677 18.5381,0.2065 -1.7408,-1.1163 -7.4232,-0.5672 -9.6985,-0.5594 -2.7307,0.0094 -7.2327,0.2561 -9.7562,-0.1432l-0.0721 -11.963 36.7315 -0.1386c-1.2736,-0.9589 -6.1537,-0.4473 -8.8389,-0.465l-26.926 -0.0115c-1.104,0.224 -0.5619,-0.0588 -0.9666,0.6151 -0.8611,0.4394 -0.4114,4.7659 -0.4128,6.0034l0.076 4.7076c0.1474,1.9203 -0.1265,0.8307 0.4089,1.252z"/><path fill="black" d="M46.5843 129.9552c-1.9379,0.9408 -2.1563,3.1822 -2.1551,6.7096 0.0047,12.9551 0.1016,10.6678 13.0622,10.7368 8.8977,0.0473 17.8663,0.1578 26.7692,0.0282 5.989,-0.0872 52.0804,0.394 53.482,-0.281 2.1527,-1.0368 2.0779,-2.9014 2.0661,-6.5979 -0.0101,-3.1454 0.3348,-7.1408 -0.607,-9.1869 -1.2997,-2.8234 -9.3798,-1.648 -12.392,-1.667 -8.9046,-0.0565 -17.839,-0.0643 -26.7434,-0.0018 -5.8665,0.041 -51.9652,-0.4763 -53.482,0.26z"/><path fill="black" d="M180.6075 206.8824c0,-2.0867 0.6475,-3.5699 1.9859,-4.8493 0.0341,-0.0326 0.0803,-0.0778 0.114,-0.1102l1.088 -0.8558c2.2832,-1.2355 4.0777,-0.9443 7.7763,-0.9443l34.8814 0c3.9676,0 10.5283,-0.616 10.5283,6.9777l0 39.686c0,2.6194 -1.0703,4.7176 -3.091,5.9015 -2.0853,1.2216 -4.988,0.8581 -7.8734,0.8581l-34.8814 0c-3.702,0 -6.8892,0.5619 -9.2767,-2.598 -0.8734,-1.156 -1.2515,-2.5714 -1.2515,-4.3797l0 -39.686zm94.5944 37.2975c0,4.1615 -2.3956,7.2403 -5.8121,7.562 -2.6231,0.247 -9.1518,0.2943 -11.7011,-0.0204 -3.2655,-0.4034 -5.6502,-3.6409 -5.5197,-8.0645 0.0552,-1.8709 0.7783,-3.9452 1.85,-5.0379l1.9096 -1.4891c1.9495,-1.1067 10.0774,-0.6173 13.0362,-0.6173 3.4551,0 6.2372,3.1249 6.2372,7.6672zm-128.3007 -7.3963c1.228,-0.5676 6.9427,-0.2709 8.6991,-0.2709 3.2493,0 5.5397,-0.4247 7.5799,1.5826 3.5714,3.5139 2.9049,11.8878 -2.2953,13.4316 -1.8053,0.5359 -6.5872,0.2406 -8.7727,0.2406 -3.4036,0 -5.277,0.3632 -7.351,-1.6629 -3.2033,-3.1289 -2.8947,-8.6742 -0.429,-11.5251l1.0314 -0.929c0.4963,-0.3655 0.7896,-0.5211 1.5374,-0.8668zm14.6703 -94.676l94.3764 -0.0012c0.002,5.7536 0.2504,31.2655 -0.0507,35.2812l-93.3207 -0.0276c-1.3616,0 -0.9884,0.1019 -1.005,-2.7495l0.0177 -28.7973 -0.0177 -3.7056zm-21.0351 157.6661l18.7913 0c1.5929,-0.8011 2.3513,-0.5997 3.5295,-1.6792 2.9081,-2.6649 2.104,-8.7437 1.9207,-13.2119l88.0541 -0.0003c0,2.2307 -0.2573,8.4234 0.2094,10.1209 0.564,2.0513 1.8632,3.4606 3.5154,4.1951 0.3488,0.1552 -0.057,0.0014 0.4551,0.1711l1.2491 0.4044 19.0093 0c1.1946,-0.6591 2.3558,-0.5297 3.7215,-2.1516 1.1066,-1.3141 1.6168,-2.4132 1.5319,-4.0514 -0.1206,-1.9352 -0.0418,-4.0511 -0.0425,-6.0081 -0.0012,-3.362 -0.5273,-2.8359 2.8341,-2.8347 3.7438,0.0014 7.9949,-0.1871 11.675,0.0426 0.6575,-0.0523 0.8376,-0.0796 1.3589,-0.5014 0.0498,-0.0402 0.1907,-0.1679 0.2382,-0.2125 0.2834,-0.2657 0.2916,-0.2493 0.5335,-0.5868 0.9992,-1.3935 0.5601,-11.8105 0.537,-13.7573 -0.1104,-9.3278 0.8942,-8.9705 -8.6744,-8.9705 0,-10.394 -0.0049,-20.788 0.0001,-31.1818 0.001,-2.2454 0.0007,-3.6487 -0.6752,-5.7882l-0.4818 -1.2497c-0.0212,-0.0455 -0.0486,-0.1032 -0.0703,-0.1484 -0.021,-0.0436 -0.051,-0.0979 -0.0724,-0.1411l-0.8888 -1.5055c-0.0295,-0.0432 -0.0669,-0.0938 -0.0971,-0.1373l-1.8701 -2.2334c-4.6793,-4.2932 -8.6201,-2.9195 -12.1098,-3.4914 0.3031,-1.4885 0.0691,-99.5051 0.0691,-104.5811 0,-2.8409 0.3726,-8.9 -0.3423,-10.3629 -0.622,-1.272 -5.5604,-4.2437 -7.4705,-5.4969l-2.7845 -1.6728 -1.5346 0c-3.13,2.1975 -2.4108,1.9212 -2.4108,8.7221 0,5.7163 0.2487,22.5885 -0.0511,26.2676l-3.4796 -8.8492c-0.0197,-0.0381 -0.0511,-0.0935 -0.071,-0.1316 -0.0595,-0.112 -0.206,-0.3892 -0.3727,-0.6959 -0.265,-0.4879 -0.1309,-0.263 -0.4017,-0.6879 -1.7304,-2.716 -3.4803,-4.5136 -6.0119,-6.4063 -6.8349,-5.1099 -14.5083,-4.1804 -22.971,-4.1738l-36.1895 -0.0241c-5.6314,0.0044 -12.1179,-0.5295 -16.932,1.1501 -6.763,2.3595 -11.3174,6.7444 -13.9708,13.3166 -0.8696,2.1539 -1.4825,4.4112 -2.3979,6.502 -0.2981,-3.6572 -0.0511,-20.7902 -0.0511,-26.4856 0,-6.9595 0.692,-6.3257 -2.4109,-8.5041l-1.5345 0c-1.7393,1.0959 -9.4597,5.6679 -10.2344,7.2195 -0.7469,1.4959 -0.3629,7.5917 -0.3629,10.3131l0 104.6663c-4.1865,0 -9.1492,0.1864 -12.06,3.4864 -3.282,3.7208 -4.1451,5.4409 -4.1368,11.3412 0.0075,5.3731 -0.2799,27.6634 0.0642,30.9638 -10.114,0 -8.6513,-1.3099 -8.6513,16.3541 0,5.113 -0.956,7.813 4.6608,7.7876 3.7283,-0.0169 8.7991,-0.2787 12.378,0.0497 -0.104,1.9136 -0.2224,8.587 0.1897,10.1364 0.5513,2.0723 2.1444,3.6793 4.028,4.3318 0.3798,0.1316 0.0217,0.0096 0.483,0.1412 0.4824,0.1377 0.3712,0.0316 0.7793,0.231z"/><path fill="black" d="M187.2242 217.298c-1.832,0.6183 -3.1465,2.0079 -2.2597,4.3536 0.3783,1.0005 1.1868,1.6224 2.2515,1.8688 1.0289,0.2381 26.3747,0.0883 29.6447,0.0883 3.5361,0 12.7142,0.6751 14.5868,-0.6105 1.9017,-1.3055 1.7934,-4.3816 -0.3557,-5.4734 -1.4714,-0.7473 -14.5268,-0.3939 -16.8472,-0.3939 -3.5858,0 -25.4538,-0.3615 -27.0204,0.1671z"/><path fill="black" d="M186.7883 204.6508c-3.122,1.2419 -2.9828,6.1287 1.7174,6.163 6.5412,0.048 40.9255,0.2463 42.2685,-0.2705 1.7679,-0.6803 2.4764,-2.8478 1.7245,-4.3708 -0.9216,-1.8667 -2.3892,-1.777 -5.1738,-1.7739 -6.1683,0.0067 -39.17,-0.2915 -40.5366,0.2521z"/><path fill="black" d="M186.9084 242.9944c-1.6963,0.5912 -2.8366,2.4508 -1.8371,4.5008 1.0009,2.0531 2.9122,1.7076 4.9845,1.6905 4.7319,-0.0389 39.3501,0.2776 40.6707,-0.1046 0.8646,-0.2502 1.2679,-0.8183 1.6881,-1.5658 0.4839,-0.861 0.5265,-1.9153 0.1309,-2.7956 -0.8373,-1.8635 -2.2283,-1.9166 -5.0039,-1.91 -6.2266,0.015 -39.2941,-0.2821 -40.6332,0.1847z"/><path fill="black" d="M192.8797 236.4049l35.5355 0c1.7474,0.0026 3.9544,-0.0029 4.3426,-2.7414 0.2815,-1.9861 -1.0628,-3.6672 -3.2526,-3.6672l-41.8577 0c-2.3107,0 -3.8957,3.1936 -2.2444,5.2119 1.3668,1.6703 4.1782,1.1968 7.4767,1.1968z"/><path fill="#4B4B4B" d="M282.5238 293.5707l0.1755 -8.6246 12.6447 0.0015c0.909,0.0104 0.9952,0.1064 1.6465,-0.1771 -3.6801,-0.2296 -7.9312,-0.0412 -11.675,-0.0426 -3.3614,-0.0012 -2.8353,-0.5273 -2.8341,2.8347 0.0007,1.9569 -0.0781,4.0728 0.0425,6.0081z"/></g></svg>