<svg xmlns="http://www.w3.org/2000/svg" viewBox="0 0 299.9426 299.9427"><g><g><path fill="black" d="M133.5279 20.4422c0,6.1134 6.3182,8.0537 10.048,3.7978 1.0257,-1.1704 1.7384,-2.154 2.7343,-3.3573 4.2498,-5.135 13.3319,-15.6596 16.6777,-20.5477 5.5913,1.2743 11.8221,1.487 19.1897,3.3448 2.9298,0.7388 5.8131,1.5539 8.7401,2.5087 2.7574,0.8994 5.533,2.2105 8.3812,2.8597l0 0.6703c-1.8151,0.4136 -16.349,8.5339 -18.4838,9.7325 -2.5616,1.4385 -4.4676,2.6926 -4.4676,6.018 0,3.3588 2.6789,5.0268 5.8236,5.0268 2.3134,0 5.8347,-2.5067 7.7636,-3.4638l22.0389 -11.9516c8.566,4.4342 16.3742,9.8916 23.7391,15.9853l3.2305 2.872c4.1625,3.9223 5.1532,2.9781 -5.357,3.9617 -2.7267,0.2553 -14.2201,1.1561 -16.3256,2.1253 -3.0986,1.4265 -3.8326,5.3232 -2.2136,7.9069 2.3925,3.8178 8.8148,1.9552 12.3321,1.6568 8.0838,-0.6856 16.2435,-2.0132 24.3313,-2.6716 1.1471,2.1209 3.814,5.083 5.3846,7.1317 1.8298,2.3866 3.5815,5.0949 5.1702,7.6766 2.2918,3.7244 7.6961,12.7783 8.6285,16.6928 -2.0048,-0.4569 -4.0663,-1.0997 -5.8979,-1.6029 -2.0883,-0.5738 -3.7564,-1.0111 -5.8722,-1.6279 -4.2062,-1.2265 -8.724,-3.1365 -13.2368,-3.1365 -4.6402,0 -5.8466,6.6721 -2.721,9.3642 1.2331,1.062 2.2671,1.2354 4.0494,1.7357l26.2974 7.4506c3.3235,1.0035 2.5068,1.2256 4.0281,7.1183 2.5729,9.966 3.6296,18.6723 3.6296,29.6261 -4.7602,-2.4641 -17.4604,-15.0804 -20.8961,-15.0804 -6.2492,0 -8.2323,6.1811 -3.882,9.8299 5.6137,4.7084 11.6017,8.9741 17.3205,13.5514 2.3024,1.8427 4.7138,3.8661 7.1149,5.4391 -0.3294,1.3837 -0.4553,3.2483 -0.6646,4.7117 -0.2568,1.7956 -0.4908,3.0766 -0.8027,4.9116 -1.0366,6.0968 -2.7383,11.7904 -4.4963,17.7194 -0.8349,2.8156 -2.2778,5.3874 -2.9428,8.18l-0.6853 0c-0.4682,-1.9665 -11.0763,-20.1434 -12.0538,-21.0497 -3.6013,-3.3376 -9.1846,-0.5383 -9.1846,4.2938 0,2.6128 6.2352,12.2855 7.5344,14.747 2.5013,4.7385 5.1864,9.9717 8.2233,14.4082 -1.2196,2.255 -2.5098,4.6632 -3.9716,6.8386 -1.5417,2.2936 -2.6951,4.3186 -4.3439,6.4743 -0.9915,1.2967 -8.3836,11.8213 -10.1827,11.8213l-194.5729 0c-2.6292,0 -14.7814,-18.6729 -16.2086,-21.0067 -1.0319,-1.6875 -1.6915,-3.1738 -2.6473,-4.7828 -1.0744,-1.8086 -1.5112,-2.8557 -2.4952,-4.9317 -0.7803,-1.646 -1.8554,-3.3314 -2.2855,-5.1368 1.3851,0.1128 4.5382,1.2294 5.8979,1.6029l11.6918 3.3073c2.3445,0.6627 4.8844,1.4572 7.4172,1.4572 4.6402,0 5.8466,-6.6722 2.721,-9.3642 -2.0719,-1.7847 -9.8056,-3.3963 -12.8032,-4.2311 -6.0568,-1.6866 -11.5084,-3.3394 -17.5531,-4.946 -3.289,-0.874 -2.5286,-1.3564 -4.0186,-7.1275 -2.5644,-9.933 -3.6296,-18.6891 -3.6296,-29.6262 1.8136,0.9387 3.451,2.4761 5.0595,3.7636l10.0919 7.8886c2.3518,1.8824 3.9342,3.4283 7.1149,3.4283 4.3887,0 6.8908,-6.1572 2.5117,-9.83l-10.4694 -8.1894c-4.5161,-3.6145 -9.1331,-7.6346 -13.966,-10.8008 0.3304,-1.3878 0.4526,-3.2445 0.6651,-4.7112l2.7596 -14.0565c0.7405,-2.9047 1.5644,-5.694 2.523,-8.5907 0.9031,-2.729 2.3104,-5.4418 2.9587,-8.1644l0.6853 0c0.5027,2.1116 2.1384,4.0695 3.1919,5.9255 1.2224,2.1528 2.2142,3.9096 3.4263,6.0315 2.7512,4.816 4.2193,10.4961 9.482,10.4961 4.1148,0 6.3544,-4.1761 4.8065,-7.7139 -0.3734,-0.8537 -0.7654,-1.1982 -1.2671,-2.116l-12.7905 -22.675c-0.5102,-0.9682 -0.7676,-1.4701 -1.3683,-2.3477 4.4068,-8.1475 9.6416,-16.1676 16.0139,-22.8724 1.4804,-1.558 4.9995,-6.2014 6.5949,-6.6181 0,3.7413 0.7798,6.9445 1.0157,10.4005 0.1911,2.7991 0.7141,12.5071 2.3852,14.7575 2.7572,3.7129 9.9587,2.3863 9.9587,-3.0401 0,-3.1124 -0.4455,-5.2102 -0.6946,-8.0336 -0.2173,-2.4627 -0.6207,-5.5284 -0.9176,-7.8154l-1.8134 -15.6522c1.9157,-0.9918 3.5481,-2.5735 5.3363,-3.828 7.1307,-5.0024 14.4402,-9.1692 22.2942,-13.0423 1.1148,-0.5498 3.4591,-1.6434 4.57,-1.8965 -0.269,3.1624 -2.3476,8.2642 -3.3065,11.5108 -0.6054,2.0501 -1.087,3.6624 -1.6837,5.7254 -0.616,2.13 -1.5185,4.2403 -1.5185,6.5573 0,3.6256 3.3773,5.7365 6.7676,4.9726 3.6047,-0.8121 4.2064,-4.0899 5.1499,-7.3887 0.9592,-3.3532 1.8758,-6.3289 2.853,-9.6087 0.4301,-1.4443 4.0905,-15.7545 5.3313,-16.5671 1.6025,-1.0496 10.6393,-2.6534 12.9258,-3.1055 7.3394,-1.451 14.8263,-2.1496 23.4945,-2.1496 -0.664,1.2278 -0.9577,1.4156 -1.8607,2.5361l-10.05 12.2862c-1.0133,1.2116 -3.5043,3.8182 -3.5043,5.6199z"/><path fill="black" d="M64.6736 224.8656l34.941 0c-3.537,5.1673 -11.8711,13.7788 -16.1003,19.1018 -2.5421,3.1995 -4.7958,4.225 -4.7958,8.7131 0,3.6653 4.7806,5.4281 7.8754,4.0202 1.2037,-0.5476 1.6228,-1.2869 2.4926,-2.2553l16.6458 -19.5734c1.3873,-1.6761 2.7671,-3.258 4.2352,-4.9051 1.122,-1.2588 3.6235,-3.596 4.0344,-5.1014l29.4601 0c-0.6602,1.2202 -1.5372,2.1239 -2.504,3.2475 -5.4643,6.3514 -10.5735,12.813 -16.2502,18.9552 -4.9355,5.3404 -0.5302,12.0098 5.2476,9.8344 2.745,-1.0338 12.5995,-13.8425 15.143,-16.6962 1.0667,-1.1968 1.9327,-2.1873 2.9626,-3.4691l5.7659 -6.7586c1.0624,-1.167 1.9743,-2.2691 2.9409,-3.4902 1.5517,-1.9604 1.5848,-1.6515 4.8469,-1.6255 8.5541,0.0676 17.1373,0.0026 25.6946,0.0026 -1.5789,2.9191 -8.3558,9.8855 -10.6194,12.7346 -1.8371,2.3121 -10.2767,11.0471 -10.2767,13.4047 0,2.0948 0.5292,4.2542 2.3884,5.3715 5.2806,3.1734 8.5662,-2.6205 11.42,-5.9379l14.518 -16.9635c1.0536,-1.225 1.8609,-2.3169 2.9347,-3.4963 3.7795,-4.1518 2.5596,-5.1571 7.7877,-5.1157 8.554,0.0676 17.1373,0.0026 25.6946,0.0026 -1.5789,2.9191 -8.3557,9.8855 -10.6194,12.7346 -1.837,2.3121 -10.2767,11.0471 -10.2767,13.4047 0,6.391 6.4742,8.2431 10.234,3.6445 7.0826,-8.6628 16.8607,-19.1789 23.533,-27.581 2.5992,-3.2733 3.3525,-2.2028 8.3676,-2.2028 23.2652,0 29.5725,2.0258 36.0436,6.365 0.9071,0.6083 1.4271,1.1541 2.3377,1.6779 -2.3702,3.0411 -5.5475,5.8028 -8.2459,8.666 -1.8615,1.9756 -7.7458,7.0232 -7.7458,9.4304 0,3.9411 2.4337,6.0322 7.0208,6.0322 2.0926,0 3.6479,-1.5672 4.7862,-2.5902 1.2099,-1.087 10.4308,-10.2468 10.8155,-11.4849 1.1949,0.7523 1.647,3.5461 1.8512,4.7768 0.9751,5.8756 1.038,25.5484 -0.6729,31.7584 -0.3608,1.3093 -0.1355,1.6822 -1.1784,2.3388 -0.3696,-1.1892 -10.991,-12.001 -12.5455,-13.0146 -3.7543,-2.4477 -10.077,-0.9616 -10.077,4.9717 0,2.437 5.7558,7.2503 7.5767,9.2408l4.2453 4.3956c1.5564,1.5887 2.8563,2.7749 4.1698,4.4601 -1.0781,0.6202 -1.641,1.3094 -2.7225,2.0175 -0.9834,0.644 -1.7983,1.1506 -2.965,1.8091 -2.2774,1.2849 -4.5674,2.1059 -7.2286,2.8375 -5.8144,1.5982 -11.5434,1.3789 -32.3162,1.3789 -0.3216,-1.179 -0.754,-1.1588 -1.566,-2.1545l-16.0104 -18.8544c-1.2665,-1.4724 -2.313,-2.7719 -3.5858,-4.1998l-3.5831 -4.2026c-5.3673,-5.6959 -10.5382,-1.3731 -10.5382,2.6017 0,1.7816 0.7973,3.0498 1.6559,4.0771l8.2784 9.6627c3.4673,4.3641 7.8062,8.4597 10.9618,13.0698l-29.46 0c-0.4115,-1.5077 -2.2828,-2.9231 -3.2798,-4.1642l-7.1428 -8.4279c-3.7369,-4.6511 -10.2268,-12.4721 -14.3227,-16.8192 -5.0764,-5.3873 -10.5383,-2.1778 -10.5383,3.2718 0,2.3673 10.3321,13.6323 12.751,16.3463 2.7534,3.0892 5.8442,6.4318 8.1451,9.7932l-29.46 0c-0.4115,-1.5077 -2.2828,-2.9231 -3.2798,-4.1642 -1.2341,-1.5358 -2.4258,-2.7718 -3.5714,-4.2139l-10.7254 -12.6308c-1.2665,-1.4724 -2.3128,-2.7719 -3.5858,-4.1998 -0.6815,-0.7647 -1.0533,-1.2709 -1.7128,-2.0107 -1.9529,-2.1913 -3.2947,-4.9523 -6.9274,-4.9523 -3.502,0 -5.4811,2.8876 -5.4811,6.0321 0,2.123 3.4134,5.306 4.65,6.8451 4.2037,5.2321 12.881,14.3786 16.2462,19.2944l-29.4601 0c-0.4197,-1.5383 -5.7772,-7.0264 -6.8512,-8.3781l-14.3112 -16.8306c-0.6815,-0.7647 -1.0534,-1.2709 -1.7128,-2.0107 -1.9529,-2.1913 -3.2948,-4.9523 -6.9274,-4.9523 -3.5199,0 -5.481,2.81 -5.481,6.0321 0,2.3673 10.3319,13.6323 12.7509,16.3463 2.7534,3.0892 5.8442,6.4318 8.1452,9.7932l-34.941 0c-0.3218,-1.179 -0.754,-1.1588 -1.566,-2.1545l-16.0105 -18.8544c-1.2666,-1.4724 -2.3129,-2.7719 -3.5857,-4.1998 -0.6817,-0.7647 -1.0534,-1.2709 -1.7129,-2.0107 -0.7288,-0.8176 -1.1527,-1.43 -1.8702,-2.1919 -5.0765,-5.3873 -10.5381,-2.1778 -10.5381,3.2718 0,2.123 3.4134,5.306 4.65,6.8451l10.871 12.8235c1.8502,2.1508 3.8254,4.2071 5.375,6.471 -28.9093,0 -40.5517,-3.5849 -47.2373,-15.8581 -4.1584,-7.6337 -2.8556,-21.9136 -2.8556,-30.7236 0,-12.3047 7.3056,-22.5978 36.3863,-26.814 3.9883,-1.4327 8.1952,-1.6713 13.7066,-1.6713 -2.5641,3.7459 -15.2534,18.2027 -19.0796,22.5546 -0.634,0.7211 -1.2718,1.4787 -1.623,2.4493 -1.5313,4.2309 2.1467,8.0938 6.3568,7.2371 2.0055,-0.4079 3.1796,-1.8628 4.3106,-3.1844 1.2637,-1.4767 2.374,-2.7601 3.5747,-4.2107 1.1727,-1.417 2.2675,-2.6223 3.4254,-4.0215 4.5988,-5.5563 9.5426,-10.8616 13.9969,-16.4678 1.0498,-1.3214 2.9867,-2.749 3.4255,-4.3567z"/><path fill="#FEFEFE" d="M165.3857 190.6833c2.1263,-3.9312 4.1264,-8.0737 6.166,-12.0643 1.0278,-2.011 2.0552,-4.0212 3.083,-6.0321 0.7639,-1.4944 2.2283,-5.1739 3.4256,-6.0321 0.3403,1.2469 8.6989,13.106 9.5916,14.41 -1.6775,0.8684 -3.1494,1.9416 -4.8578,2.9555 -4.9957,2.9651 -11.4993,5.4162 -17.4085,6.763zm-42.8198 -4.3566c-3.8821,-0.316 -17.3117,-10.0049 -19.8684,-13.7399 4.5093,0 9.0922,-0.4368 13.7037,-0.6691l10.2827 -0.6644c1.8069,0.0087 2.0774,-0.2332 3.4184,-0.3422 -0.4945,2.0759 -6.9259,12.8516 -7.5365,15.4156zm10.2766 4.0213l9.9331 -19.7725c3.4377,1.6138 14.5587,0.3919 18.2001,-0.6273 1.0481,-0.2933 1.8496,-0.6158 3.0397,-0.7128 -3.6867,6.8162 -7.9807,16.3217 -11.2773,22.1446 -1.3536,2.3912 -3.1766,0.9897 -7.5634,0.9788 -5.0773,-0.0125 -10.6305,-1.8722 -12.3322,-2.0108zm60.2904 -54.2894l7.3991 10.8582c0.7022,1.0306 7.3309,10.8965 7.3309,10.9245 0,2.6917 -8.6735,13.803 -11.6469,15.7508 -0.9348,-0.67 -9.5628,-13.9704 -11.437,-16.6264l-0.8952 -1.135c3.689,-5.3892 8.5998,-12.1383 9.2491,-19.7721zm-106.5356 8.7132c2.3535,0 3.1473,-0.3607 5.4776,-0.3385 3.5635,0.034 13.0462,-1.0019 16.7887,-1.0019 0.7616,1.5526 1.2659,3.3667 2.1957,4.8895 2.8864,4.7267 5.5281,8.5743 9.7938,12.2016 -4.0775,0.332 -8.9604,0.6606 -13.0352,0.9877l-6.8218 0.3639c-2.7706,0.0192 -4.1135,0.3239 -6.8625,0.3239 -2.565,-4.7423 -4.1837,-7.1784 -6.041,-12.5216 -0.3111,-0.8947 -0.5348,-1.5434 -0.7704,-2.2626 -0.2418,-0.7389 -0.4791,-2.1041 -0.7249,-2.642zm-2.3978 -16.0858c0,-7.3664 1.1355,-11.692 2.7404,-18.4316 0.2136,0.2405 0.111,0.0728 0.4701,0.5453l1.4439 2.2739c2.0885,3.1264 12.7196,18.1259 13.1586,19.9689 -6.0447,0 -11.8151,0.5451 -17.4705,1.0055 0,-2.3207 -0.3425,-3.3997 -0.3425,-5.362zm32.8855 -0.335c0,-10.1254 5.6599,-20.8493 14.179,-26.3432 1.8448,-1.1896 3.1061,-2.0064 5.2463,-2.9105 11.2028,-4.7324 22.1126,-3.5732 32.1668,2.9105 1.1771,0.7592 1.3031,0.9569 2.2957,1.7755l4.1108 4.0214c1.9626,2.2778 3.511,4.4808 4.7899,7.3784 6.067,13.7452 2.3877,28.4261 -8.9007,37.7354 -0.9926,0.8186 -1.1186,1.0164 -2.2957,1.7756 -1.8447,1.1896 -3.106,2.0064 -5.2462,2.9104 -12.9007,5.4497 -27.1426,2.7817 -36.6746,-6.5434 -2.3928,-2.3409 -5.2466,-6.2648 -6.6887,-9.5423 -1.5156,-3.4441 -2.9825,-8.4183 -2.9825,-13.1679zm81.1862 -4.6916l17.1279 -1.0056c0,4.8541 0.7199,2.783 0.0505,8.7626 -0.4052,3.6204 0.1926,2.7801 -0.9886,8.7513 -0.3376,1.7069 -0.9908,3.7886 -1.1172,5.2744l-0.6853 0c-0.4578,-1.678 -12.3986,-18.106 -14.3874,-21.7827zm-106.193 -25.8045l0.2938 -0.3827c0.2751,-0.389 0.1712,-0.2342 0.4121,-0.6022 2.8119,-4.2966 6.927,-11.2415 11.2836,-14.0954 0.9617,0.6892 5.1579,7.2339 6.166,8.7131 1.0301,1.5114 1.9291,2.8144 2.9718,4.4653l2.7278 4.0339c0.4623,0.5865 0.1941,0.2423 0.4665,0.549 -0.9851,1.439 -2.053,2.6313 -3.0214,4.0817 -1.0076,1.509 -1.7074,2.82 -2.5738,4.5195 -1.2144,2.3815 -3.5822,7.353 -3.6539,10.5006l-0.6852 0c-0.3773,-1.585 -12.7065,-19.3271 -14.3875,-21.7829zm87.0099 -1.6756c1.4058,0 1.7631,-0.2682 3.0813,-0.3366 1.1081,-0.0575 2.3209,0.0609 3.4288,0.0033l20.2093 -1.3421c3.016,5.5762 5.8728,10.4411 7.5363,17.4262 -4.7387,0 -17.3921,1.3404 -22.2663,1.3404 -0.7457,-1.5203 -1.3287,-3.3562 -2.1981,-4.8871 -0.9491,-1.6713 -1.7874,-3.0974 -2.888,-4.5473 -0.5508,-0.7256 -0.9156,-1.2717 -1.4177,-1.9641l-3.5031 -3.9456c-0.7744,-0.7512 -1.455,-1.0426 -1.9824,-1.747zm-42.5344 -8.9924l12.0482 -23.1784c6.9686,-0.0007 12.8852,1.0662 18.4967,2.3452l-9.7213 19.3737c-2.8436,0.0795 -16.3753,-1.0133 -20.4239,1.739l-0.3996 -0.2794zm33.2851 -1.3962l7.8812 -15.4145c4.3282,0.9855 16.9302,9.95 19.5237,13.7388 -2.2648,0 -4.3496,0.2079 -6.8525,0.334l-6.7563 0.4277c-1.804,0.2419 -4.8919,0.2455 -6.6958,0.4872l-7.1002 0.4267zm-47.0613 4.2925c-0.8488,-0.6383 -4.0982,-5.8073 -5.0757,-7.2417 -1.0562,-1.5503 -4.594,-6.2057 -4.7275,-7.7747 1.2161,-0.3175 3.6615,-2.0185 4.8104,-2.6668 3.6577,-2.0633 13.4144,-6.3009 17.1134,-6.3814l-12.1206 24.0646zm-49.5399 35.5868c0,10.9549 0.6469,18.2954 4.502,28.4375 3.4858,9.1705 7.3088,15.2187 13.6026,22.8858l4.4183 4.7257c6.1041,5.9971 11.3209,9.0357 18.386,13.1795l16.8413 6.3126c23.5864,5.8635 50.5587,0.0695 68.5738,-15.6329 1.0108,-0.8811 1.545,-1.1728 2.565,-2.1823 5.911,-5.8504 10.5532,-10.7842 14.6428,-18.1817 21.2097,-38.3656 6.5543,-82.1368 -28.4469,-101.8623 -29.531,-16.6425 -67.7827,-12.275 -91.8766,11.2961 -3.2439,3.1733 -6.1808,6.1461 -8.8201,9.8031 -8.1246,11.2576 -14.3883,26.4069 -14.3883,41.2189z"/><path fill="#FEFEFE" d="M164.0155 128.351c0,3.5434 -1.7313,7.0864 -4.2661,9.5663 -4.1027,4.0135 -8.6707,4.8162 -14.1853,3.332 -3.4675,-0.9333 -6.8443,-4.2123 -8.3338,-7.3046 -2.7393,-5.6872 -0.5964,-11.6794 2.9615,-15.1601 9.6906,-9.4802 23.8236,-1.1972 23.8236,9.5665zm-42.1346 -1.7176c0,9.1444 1.7303,14.7901 8.2285,21.1475 6.5453,6.4032 12.507,8.0499 21.6166,8.0499 13.2541,0 26.3345,-12.7962 26.3345,-25.7623l0 -3.435c0,-12.9661 -13.0804,-25.7624 -26.3345,-25.7624l-3.5108 0c-13.2541,0 -26.3343,12.7963 -26.3343,25.7624z"/></g></g></svg>