<svg xmlns="http://www.w3.org/2000/svg" viewBox="0 0 299.7739 299.892"><g><path fill="black" d="M34.2896 24.28c0,3.6465 0.9415,6.6655 2.0837,9.7328 0.5266,1.4142 1.2053,2.6128 2.0567,3.7559l5.9852 6.0788c6.6976,4.9022 15.167,5.5434 23.1309,2.3368 2.7377,-1.1024 6.6857,-3.8664 8.5086,-6.146l5.0466 -10.0565c1.3035,-5.1223 0.5878,-13.0906 -2.185,-17.3635 -2.9945,-4.6147 -2.688,-4.8846 -7.1371,-8.0269 -16.7445,-11.8263 -37.4896,0.7893 -37.4896,19.6886z"/><path fill="black" d="M159.1806 190.2982c0,-2.4619 0.7639,-4.2119 2.343,-5.7214 0.0403,-0.0384 0.0948,-0.0919 0.1345,-0.13l1.2836 -1.0096c2.6936,-1.4576 4.8109,-1.1142 9.1745,-1.1142l41.1533 0c4.681,0 12.4213,-0.7268 12.4213,8.2325l0 46.8217c0,3.0904 -1.2627,5.566 -3.6467,6.9627 -2.4603,1.4413 -5.885,1.0124 -9.2891,1.0124l-41.1533 0c-4.3676,0 -8.1279,0.6629 -10.9447,-3.0652 -1.0305,-1.3639 -1.4765,-3.0337 -1.4765,-5.1671l0 -46.8217zm111.6031 44.0036c0,4.9098 -2.8264,8.5423 -6.8571,8.9218 -3.0947,0.2914 -10.7974,0.3472 -13.805,-0.0241 -3.8527,-0.4759 -6.6661,-4.2955 -6.5122,-9.5146 0.0651,-2.2073 0.9183,-4.6546 2.1827,-5.9438l2.2529 -1.7567c2.3,-1.3058 11.8894,-0.7285 15.3801,-0.7285 4.0764,0 7.3587,3.6868 7.3587,9.0458zm-151.3699 -8.7262c1.4487,-0.6696 8.191,-0.3196 10.2632,-0.3196 3.8337,0 6.5358,-0.5011 8.9429,1.8673 4.2136,4.1457 3.4273,14.0253 -2.708,15.8465 -2.1299,0.6324 -7.7716,0.284 -10.3501,0.284 -4.0156,0 -6.2258,0.4285 -8.6727,-1.962 -3.7792,-3.6914 -3.4153,-10.2338 -0.5061,-13.5974l1.2168 -1.096c0.5855,-0.4313 0.9317,-0.6147 1.8139,-1.0227zm17.3082 -111.6993l111.3458 -0.0014c0.0023,6.7881 0.2955,36.8872 -0.0598,41.6248l-110.1004 -0.0325c-1.6063,0 -1.166,0.1203 -1.1856,-3.244l0.0208 -33.9751 -0.0208 -4.3719zm-24.8175 186.0156l22.1702 0c1.8793,-0.9453 2.7741,-0.7077 4.1641,-1.9813 3.4311,-3.144 2.4824,-10.3159 2.266,-15.5875l103.887 -0.0004c0,2.6319 -0.3037,9.9381 0.247,11.9406 0.6654,2.4201 2.1983,4.083 4.1476,4.9495 0.4115,0.1831 -0.0673,0.0017 0.5367,0.2019l1.4737 0.4772 22.4273 0c1.4093,-0.7777 2.7794,-0.6251 4.3907,-2.5386 1.3054,-1.5504 1.9074,-2.847 1.8074,-4.7798 -0.1423,-2.2832 -0.0494,-4.7795 -0.0502,-7.0883 -0.0015,-3.9665 -0.6221,-3.3459 3.3437,-3.3444 4.4169,0.0017 9.4323,-0.2207 13.7742,0.0503 0.7757,-0.0618 0.9882,-0.0941 1.6031,-0.5916 0.0588,-0.0475 0.225,-0.1981 0.2811,-0.2508 0.3343,-0.3135 0.344,-0.2941 0.6295,-0.6922 1.1789,-1.6442 0.6608,-13.9342 0.6335,-16.231 -0.1303,-11.005 1.055,-10.5836 -10.234,-10.5836 0,-12.2628 -0.0058,-24.5258 0.0001,-36.7884 0.0012,-2.6491 0.0008,-4.3048 -0.7966,-6.829l-0.5684 -1.4744c-0.0251,-0.0537 -0.0574,-0.1217 -0.083,-0.175 -0.0248,-0.0515 -0.0602,-0.1155 -0.0855,-0.1664l-1.0488 -1.7762c-0.0348,-0.051 -0.079,-0.1107 -0.1145,-0.162l-2.2063 -2.635c-5.5207,-5.0651 -10.1702,-3.4445 -14.2872,-4.119 0.3575,-1.7562 0.0816,-117.3969 0.0816,-123.3855 0,-3.3516 0.4396,-10.5002 -0.4039,-12.2262 -0.7338,-1.5008 -6.5602,-5.0067 -8.8137,-6.4852l-3.2851 -1.9737 -1.8105 0c-3.6929,2.5927 -2.8443,2.2666 -2.8443,10.2904 0,6.7441 0.2936,26.65 -0.0602,30.9907l-4.1053 -10.4404c-0.0232,-0.0449 -0.0602,-0.1102 -0.0838,-0.1551 -0.0702,-0.1322 -0.2432,-0.4593 -0.4398,-0.8211 -0.3127,-0.5755 -0.1543,-0.3102 -0.4739,-0.8115 -2.0415,-3.2043 -4.1061,-5.3252 -7.0929,-7.5582 -8.0638,-6.0287 -17.1169,-4.932 -27.1012,-4.9242l-42.6965 -0.0284c-6.6439,0.0052 -14.2967,-0.6247 -19.9765,1.3569 -7.9791,2.7839 -13.3524,7.9572 -16.4829,15.711 -1.0259,2.5411 -1.7491,5.2042 -2.8291,7.6711 -0.3516,-4.3149 -0.0603,-24.5285 -0.0603,-31.2479 0,-8.211 0.8165,-7.4632 -2.8443,-10.0332l-1.8104 0c-2.0519,1.293 -11.1606,6.687 -12.0746,8.5176 -0.8813,1.7649 -0.4282,8.9567 -0.4282,12.1675l0 123.486c-4.9393,0 -10.7943,0.22 -14.2284,4.1132 -3.8722,4.3898 -4.8904,6.4193 -4.8806,13.3805 0.0088,6.3393 -0.3302,32.6375 0.0757,36.5313 -11.9325,0 -10.2069,-1.5454 -10.2069,19.2947 0,6.0323 -1.1279,9.2177 5.4988,9.1877 4.3987,-0.0198 10.3813,-0.3287 14.6036,0.0587 -0.1226,2.2575 -0.2623,10.1311 0.2239,11.9589 0.6503,2.445 2.5299,4.3408 4.7522,5.1108 0.4481,0.1552 0.0255,0.0112 0.5698,0.1665 0.5692,0.1625 0.438,0.0373 0.9194,0.2727z"/><path fill="black" d="M166.987 202.5865c-2.1614,0.7296 -3.7122,2.369 -2.6659,5.1365 0.4463,1.1805 1.4002,1.9141 2.6563,2.205 1.2139,0.2809 31.117,0.1042 34.975,0.1042 4.1719,0 15.0003,0.7965 17.2096,-0.7205 2.2435,-1.5402 2.1159,-5.1693 -0.4198,-6.4573 -1.7359,-0.8819 -17.1388,-0.4648 -19.8764,-0.4648 -4.2305,0 -30.0305,-0.4266 -31.8789,0.197z"/><path fill="black" d="M166.4729 187.6653c-3.6835,1.4652 -3.5192,7.2306 2.0261,7.2712 7.7173,0.0565 48.2842,0.2905 49.8687,-0.3191 2.0857,-0.8027 2.9217,-3.3599 2.0345,-5.1568 -1.0874,-2.2024 -2.8188,-2.0965 -6.1041,-2.0928 -7.2774,0.0078 -46.2131,-0.3438 -47.8253,0.2975z"/><path fill="black" d="M166.6146 232.9033c-2.0014,0.6975 -3.3466,2.8914 -2.1676,5.3102 1.1809,2.4222 3.436,2.0145 5.8808,1.9945 5.5828,-0.0458 46.4256,0.3275 47.9836,-0.1234 1.0201,-0.2953 1.496,-0.9654 1.9917,-1.8474 0.5709,-1.0156 0.6211,-2.2596 0.1544,-3.2982 -0.9877,-2.1986 -2.629,-2.2611 -5.9036,-2.2533 -7.3462,0.0177 -46.3595,-0.3327 -47.9393,0.2178z"/><path fill="black" d="M173.6595 225.129l41.9249 0c2.0616,0.0031 4.6655,-0.0035 5.1236,-3.2344 0.332,-2.3433 -1.2539,-4.3266 -3.8376,-4.3266l-49.384 0c-2.7261,0 -4.5962,3.7679 -2.6479,6.149 1.6125,1.9708 4.9295,1.412 8.821,1.412z"/><path fill="#4B4B4B" d="M279.4222 292.5736l0.2069 -10.1754 14.9183 0.0018c1.0724,0.0122 1.1741,0.1255 1.9425,-0.2089 -4.3418,-0.271 -9.3573,-0.0486 -13.7742,-0.0503 -3.9658,-0.0015 -3.3452,-0.6221 -3.3437,3.3444 0.0008,2.3088 -0.0922,4.8051 0.0502,7.0883z"/><path fill="#FEFEFE" fill-rule="nonzero" d="M140.1196 52.3754c0.4349,1.1159 0.9414,1.9673 1.5445,2.7431 0.7002,0.9008 1.5372,1.7302 2.5213,2.6958l1.3166 1.2918 -0.0604 1.8486c-0.0921,2.8253 -0.6488,6.031 -1.1516,8.9263 -0.1904,1.0969 -0.3727,2.1465 -0.5138,3.0878 -0.6358,4.244 -0.8509,4.3979 -3.191,6.0711 -0.2168,0.155 -0.4853,0.347 -0.7673,0.576l-12.9591 10.5671 -0.144 0.0957c-0.6488,0.4316 -1.3289,1.056 -2.0103,1.6819 -1.1076,1.0171 -2.2187,2.0376 -3.7661,2.9524l-3.6386 2.1512 -2.1464 -3.6553c-1.0812,-1.8412 -1.7856,-3.391 -2.6134,-5.2124l-0.3289 -0.7236 -3.1699 -13.751c-1.3817,-2.9 -3.0412,-5.4802 -5.0407,-7.6917 -2.0598,-2.2782 -4.5243,-4.2149 -7.4695,-5.7646 -1.4526,-0.7642 -3.4429,-1.487 -5.5613,-2.0148 -1.9479,-0.4853 -3.9657,-0.7903 -5.7198,-0.7903l0 -8.4628c2.4116,0 5.1366,0.4071 7.7362,1.0548 2.773,0.691 5.4497,1.6747 7.4785,2.7421 3.8194,2.0096 7.0491,4.5585 9.7836,7.5829 2.7084,2.9955 4.8883,6.4085 6.6396,10.1847l0.1799 0.3878 3.1547 13.6856c0.5103,-0.4377 1.0557,-0.871 1.679,-1.2956l12.5941 -10.2693c0.5232,-0.4248 0.8959,-0.6912 1.1971,-0.9067 0.3513,-0.2512 -0.3837,0.2744 -0.28,-0.4184 0.1501,-1.0024 0.3441,-2.119 0.5467,-3.2861 0.348,-2.0038 0.7238,-4.1679 0.921,-6.0112 -0.6857,-0.7029 -1.3118,-1.3906 -1.8941,-2.1398 -1.0506,-1.3516 -1.9443,-2.8642 -2.7345,-4.8917l7.8677 -3.0414zm-56.0554 41.0769c0,-0.6642 -0.0115,-1.0086 -0.0264,-1.4563 -0.143,-4.2928 -0.445,-13.3592 2.6943,-15.3373 4.0382,-2.5449 6.6465,-0.5964 8.4328,2.2379 0.519,0.8235 0.8739,1.6626 1.1552,2.3275 0.0441,0.1044 0.0835,0.1972 0.1673,0.3708 0.9621,1.9924 1.9311,6.0143 2.8596,9.8692 0.6875,2.8541 1.3502,5.6051 1.834,6.8136 1.0393,2.5957 2.34,5.2111 3.6438,7.8327 1.1623,2.3373 2.3273,4.6797 3.3094,6.9617 0.2824,0.6561 0.5111,1.0742 0.7436,1.3718 0.2602,0.3329 0.6522,0.6954 1.1961,1.1619 0.1576,0.1351 0.3563,0.2789 0.5783,0.4263 0.278,0.1844 0.5731,0.3621 0.8714,0.5344 0.7694,0.4446 1.7214,0.6547 2.7127,0.6901 1.1776,0.0421 2.3562,-0.1523 3.373,-0.4986l1.2769 -0.7023c0.4504,-0.3451 0.6845,-0.54 0.9278,-0.7423l0.8219 -0.6846 0.0496 -0.033 1.7466 -1.3614 -0.0049 -0.0056c0.0413,-0.0359 0.0534,-0.0487 0.0663,-0.0624 0.1791,-0.1899 0.3764,-0.3989 0.7821,-0.7577 0.5154,-0.4558 0.7011,-0.586 0.9109,-0.7332 0.0567,-0.0398 0.1196,-0.084 0.288,-0.2253l0.0496 -0.033 3.2106 -2.6062 0.1617 -0.1214 7.8112 -6.7515 2.7155 3.6142c0.3534,0.4705 0.6597,0.9225 0.9441,1.3422 0.4616,0.6813 0.7857,1.1596 1.6627,1.418 0.3221,0.095 0.6634,0.1251 1.0238,0.1007 0.4567,-0.031 0.9444,-0.145 1.4624,-0.3264 0.2557,-0.0896 0.402,-0.1721 0.4784,-0.2597 0.1976,-0.2263 0.409,-0.6691 0.6604,-1.2786 0.3536,-0.8575 0.5365,-2.1494 0.7197,-3.443 0.0755,-0.5335 0.1511,-1.0677 0.2311,-1.5545l0.943 -6.555 0.0592 -0.2186c0.7817,-2.8831 2.6955,-4.235 4.7896,-5.7139 0.9703,-0.6854 2.0181,-1.4254 2.4631,-2.1803 0.7956,-1.3497 1.3065,-2.631 1.4599,-3.8765 0.1423,-1.1553 -0.019,-2.3498 -0.5448,-3.6292 -0.3945,-0.9601 -0.7249,-1.643 -1.0741,-2.0621 -0.2447,-0.2937 -0.6172,-0.5463 -1.21,-0.8105l-2.767 -1.2333 0.2877 -3.0146c0.1892,-1.9831 0.4038,-3.272 0.6866,-4.971l0.0318 -0.1908c0.1011,-0.6075 0.1915,-1.2554 0.2886,-1.9514 0.1152,-0.8259 0.2395,-1.7158 0.4092,-2.7503l0.3941 -2.4027 2.267 -0.87c2.7972,-1.0734 4.6989,-2.8557 5.8709,-4.8882 0.9397,-1.6294 1.4403,-3.4537 1.576,-5.2309 0.132,-1.7296 -0.0886,-3.3583 -0.5898,-4.6647 -0.3525,-0.9188 -0.7797,-1.581 -1.2304,-1.8409l4.1982 -7.3057c2.2176,1.2788 3.9063,3.4637 4.9329,6.1385 0.9287,2.4204 1.3463,5.3226 1.1188,8.301 -0.2237,2.9307 -1.0802,5.9927 -2.6998,8.801 -1.7274,2.9954 -4.2911,5.6646 -7.8368,7.535l-0.0468 0.3349c-0.1117,0.8019 -0.216,1.5482 -0.3215,2.1827l-0.0318 0.1908c-0.1087,0.6536 -0.207,1.2436 -0.295,1.8146 0.5278,0.431 1.0036,0.9063 1.4466,1.438 1.0051,1.2061 1.6979,2.5445 2.3963,4.2441 1.1178,2.7195 1.4543,5.3092 1.14,7.8604 -0.3033,2.4607 -1.2044,4.8089 -2.584,7.1491 -1.3613,2.3092 -3.1862,3.5982 -4.8762,4.7918 -0.6944,0.4904 -1.3038,0.8251 -1.4507,0.9488l-0.8372 5.8197 -0.0165 0.0992c-0.0845,0.5038 -0.1495,0.9632 -0.2145,1.4223 -0.2572,1.8169 -0.514,3.6311 -1.2816,5.4924 -0.5793,1.4047 -1.1944,2.5717 -2.1149,3.6257 -1.0416,1.1929 -2.3057,2.0625 -4.0485,2.6729 -1.2306,0.431 -2.4511,0.706 -3.6774,0.7892 -1.3223,0.0898 -2.6392,-0.0404 -3.9658,-0.4313 -2.0484,-0.6036 -3.2866,-1.3284 -4.226,-2.2121l-1.0697 0.9247 -0.3533 0.278 -3.1084 2.5233 0.0036 0.0043c-0.4242,0.3562 -0.648,0.5133 -0.8499,0.6549 -0.0699,0.049 -0.132,0.0927 -0.1836,0.1382 -0.0265,0.0234 -0.1278,0.1308 -0.2202,0.2288 -0.2256,0.239 -0.4321,0.4578 -0.6614,0.6573l-0.1818 0.1322 -1.8767 1.4627 0.0028 0.0035c-0.5767,0.4643 -0.6548,0.529 -0.7226,0.5854 -0.5479,0.4559 -1.0722,0.892 -1.4565,1.1826l-0.2362 0.1787 -2.2146 1.2181 -0.3605 0.1386c-2.0741,0.7982 -4.5468,1.2627 -6.9957,1.1753 -2.29,-0.0817 -4.6016,-0.6322 -6.6466,-1.8139 -0.4387,-0.2536 -0.8772,-0.5177 -1.301,-0.7989 -0.4797,-0.3185 -0.9518,-0.6658 -1.4049,-1.0544 -0.9233,-0.792 -1.6508,-1.4868 -2.353,-2.3852 -0.7299,-0.9338 -1.308,-1.9221 -1.8677,-3.223 -0.9889,-2.2979 -2.0512,-4.4339 -3.1111,-6.5651 -1.3712,-2.7572 -2.7393,-5.508 -3.9082,-8.4276 -0.6745,-1.6845 -1.4175,-4.7649 -2.1886,-7.9659l-7.0936 0z"/><path fill="none" d="M88.2956 93.4523c0,-1.7363 -0.6343,-12.3924 0.6845,-13.2234 2.141,-1.3492 3.1629,2.0768 3.7057,3.2008 1.4373,2.9762 3.3054,13.24 4.5779,16.4183 2.0214,5.0488 4.8143,9.8469 6.9863,14.8935 0.8423,1.9571 1.6127,2.8123 3.0802,4.071 0.611,0.5241 1.3409,0.9811 2.0778,1.407 3.0162,1.7428 7.0615,1.4972 10.0225,0.3576l1.7701 -0.9735c0.7866,-0.5949 1.3235,-1.0765 2.0799,-1.6854l1.9235 -1.4992c0.2895,-0.2517 0.4588,-0.494 0.865,-0.8531 0.5458,-0.4827 0.4995,-0.3578 1.1162,-0.8758l3.2106 -2.6062c0.059,-0.0452 0.1397,-0.1036 0.198,-0.1497l4.4574 -3.8528c1.5536,2.0677 1.8741,3.4219 4.7886,4.2808 1.649,0.486 3.3157,0.3206 5.0647,-0.2919 1.9987,-0.7001 2.8203,-1.904 3.6511,-3.9184 0.7462,-1.8094 0.8886,-3.9611 1.2316,-6.0056l0.9031 -6.2777c0.7323,-2.7002 4.9255,-3.6455 6.8065,-6.8364 2.1754,-3.6899 2.8233,-7.2584 1.1795,-11.2576 -1.0931,-2.6598 -2.0454,-4.0417 -4.4659,-5.1206 0.1735,-1.8183 0.3929,-3.1069 0.6853,-4.8644 0.2179,-1.3098 0.4088,-2.9569 0.6978,-4.7182 12.611,-4.8394 12.0844,-20.8468 6.2216,-24.2279m-25.6293 15.0525c1.2252,3.1435 2.7998,4.7274 5.041,6.9264 -0.1129,3.4641 -1.1275,8.1654 -1.6322,11.5347 -0.4662,3.1117 -0.49,2.4047 -2.4377,3.9861l-12.7725 10.4148c-2.033,1.3523 -3.4295,3.2386 -5.5946,4.5187 -0.9911,-1.6879 -1.6946,-3.2691 -2.562,-5.1753l-3.1744 -13.7707c-3.1679,-6.8304 -7.7907,-12.2412 -14.5554,-15.8006 -3.3591,-1.7674 -8.9249,-3.301 -13.2479,-3.301"/><path fill="black" d="M141.2267 60.8225c-0.1129,3.4641 -1.1275,8.1654 -1.6322,11.5347 -0.4662,3.1117 -0.49,2.4047 -2.4377,3.9861l-12.7725 10.4148c-2.033,1.3523 -3.4295,3.2386 -5.5946,4.5187 -0.9911,-1.6879 -1.6946,-3.2691 -2.562,-5.1753l-3.1744 -13.7707c-3.1679,-6.8304 -7.7907,-12.2412 -14.5554,-15.8006 -3.3591,-1.7674 -8.9249,-3.301 -13.2479,-3.301l-58.2708 0c-7.7512,0 -14.6711,3.6432 -18.6305,7.754 -0.9071,0.9419 -2.6008,2.7024 -3.0805,3.4072 -0.8891,1.3055 -1.8254,2.9748 -2.5591,4.3154 -1.2829,2.3439 -2.709,7.6294 -2.709,10.8456l0 92.8997c0,5.3113 3.2338,9.6436 7.9346,11.082 3.9279,1.2018 8.7879,-0.1244 11.5501,-2.8751 3.9229,-3.9067 3.499,-6.3329 3.499,-13.3589 0,-7.2856 -0.4692,-85.4122 0.2544,-87.4869 0.7342,-2.1052 4.0941,-1.7875 4.3877,0.756 0.1128,0.9781 0,2.4384 -0.0085,3.4653 -0.3563,43.1414 0.0148,93.9367 0.0148,137.1908l0 51.5208c0.0051,10.8054 -0.8444,23.1621 10.254,26.6569l3.7231 0.4455c4.2823,-0.0823 8.3751,-2.1504 10.8923,-5.5455l1.3927 -2.3181c2.3346,-4.7057 1.1467,-26.3155 1.2519,-32.2334 0.2609,-14.6774 0.0659,-29.6705 0.0242,-44.3681 -0.0169,-5.9787 -0.462,-41.6522 0.1428,-44.4305l5.3585 0c1.3652,2.5173 -0.3893,100.87 0.312,116.0532 0.2905,6.2854 5.441,11.8355 11.425,12.6719 4.0016,0.5592 7.0542,-0.2013 9.829,-1.985 2.6736,-1.7185 4.2206,-3.291 5.3392,-6.6235l0.7893 -3.3283c0.7581,-7.7302 -0.1179,-20.9133 0.1527,-29.0759 0.1542,-4.6474 -0.3314,-13.9155 -0.1498,-18.5492l-0.0736 -146.6628c0,-1.7363 -0.6343,-12.3924 0.6845,-13.2234 2.141,-1.3492 3.1629,2.0768 3.7057,3.2008 1.4373,2.9762 3.3054,13.24 4.5779,16.4183 2.0214,5.0488 4.8143,9.8469 6.9863,14.8935 0.8423,1.9571 1.6127,2.8123 3.0802,4.071 0.611,0.5241 1.3409,0.9811 2.0778,1.407 3.0162,1.7428 7.0615,1.4972 10.0225,0.3576l1.7701 -0.9735c0.7866,-0.5949 1.3235,-1.0765 2.0799,-1.6854l1.9235 -1.4992c0.2895,-0.2517 0.4588,-0.494 0.865,-0.8531 0.5458,-0.4827 0.4995,-0.3578 1.1162,-0.8758l3.2106 -2.6062c0.059,-0.0452 0.1397,-0.1036 0.198,-0.1497l4.4574 -3.8528c1.5536,2.0677 1.8741,3.4219 4.7886,4.2808 1.649,0.486 3.3157,0.3206 5.0647,-0.2919 1.9987,-0.7001 2.8203,-1.904 3.6511,-3.9184 0.7462,-1.8094 0.8886,-3.9611 1.2316,-6.0056l0.9031 -6.2777c0.7323,-2.7002 4.9255,-3.6455 6.8065,-6.8364 2.1754,-3.6899 2.8233,-7.2584 1.1795,-11.2576 -1.0931,-2.6598 -2.0454,-4.0417 -4.4659,-5.1206 0.1735,-1.8183 0.3929,-3.1069 0.6853,-4.8644 0.2179,-1.3098 0.4088,-2.9569 0.6978,-4.7182 12.611,-4.8394 12.0844,-20.8468 6.2216,-24.2279l-1.559 0.4974c-0.4243,2.5223 -0.4324,6.0103 -1.3826,8.2396l-8.7388 3.4692c-0.9855,-0.682 -7.6658,-5.8525 -7.7539,-6.5257 0.4302,-1.6845 0.5242,-3.0818 0.8135,-4.9698 1.5241,-9.9455 -11.4488,2.9494 -7.0086,14.3419 1.2252,3.1435 2.7998,4.7274 5.041,6.9264z"/></g></svg>