<svg xmlns="http://www.w3.org/2000/svg" viewBox="0 0 299.9586 299.9585"><g><g><path fill="#010101" d="M76.1775 14.4829c0,-7.6957 6.7639,-14.4829 13.4997,-14.4829l37.6066 0c6.8027,0 13.4997,6.8403 13.4997,14.4829l0 3.5403 -64.6061 0 0 -3.5403z"/><path fill="#010101" d="M285.7457 37.3338c3.8591,0 6.1439,2.1947 8.8642,4.3198 1.2269,0.9587 2.481,1.8722 3.4065,3.026 2.5913,3.231 2.6774,8.4831 -0.274,12.0691 -0.9983,1.2128 -9.1551,11.112 -9.4255,12.1258 -1.378,-0.3685 -16.8587,-13.7123 -19.9281,-15.7704 1.2826,-1.9181 9.7636,-12.73 11.1096,-13.6579 1.7292,-1.1924 3.4973,-2.1124 6.2473,-2.1124z"/><path fill="#010101" d="M6.4286 45.058l38.8921 0c0,3.2993 -0.6893,18.4268 0.9506,21.0107 0.6638,1.046 2.1435,1.9172 3.8709,1.9172l117.6409 0c3.8244,0 4.8214,-3.0544 4.8214,-6.4369l0 -16.491 38.8923 0c0.9362,0 2.5696,0.8953 3.2109,1.2906 1.0354,0.6387 1.6897,1.5421 2.2078,2.6171 0.6009,1.2468 0.7823,2.4767 0.9372,3.9148l0.0725 13.4193c0,0.788 -0.1802,1.2423 -0.1895,1.649l0.1895 4.7878c0,0.7881 -0.1802,1.2424 -0.1895,1.649l0.1895 4.7878c0,0.7881 -0.1802,1.2426 -0.1895,1.6491l0.1895 4.7879c0,0.7881 -0.1802,1.2424 -0.1895,1.649l0.1895 4.7879c0,0.788 -0.1802,1.2423 -0.1895,1.6489 -0.0582,2.4803 0.7195,6.2278 -0.7548,8.3481 -0.6017,0.8652 -1.6049,1.9456 -2.3122,2.8344 -1.6099,2.0233 -3.0529,3.8875 -4.7051,5.9096 -3.0222,3.6988 -6.7336,7.8541 -9.3951,11.8341 -3.304,-0.7709 -9.0304,-4.086 -14.9936,-5.263 -2.4535,-0.4844 -2.383,0.5255 -2.6763,-11.8033 -0.025,-1.0526 -0.4069,-4.2989 -0.7922,-4.9997 -0.568,-1.0333 -2.2602,-2.3942 -3.7162,-2.3942l-21.8568 0c-4.694,0 -4.1886,6.7458 -4.3143,7.5883 -0.2554,1.7101 -0.2924,4.1396 -0.4599,5.6545 -0.1058,0.9558 0.0004,1.9011 -0.0465,2.85 -0.065,1.312 -0.3222,1.4899 -0.3222,2.896 -1.9256,0.043 -5.1713,1.1441 -6.9539,1.7266 -6.3915,2.0881 -11.9371,5.1466 -17.7956,8.2506 -1.4246,-2.1302 -4.168,-3.7475 -6.023,-5.5554 -3.4606,-3.3736 -8.0883,-7.9218 -12.7053,-3.2202l-11.8873 11.9136c-7.1434,7.1405 -0.4104,8.9519 4.7662,15.6648 1.0546,1.3676 2.2205,2.1963 3.0285,3.4045l-5.7863 11.5859c-1.6373,4.1283 -3.0892,8.5167 -4.178,13.196l-12.0293 0.8288c-2.3652,0.3456 -6.9346,-0.3069 -6.9346,5.93l0 18.9888c0,6.9513 8.0853,5.5394 12.9043,6.0676l6.0597 0.3693c3.1553,13.5604 9.6295,23.3432 9.9643,24.782l-9.609 10.6547c-2.5181,3.2724 -0.1287,6.9088 2.7233,9.1136 3.4138,2.639 6.0469,6.5918 9.457,9.1975 3.9987,3.0557 4.773,6.1888 10.3334,1.6573 0.6888,-0.5614 0.9327,-0.9277 1.6952,-1.5211 0.8865,-0.6898 0.9391,-0.7575 1.7086,-1.5077l6.834 -5.709c1.8473,0.9789 3.4452,2.0393 5.3523,3.0087 6.1246,3.1126 12.2952,5.3867 19.0758,6.9683l0.9165 11.6345c0.2878,2.6843 -0.1205,7.3544 5.1907,7.3544l19.9282 0c1.6711,0 3.4525,-0.9521 4.2411,-1.8683 1.0249,-1.1903 1.5612,-8.7154 1.5513,-10.9987 -0.0107,-2.4599 0.3147,-3.5919 0.3147,-6.1219 1.7112,-0.1425 5.1858,-1.2435 6.8746,-1.8061 4.3128,-1.4361 8.3008,-3.052 12.3076,-5.0559 1.9052,-0.953 3.4962,-2.5613 5.5673,-3.1151l4.8959 4.4314c6.0457,6.0249 4.7343,2.5151 4.5573,10.0913l0.1895 4.7879c0,0.788 -0.1802,1.2423 -0.1895,1.6489l0.1895 4.7879c0,0.788 -0.1802,1.2424 -0.1895,1.649l0.1895 4.7879c0,0.7881 -0.1802,1.2424 -0.1895,1.649 -0.0763,3.2551 0.9151,7.6551 -1.4858,10.1909 -1.3465,1.4221 -2.7544,2.9651 -5.3962,2.9651l-204.1038 0c-5.9999,0 -6.75,-6.4501 -6.75,-11.2646l0 -7.4025c0,-0.788 0.1804,-1.2423 0.1899,-1.6489l-0.1899 -4.788c0,-0.7879 0.1804,-1.2423 0.1899,-1.6489l-0.1899 -4.7877c0,-0.7883 0.1804,-1.2426 0.1899,-1.6492l-0.1899 -4.7878c0,-0.7881 0.1804,-1.2425 0.1899,-1.649l-0.1899 -4.7879c0,-0.7881 0.1804,-1.2424 0.1899,-1.649l-0.1899 -4.788c0,-0.7879 0.1804,-1.2423 0.1899,-1.6489l-0.1899 -4.7878c0,-0.7882 0.1804,-1.2425 0.1899,-1.649l-0.1899 -4.7879c0,-0.7881 0.1804,-1.2424 0.1899,-1.649l-0.1899 -4.7879c0,-0.788 0.1804,-1.2424 0.1899,-1.649l-0.1899 -4.7878c0,-0.7881 0.1804,-1.2425 0.1899,-1.6489l-0.1899 -4.788c0,-0.7881 0.1804,-1.2424 0.1899,-1.649l-0.1899 -4.7879c0,-0.7881 0.1804,-1.2424 0.1899,-1.649l-0.1899 -4.7879c0,-0.788 0.1804,-1.2423 0.1899,-1.649l-0.1899 -4.7878c0,-0.788 0.1804,-1.2425 0.1899,-1.6489l-0.1899 -4.788c0,-0.788 0.1804,-1.2424 0.1899,-1.649l-0.1899 -4.7879c0,-0.788 0.1804,-1.2424 0.1899,-1.649l-0.1899 -4.7877c0,-0.7881 0.1804,-1.2425 0.1899,-1.649l-0.1899 -4.788c0,-0.788 0.1804,-1.2424 0.1899,-1.6489l-0.1899 -4.788c0,-0.788 0.1804,-1.2424 0.1899,-1.6489l-0.1899 -4.7879c0,-0.7881 0.1804,-1.2424 0.1899,-1.6491l-0.1899 -4.7877c0,-0.7881 0.1804,-1.2424 0.1899,-1.649l-0.1899 -4.788c0,-0.788 0.1804,-1.2424 0.1899,-1.6489l-0.1899 -4.788c0,-0.788 0.1804,-1.2424 0.1899,-1.6489l-0.1899 -4.7878c0,-0.7881 0.1804,-1.2425 0.1899,-1.649l-0.1899 -4.7879c0,-0.7881 0.1804,-1.2424 0.1899,-1.649l-0.1899 -4.788c0,-0.788 0.1804,-1.2423 0.1899,-1.6489l-0.1899 -4.7879c0,-0.7879 0.1804,-1.2424 0.1899,-1.649l-0.1899 -4.7878c0,-0.7881 0.1804,-1.2424 0.1899,-1.649l-0.1899 -4.7879c0,-0.7881 0.1804,-1.2424 0.1899,-1.649l-0.1899 -4.7879c0,-0.7881 0.1804,-1.2425 0.1899,-1.6491l-0.1899 -4.7877c0,-0.788 0.1804,-1.2424 0.1899,-1.6491l-0.1899 -4.7878c0,-0.7881 0.1804,-1.2424 0.1899,-1.649l-0.1899 -4.7878c0,-0.7882 0.1804,-1.2426 0.1899,-1.6492l-0.1899 -4.7877c0,-0.788 0.1804,-1.2425 0.1899,-1.6491l-0.1899 -4.7878c0,-0.788 0.1804,-1.2424 0.1899,-1.6489l-0.1899 -4.788c0,-3.4229 0.1439,-7.5755 3.1992,-9.6705 0.5911,-0.4053 2.2464,-1.2723 3.2295,-1.2723z"/><polygon fill="#010101" points="55.285,28.3222 162.6404,28.3222 162.6404,58.6525 55.285,58.6525 "/><path fill="#010101" d="M215.9966 158.9908l-19.6069 -15.7703c0.5986,-1.1327 1.0904,-1.6185 1.8864,-2.617 0.6902,-0.8662 1.3235,-1.6236 2.0129,-2.4902l24.8464 -31.1221c1.4549,-1.8546 2.7413,-3.3038 4.1797,-5.1483l32.9664 -41.3363 19.6069 15.7703c-0.4316,1.6185 -25.953,32.8605 -28.7076,36.2673l-35.0352 43.7706c-0.6978,0.8629 -1.6083,1.8674 -2.1491,2.6759z"/><path fill="#010101" d="M182.2473 147.7263c-2.272,0 -4.7367,-1.0253 -7.2066,-1.4739 -5.8027,-1.0537 -12.6676,-0.7212 -18.2163,0.4778 -10.8344,2.3415 -20.549,9.2508 -26.7793,18.2439 -3.2998,4.7627 -5.5456,9.7976 -6.9442,15.5757 -0.3531,1.4588 -0.5846,2.9018 -0.8314,4.6389l-0.4732 5.3452c-0.0211,1.2072 0.1644,1.6532 0.2559,2.3393 0.332,2.4896 0.4123,5.2825 0.9854,7.7033 2.6161,11.0513 9.007,20.5602 18.0683,26.9663 2.125,1.5023 4.7039,3.1603 7.1148,4.1404 2.8104,1.1428 5.1102,2.2131 8.3333,2.9204 14.0357,3.0798 28.5529,-0.049 39.0982,-9.086 3.053,-2.6162 5.9531,-5.4677 8.1991,-8.8481 1.6354,-2.4614 2.783,-4.4413 4.1147,-7.1443 2.522,-5.1192 4.1737,-13.0665 4.1737,-20.281 0,-3.18 -0.9601,-9.5653 -1.9286,-11.5863 2.9198,-1.9578 5.7257,-4.4206 8.4646,-6.651 1.1062,-0.9011 0.8711,-0.6992 1.7519,-1.7863 0.6232,-0.7693 1.1195,-1.3887 1.7184,-2.1414 0.7583,-0.9531 2.7293,-3.6655 3.4935,-4.2263 1.5029,2.2472 2.8165,4.7646 3.8114,7.4482 1.4744,3.9772 1.9941,10.4909 4.6601,12.0698 1.7898,1.0602 13.0329,1.5069 15.6353,1.7237l0 10.9428c-2.453,0 -13.802,0.7358 -15.1299,1.2643 -1.9105,0.7603 -2.6547,2.5939 -3.0598,4.9822 -0.4669,2.7514 -0.8223,4.3942 -1.5286,6.8374 -3.8685,13.3784 -10.817,18.9225 -10.817,22.3189 0,1.5005 1.129,3.1773 2.0033,4.109 0.5239,0.5582 0.9162,0.8887 1.4583,1.4365l4.2046 4.8014c0.9436,1.1841 2.1175,1.9394 2.9408,3.1705 -0.713,1.0662 -1.0647,1.028 -2.006,1.8532 -1.8617,1.6321 -3.9077,4.8958 -6.351,5.5492 -1.1166,-0.7487 -1.7685,-1.7627 -2.845,-2.6227 -2.6088,-2.0841 -7.0242,-7.3545 -10.0119,-7.3545 -2.2314,0 -4.084,1.5368 -6.0034,2.6785 -1.8606,1.1069 -3.1352,1.9 -5.1391,2.9002 -3.6213,1.8072 -7.2075,3.4451 -11.5461,4.5311 -2.2636,0.5666 -4.3714,1.0671 -6.6106,1.427 -2.3843,0.383 -4.1226,1.1636 -4.8316,3.2081 -0.5376,1.5503 -0.3919,5.2348 -0.6303,7.4149 -0.2145,1.963 -0.5955,5.3206 -0.5955,7.4499l-10.9284 0 -1.2179 -14.8725c-1.1256,-3.5838 -6.2969,-3.3125 -11.708,-4.6908 -5.987,-1.5247 -11.723,-4.1721 -16.6489,-7.4677 -7.3204,-4.8974 -6.3636,-3.3855 -16.4337,4.7786 -1.0745,0.871 -2.4349,2.2338 -3.4907,2.9418l-7.4683 -7.6488c1.8974,-2.723 4.3087,-5.0185 6.5909,-7.391 0.6839,-0.711 0.704,-0.9023 1.2951,-1.5997 1.7246,-2.0339 2.1537,-2.4267 2.1537,-5.246 0,-1.4609 -2.036,-3.9716 -2.7925,-5.25 -4.2008,-7.1006 -7.4674,-14.7544 -9.1246,-23.0477 -0.4774,-2.3888 -1.0853,-4.0438 -3.206,-4.8358 -1.0507,-0.3925 -12.661,-1.128 -14.7692,-1.3037l0 -11.2646c2.5412,-0.5927 7.344,-0.5144 10.0523,-0.8771 3.4804,-0.466 6.2927,0.2874 7.5726,-3.682 0.429,-1.3309 0.5389,-3.0604 0.889,-4.5813 0.3819,-1.659 0.7028,-3.0354 1.2098,-4.5818 0.9445,-2.8808 1.9251,-5.5069 3.2006,-8.0599 1.3032,-2.6081 2.52,-4.8647 4.0121,-7.2471 4.4383,-7.085 5.2332,-6.8312 -1.6245,-13.6955 -1.3912,-1.3927 -4.3744,-4.3645 -5.3839,-5.8737l7.3142 -7.4812c0.9359,0.2865 3.6991,2.9218 4.6656,3.8538 0.5681,0.5483 0.8651,0.9132 1.4333,1.4613l3.0525 2.7369c6.2674,6.3424 9.5824,-3.802 26.7942,-8.1059 5.4585,-1.365 9.9943,-1.2223 11.4067,-4.6708 0.2918,-0.7122 1.2613,-13.1721 1.2613,-14.829l10.9284 0c0,2.5183 0.5406,12.7018 1.2184,14.8723 1.0211,3.27 4.1923,2.9811 7.0047,3.6067l8.5351 2.3963c1.1111,0.4029 2.8479,1.1425 3.8129,1.6537 -0.4996,1.8736 -2.9738,4.1848 -4.2228,5.7489 -0.537,0.6724 -0.9818,1.3467 -1.5185,2.0198 -0.9611,1.2048 -2.2028,2.5277 -2.933,3.8218 -0.4521,0.8013 -1.8465,4.1087 -1.9326,5.1454z"/><path fill="#010101" d="M154.9263 209.1985c0,4.3971 4.1678,7.1689 8.0414,4.1897 3.2871,-2.5282 37.8502,-29.1666 39.5293,-29.6155l0.3214 5.1495c0,7.7523 -2.1983,14.6349 -6.0385,20.3449 -1.1261,1.6744 -2.6003,3.6102 -4.003,5.0033 -3.1372,3.116 -6.1332,5.275 -10.3111,7.3769 -16.5242,8.313 -37.8873,0.9784 -46.6143,-16.5218 -5.5955,-11.2204 -4.3527,-25.6666 3.0008,-35.8383l4.0099 -4.6748c8.5651,-7.9314 19.2753,-11.8397 31.1143,-9.57 1.6194,0.3103 3.0831,0.941 4.4136,1.0518 -0.1407,1.6925 -4.7898,10.8908 -5.7404,13.2408l-6.0166 13.2864c-1.3401,3.2489 -11.7069,24.9332 -11.7069,26.5772z"/><path fill="#010101" d="M172.2831 193.1062l2.2465 -5.1529c0.4537,-0.9137 0.6481,-1.3317 1.1034,-2.4354l9.2962 -20.3013c0.4799,-0.9925 0.7257,-1.7914 1.1716,-2.6892 0.4536,-0.9133 0.6481,-1.3314 1.1033,-2.4353 0.4422,-1.0722 0.802,-1.5853 1.2429,-2.6175 0.6897,-1.615 1.7911,-3.6691 2.1571,-5.2426 1.8118,0.4845 16.2156,13.0403 17.9997,13.5173l-18.0914 13.7477c-3.0978,2.3284 -5.9021,4.4306 -8.9998,6.7588 -3.0902,2.3227 -6.0992,4.7512 -9.2297,6.8504z"/><path fill="#FEFEFE" d="M40.178 123.2661l-9.8371 -15.5757c-2.1929,-3.2718 -2.0784,-4.0566 -5.9127,-4.0566 -2.1983,0 -4.4999,2.3045 -4.4999,4.5057 0,2.8812 6.5817,11.656 8.4211,14.4188l6.9511 10.4194c4.1263,5.2927 9.3587,-0.3271 14.0994,-4.3395l28.3107 -23.1473c1.9226,-1.5711 9.9596,-7.6741 10.7006,-9.2395 1.032,-2.1802 0.7817,-3.8583 -0.8849,-5.5907 -2.3822,-2.4764 -4.9751,-1.7841 -7.3922,0.1992 -0.9587,0.7864 -1.7657,1.4448 -2.671,2.1531 -10.4591,8.1793 -21.4108,17.6337 -31.96,25.9301 -1.0133,0.7971 -1.7116,1.3529 -2.68,2.1442 -0.8385,0.6851 -1.8937,1.6753 -2.6452,2.179z"/><path fill="#FEFEFE" d="M9.6428 155.1286c0,3.4518 2.401,5.1496 6.2643,5.1496l58.5898 0c8.0225,0 7.7606,-9.9772 -0.3685,-9.9772l-58.5898 0c-3.3182,0 -5.8958,1.8982 -5.8958,4.8276z"/><path fill="#FEFEFE" d="M9.6428 216.2791c0,3.3892 2.6947,5.1495 6.6328,5.1495l56.7473 0c1.9614,0 3.9441,-0.2429 5.0776,-1.0366 4.5831,-3.2091 1.7314,-8.9406 -3.6036,-8.9406l-59.3268 0c-3.2802,0 -5.5273,1.9626 -5.5273,4.8276z"/><path fill="#FEFEFE" d="M9.6428 246.8543c0,4.3567 4.0415,5.1494 8.1069,5.1494l54.9047 0c11.6985,0 7.9969,-9.977 2.5794,-9.977l-60.0637 0c-3.2802,0 -5.5273,1.9626 -5.5273,4.8276z"/><path fill="#010101" d="M9.6428 277.4292c0,2.4879 2.1377,4.8276 4.7904,4.8276l61.169 0c6.5373,0 6.013,-9.6553 -0.3684,-9.6553l-60.8006 0c-2.6527,0 -4.7904,2.3398 -4.7904,4.8276z"/><path fill="#FEFEFE" d="M9.6428 185.7038c0,3.0479 2,5.1496 5.1428,5.1496l43.0708 0c6.8188,0 6.9047,-9.9772 0.3213,-9.9772l-43.0706 0c-3.2368,0 -5.4642,1.6177 -5.4642,4.8276z"/></g></g></svg>