<svg xmlns="http://www.w3.org/2000/svg" viewBox="0 0 299.9416 299.9416"><g><g><path fill="black" d="M250.3746 90.8262c0.7888,-1.1625 1.6152,-2.1001 2.1588,-2.8852 2.5616,-3.699 5.17,-7.913 8.0167,-11.3652l4.0573 -5.6949c2.5035,-3.4368 4.6262,-5.1181 3.9569,-10.8297 -0.3578,-3.0543 -1.4014,-4.5875 -3.1357,-6.3731l-19.5777 -19.3277c-3.7102,-3.6319 -8.6096,-4.5334 -14.0852,-0.8766 -7.3308,4.8956 -15.1821,11.8172 -22.6251,15.9194 -5.0456,-2.3443 -8.461,-4.4967 -14.1755,-7.0237 -5.3368,-2.36 -10.3749,-3.7846 -15.9368,-5.3602 -0.4723,-4.1617 -1.6709,-9.6667 -2.356,-14.1431 -0.6349,-4.1468 -1.387,-9.2814 -2.357,-13.8838 -2.4003,-11.3875 -15.4735,-8.6936 -24.5875,-8.7278 -10.0883,-0.0377 -22.1781,-2.2094 -25.0149,8.0607 -1.7863,6.4666 -3.7704,21.722 -5.0222,29.1644 -11.1277,2.3171 -19.4384,7.2657 -29.0615,11.9248 -2.4073,-1.3272 -4.9332,-3.4592 -7.2944,-5.0826 -2.4767,-1.703 -4.8576,-3.4358 -7.3689,-5.278 -2.5947,-1.9032 -4.6141,-3.1689 -7.3672,-5.1573 -9.6755,-6.9885 -16.4902,1.9675 -23.3517,8.9126 -2.249,2.2764 -3.5762,3.447 -6.2656,6.2209 -9.6454,9.9473 -12.0187,11.3282 -3.2486,23.5712 3.2164,4.4898 6.7072,9.4425 10.2291,14.3276 2.6238,3.6399 3.5959,3.2098 1.2605,7.4784 -3.0899,5.6478 -5.5918,11.5563 -7.6795,17.5467 -0.9738,2.7946 -1.866,7.0132 -2.9067,9.4152l-27.6833 4.619c-11.1531,2.2416 -8.6818,15.2014 -8.7088,24.7303 -0.0245,8.6621 -2.3579,21.8685 7.9232,24.5269 5.4997,1.4219 22.6793,4.1856 28.9695,4.9443 0.9821,1.7695 1.7679,5.3876 2.6283,8.0536 1.6701,5.1744 3.7989,9.797 6.2734,14.884 1.0621,2.1831 2.4155,4.2237 3.6136,6.7112 -1.5221,3.5354 -9.0674,12.8242 -12.1833,17.5554 -3.6678,5.5692 -10.5742,11.551 -2.2445,19.988l4.8959 4.6792c4.0018,4.5645 7.9154,8.0018 12.2675,12.2208 1.0295,0.998 1.4913,1.7291 2.4092,2.6251 4.0065,3.9098 10.7771,2.5727 14.4126,-0.0476l2.4813 -1.9453c3.3712,-2.5944 16.3234,-11.8647 19.8888,-13.8954l3.2819 2.0411c5.8173,3.0838 12.0758,5.8006 17.9404,7.7026 0.5094,0.1651 1.5157,0.5224 2.0636,0.6839 0.5536,0.1635 1.2074,0.3224 1.8988,0.5108 1.4575,0.397 2.7039,0.7849 4.1328,1.162 -0.2063,1.6999 3.6944,24.4318 4.4965,27.9451 1.1212,4.91 4.1776,7.5869 8.6421,8.3932 3.6576,0.6604 29.3061,0.6295 32.451,0.0836 2.3309,-0.4046 4.4643,-1.5457 6.0073,-3.2204l1.3671 -1.8237c0.5079,-0.9118 0.7963,-1.7024 1.0957,-3.0704l4.3611 -25.2904c0.182,-1.2148 0.3185,-2.2522 0.5985,-3.4649 13.877,-3.0701 22.3138,-9.2652 26.9958,-10.6298 -0.9149,-2.2304 -21.8311,-23.8267 -25.833,-27.9219 -0.3608,-0.3695 -0.458,-0.4687 -0.8091,-0.8426 -0.5801,-0.6178 -1.3035,-1.3967 -1.4825,-1.5887 -7.8145,3.6506 -20.8636,5.6388 -30.6079,5.4637 -18.7169,-0.3361 -33.8365,-6.8979 -47.7142,-17.8625 -7.061,-5.579 -14.3122,-14.5105 -18.4617,-22.6044 -9.3267,-18.1926 -12.3574,-40.443 -5.574,-60.0046l9.1329 -19.0443c0.4025,-0.6559 1.0914,-1.7813 1.7546,-2.6589l3.9695 -5.0087c0.8088,-0.9307 1.3736,-1.8362 2.164,-2.674l2.3492 -2.0338c0.9866,-0.9841 1.2637,-1.2824 2.2749,-2.1872 0.6958,-0.6223 0.6115,-0.5274 1.2509,-1.2244l3.7824 -3.0489c2.008,-1.8491 4.3447,-2.985 6.6275,-4.5868l1.9333 -1.1914c0.0804,-0.0432 0.1849,-0.098 0.2663,-0.1416l5.0525 -2.6c16.0383,-8.5834 37.1269,-8.7334 53.909,-4.559l13.4821 5.1625c1.102,0.5398 2.4941,1.3375 3.2178,1.7484 1.2663,0.7188 2.1236,1.2094 2.923,1.7083l1.4836 0.9278c0.5249,0.3461 0.7692,0.5267 1.1932,0.8246 4.391,3.086 8.6771,6.5439 12.3595,10.279 15.8253,16.0516 25.4767,40.8284 20.288,67.9763 -2.0572,10.7634 -4.2292,8.7413 0.1373,13.3624l24.216 25.72c0.9401,1.033 1.5883,1.7324 2.6319,1.9959 0.0666,-1.0796 0.9069,-2.0561 1.3888,-3.0175l2.8391 -6.1449c2.7731,-5.4172 4.0839,-11.2455 5.8706,-17.0725 4.7762,-0.4593 10.1136,-1.4628 14.346,-2.2381 5.8893,-1.0787 15.4709,-1.0894 19.3594,-5.2097 0.4704,-0.4985 2.2546,-3.2377 2.7688,-5.2699 0.6769,-2.6762 0.7023,-28.8784 0.1595,-32.0213 -1.7927,-10.3806 -14.161,-9.8169 -22.224,-11.1533 -2.2752,-0.3772 -13.567,-1.5223 -14.3275,-2.8002 -0.5058,-0.8492 -4.3355,-12.859 -6.3978,-17.5369 -1.8246,-4.1385 -3.8225,-8.3654 -6.2375,-12.1262z"/><path fill="black" d="M280.299 271.6722c5.3145,-1.8037 10.1027,1.8796 11.3222,6.1559 3.3996,11.9211 -14.4457,16.6629 -17.6574,5.0096 -0.754,-2.7352 -0.0895,-5.352 1.0613,-7.4211 1.2067,-2.1691 2.4372,-2.7819 5.2739,-3.7445zm-147.9537 -88.0869c1.4575,0.4511 2.9086,0.8554 4.6204,1.0488 1.7733,0.2004 3.6105,0.3221 5.4036,0.2854 6.1872,-0.1269 13.8891,-5.7109 22.297,1.607 1.009,0.8781 1.9018,1.9595 2.8811,2.9381l34.1473 34.1472c15.2928,15.2929 30.3164,30.3164 45.6576,45.6576 7.6707,7.6707 15.1171,15.2043 22.8293,22.8313 4.4055,4.3569 10.313,6.5201 16.7901,4.9035 9.3,-2.3214 14.6134,-11.2689 12.5132,-20.5699 -1.5714,-6.9584 -9.4586,-13.4475 -15.1435,-18.8273 -7.7697,-7.3528 -14.9367,-15.3524 -22.8228,-22.835 -7.8382,-7.4371 -14.8815,-15.2475 -22.8236,-22.8344 -7.7108,-7.366 -14.8398,-15.0536 -22.6306,-22.6451 -7.7348,-7.5367 -15.0551,-15.1833 -22.8276,-22.8307 -2.1121,-2.0782 -4.1369,-3.7649 -5.661,-6.2149l-0.4203 -0.7209c-2.5411,-4.7143 -1.8011,-8.1616 -0.8478,-13.1111 0.9997,-5.1892 1.2875,-10.1266 0.2476,-15.2762 -1.3169,-6.5204 -5.0301,-11.5718 -8.0259,-14.8161 -7.7649,-8.4083 -21.5027,-13.0013 -33.3955,-11.8494 -4.9004,0.4748 -14.8186,2.5751 -16.6096,6.038 1.1829,1.2455 5.7053,3.9494 7.5684,5.1032l7.4047 4.8591c1.7452,1.0753 3.1616,2.0242 4.9379,3.1258 2.7259,1.6902 5.1596,6.5741 4.9778,11.4541 -0.3395,9.1137 -11.2651,27.6042 -25.3422,18.9482 -2.2266,-1.3691 -18.8387,-12.1094 -20.3554,-12.5568 -0.7464,2.0775 -1.2511,1.743 -1.2315,4.7311 0.0968,14.7048 8.7447,29.4527 21.6746,35.6819 1.754,0.8449 2.7538,1.2837 4.1868,1.7275z"/><path fill="#FEFEFE" d="M280.299 271.6722c-2.8366,0.9626 -4.0672,1.5754 -5.2739,3.7445 -1.1508,2.0691 -1.8152,4.6859 -1.0613,7.4211 3.2117,11.6532 21.057,6.9115 17.6574,-5.0096 -1.2195,-4.2763 -6.0077,-7.9596 -11.3222,-6.1559z"/></g></g></svg>