<svg xmlns="http://www.w3.org/2000/svg" viewBox="0 0 299.9414 299.9415"><g><path fill="black" d="M45.4828 187.2252c-2.6193,-15.3922 -0.6051,-40.7317 2.2304,-55.6887 3.1025,-16.3652 8.5057,-31.4272 16.0135,-43.8525 8.4918,-14.0541 19.4511,-25.7005 33.7458,-33.7526 11.5218,-6.4903 25.6794,-11.5007 38.932,-13.0216l-0.0081 -27.2784c-19.0403,0.7141 -43.4854,9.3836 -56.5955,17.4015 -4.3412,2.6551 -12.5862,7.988 -16.2699,11.2432 -4.1303,3.6499 -10.7009,9.5694 -13.8904,13.6303 -5.7849,7.3658 -10.2505,12.003 -15.0039,21.7024 -1.9823,4.045 -4.0486,7.8916 -5.9124,12.4534 -9.9385,24.3248 -13.1889,53.4114 -11.7605,79.9889 0.277,5.1568 1.3009,12.5758 1.1549,17.255l-18.1187 0.0579c0.6963,1.44 22.9316,23.4225 27.1194,27.5368 1.8249,1.7929 7.4535,8.0758 9.237,8.8176 1.0601,-1.53 2.2468,-3.0063 3.4158,-4.6032 1.1335,-1.5482 2.1909,-3.1599 3.2054,-4.4979 5.3542,-7.0614 12.029,-16.5457 16.9857,-22.6579 0.9527,-1.1751 2.5661,-3.1969 3.1767,-4.6647l-17.6572 -0.0695z"/><path fill="black" d="M231.1638 220.0036l0.2484 0.6096 8.2607 14.3368c-48.3501,53.4394 -124.5668,44.4399 -170.7944,-9.6599 -3.6644,1.5714 -8.2096,4.2929 -11.9022,6.3111 -3.4601,1.8911 -8.3568,4.8718 -11.9534,6.3282 66.3937,91.6822 168.8706,66.4766 207.6807,21.5478 2.1362,2.6662 6.5698,12.8479 8.6872,15.5372 1.2024,-2.6837 13.9729,-47.8789 13.9658,-49.316l-43.1139 -6.3526 -1.2545 -0.0553 0.1756 0.7132z"/><path fill="black" d="M299.9414 163.5247l0 -15.3794c-0.9941,-2.3193 -0.7179,-22.5326 -10.2264,-46.5084 -5.4464,-13.7332 -12.8482,-25.7296 -20.8059,-35.3351 -4.766,-5.7528 -7.7997,-9.3885 -13.5412,-14.718 -8.4545,-7.8481 -14.2268,-12.2335 -23.8558,-18.682 -2.8976,-1.9406 -5.6095,-3.5608 -8.6264,-5.3104 -2.9436,-1.707 -5.8131,-3.3798 -8.9289,-5.0069 -2.4897,-1.3001 -6.9937,-3.161 -9.2265,-4.7113l10.1604 -17.8704c-2.1693,-0.2187 -44.5104,12.7902 -50.4586,14.1454 0.4005,2.2002 14.4762,44.7502 15.076,45.4254 1.664,-2.0943 3.0312,-4.9657 4.5827,-7.4318 1.4997,-2.3837 5.0944,-8.7354 6.7274,-11.0788 3.5115,0.3709 17.9412,8.0591 20.6351,9.7588 11.6407,7.3441 15.5722,10.113 25.7942,19.3167 7.0517,6.3493 15.1933,16.5907 20.3579,24.788 7.6159,12.0884 13.5155,27.9444 15.6425,44.9341 1.789,14.2884 0.9327,28.1444 -1.6162,42.2323 -0.718,3.9679 -2.2372,8.9016 -2.6774,12.8566 2.0079,0.8784 3.8757,2.2498 6.0204,3.4543 2.0327,1.1416 3.7875,2.2201 5.7434,3.4178 2.0857,1.2773 3.7844,2.4176 5.8779,3.6723 1.5286,0.916 4.3404,2.4204 5.4993,3.2994 2.3917,-3.7399 6.1352,-26.3956 6.8368,-33.2252 0.2294,-2.2329 0.6117,-10.8279 1.0093,-12.0435z"/><path fill="#656565" d="M231.1638 220.0036c-0.2111,0.7287 -0.4181,0.6096 0.2484,0.6096l-0.2484 -0.6096 -0.1756 -0.7132 1.2545 0.0553c-0.9601,-0.6212 -0.4383,-0.532 -1.8057,-0.2787l0.7269 0.9366z"/><path fill="black" d="M127.9501 160.5867c0,-1.6262 0.5047,-2.782 1.5479,-3.779 0.0266,-0.0254 0.0626,-0.0607 0.0889,-0.0859l0.8479 -0.667c1.7797,-0.9627 3.1784,-0.7359 6.0613,-0.7359l27.1882 0c3.0925,0 8.2062,-0.4801 8.2062,5.4376l0 30.9266c0,2.0413 -0.8341,3.6764 -2.4092,4.599 -1.6254,0.952 -3.8879,0.6687 -6.1368,0.6687l-27.1882 0c-2.8856,0 -5.3699,0.4378 -7.2308,-2.0246 -0.6808,-0.9008 -0.9754,-2.0038 -0.9754,-3.413l0 -30.9266zm73.7314 29.0652c0,3.243 -1.8672,5.6423 -4.5302,5.893 -2.0446,0.1925 -7.1334,0.2294 -9.1204,-0.0159 -2.5453,-0.3143 -4.404,-2.8372 -4.3024,-6.2846 0.043,-1.4579 0.6067,-3.0744 1.442,-3.9259l1.4884 -1.1604c1.5195,-0.8624 7.8548,-0.4811 10.161,-0.4811 2.6931,0 4.8616,2.4352 4.8616,5.9749zm-100.0037 -5.7638c0.9571,-0.4423 5.4114,-0.2112 6.7805,-0.2112 2.5327,0 4.318,-0.3309 5.9081,1.2334 2.7838,2.7384 2.2643,9.264 -1.7891,10.467 -1.4071,0.4176 -5.1344,0.1876 -6.8379,0.1876 -2.6529,0 -4.1131,0.2829 -5.7297,-1.2959 -2.4967,-2.4383 -2.2563,-6.7597 -0.3343,-8.9813l0.8039 -0.724c0.3868,-0.2848 0.6155,-0.406 1.1984,-0.6755zm11.4348 -73.7794l73.5615 -0.0009c0.0016,4.4836 0.1952,24.3646 -0.0395,27.4939l-72.7386 -0.0215c-1.0613,0 -0.7703,0.0795 -0.7833,-2.1426l0.0138 -22.4412 -0.0138 -2.8877zm-16.3958 122.8666l14.6468 0c1.2416,-0.6244 1.8327,-0.4674 2.7511,-1.3086 2.2668,-2.0767 1.64,-6.8139 1.497,-10.2959l68.6337 -0.0002c0,1.7384 -0.2006,6.5642 0.1632,7.887 0.4396,1.5985 1.4523,2.6969 2.7402,3.2693 0.2719,0.121 -0.0444,0.0011 0.3546,0.1333l0.9736 0.3152 14.8167 0c0.9311,-0.5137 1.8362,-0.4129 2.9007,-1.6768 0.8625,-1.0241 1.2603,-1.8805 1.1942,-3.1572 -0.0941,-1.5081 -0.0326,-3.157 -0.0332,-4.682 -0.001,-2.62 -0.4109,-2.21 2.2091,-2.2091 2.918,0.0011 6.2315,-0.1457 9.1,0.0332 0.5125,-0.0407 0.6529,-0.0621 1.0591,-0.3907 0.0389,-0.0313 0.1487,-0.1309 0.1858,-0.1657 0.2209,-0.207 0.2273,-0.1943 0.4158,-0.4572 0.7788,-1.086 0.4365,-9.2037 0.4185,-10.7208 -0.0861,-7.269 0.697,-6.9906 -6.7612,-6.9906 0,-8.0998 -0.0038,-16.1997 0.0001,-24.2995 0.0008,-1.7498 0.0005,-2.8433 -0.5263,-4.5106l-0.3755 -0.9738c-0.0166,-0.0355 -0.0379,-0.0805 -0.0549,-0.1157 -0.0164,-0.034 -0.0397,-0.0763 -0.0565,-0.1099l-0.6928 -1.1732c-0.023,-0.0337 -0.0522,-0.0732 -0.0757,-0.1071l-1.4576 -1.7405c-3.6473,-3.3455 -6.719,-2.2752 -9.439,-2.7208 0.2363,-1.16 0.0539,-77.5426 0.0539,-81.4983 0,-2.2138 0.2904,-6.9355 -0.2668,-8.0755 -0.4848,-0.9913 -4.3341,-3.3071 -5.8229,-4.2837l-2.1704 -1.3036 -1.1961 0c-2.4398,1.7126 -1.8791,1.4971 -1.8791,6.7971 0,4.4545 0.1939,17.6028 -0.0398,20.4699l-2.7122 -6.8962c-0.0153,-0.0297 -0.0398,-0.0729 -0.0554,-0.1025 -0.0463,-0.0873 -0.1607,-0.3033 -0.2904,-0.5423 -0.2067,-0.3802 -0.1021,-0.205 -0.3131,-0.5361 -1.3487,-2.1165 -2.7128,-3.5173 -4.686,-4.9923 -5.3275,-3.982 -11.3084,-3.2577 -17.9046,-3.2525l-28.2078 -0.0188c-4.3893,0.0035 -9.4453,-0.4126 -13.1976,0.8963 -5.2715,1.8387 -8.8214,5.2558 -10.8896,10.3774 -0.6778,1.6785 -1.1555,3.4375 -1.869,5.0669 -0.2323,-2.8501 -0.0398,-16.2015 -0.0398,-20.6399 0,-5.4234 0.5394,-4.9294 -1.8791,-6.6271l-1.1961 0c-1.3556,0.854 -7.3734,4.4169 -7.9771,5.626 -0.5823,1.1658 -0.2829,5.9161 -0.2829,8.0368l0 81.5647c-3.2632,0 -7.1313,0.1453 -9.4001,2.7169 -2.5582,2.8996 -3.2309,4.2401 -3.2245,8.8381 0.0058,4.1873 -0.2182,21.5577 0.05,24.1296 -7.8833,0 -6.7432,-1.0208 -6.7432,12.7445 0,3.9844 -0.7452,6.0884 3.6328,6.0686 2.906,-0.0131 6.8585,-0.2171 9.648,0.0388 -0.0811,1.4912 -0.1734,6.6917 0.1479,7.8991 0.4296,1.615 1.6714,2.8672 3.1396,3.3757 0.296,0.1026 0.0168,0.0075 0.3764,0.1101 0.3761,0.1073 0.2893,0.0246 0.6075,0.1801z"/><path fill="black" d="M133.1075 168.7034c-1.428,0.4818 -2.4525,1.5647 -1.7614,3.3926 0.2948,0.7797 0.9251,1.2644 1.755,1.4564 0.8019,0.1856 20.5577,0.0688 23.1065,0.0688 2.7563,0 9.9101,0.5261 11.3697,-0.4758 1.4822,-1.0173 1.3978,-3.4144 -0.2773,-4.2653 -1.1469,-0.5824 -11.3229,-0.3069 -13.1314,-0.3069 -2.795,0 -19.8399,-0.2817 -21.061,0.1302z"/><path fill="black" d="M132.7678 158.8476c-2.4335,0.9678 -2.325,4.776 1.3385,4.8028 5.0985,0.0373 31.8994,0.1919 32.9462,-0.2108 1.3779,-0.5302 1.9302,-2.2193 1.3441,-3.4061 -0.7184,-1.4547 -1.8622,-1.3848 -4.0327,-1.3823 -4.8079,0.0052 -30.531,-0.2272 -31.5961,0.1965z"/><path fill="black" d="M132.8614 188.7282c-1.3222,0.4606 -2.211,1.9097 -1.4319,3.5074 0.7801,1.5999 2.27,1.3306 3.8851,1.3173 3.6884,-0.0303 30.6714,0.2164 31.7007,-0.0815 0.674,-0.1951 0.9883,-0.6377 1.3157,-1.2203 0.3773,-0.6709 0.4104,-1.4925 0.1021,-2.1786 -0.6526,-1.4522 -1.7369,-1.4935 -3.9002,-1.4884 -4.8534,0.0117 -30.6277,-0.2198 -31.6715,0.144z"/><path fill="black" d="M137.5157 183.593l27.698 0c1.3621,0.0021 3.0824,-0.0022 3.3849,-2.1363 0.2195,-1.5478 -0.8283,-2.8578 -2.5353,-2.8578l-32.6258 0c-1.801,0 -3.0365,2.4887 -1.7495,4.0615 1.0654,1.3017 3.2568,0.9326 5.8277,0.9326z"/><path fill="#4B4B4B" d="M207.3887 228.1414l0.1367 -6.721 9.8559 0.0012c0.7086,0.008 0.7757,0.0829 1.2833,-0.1381 -2.8685,-0.1789 -6.182,-0.0321 -9.1,-0.0332 -2.62,-0.0009 -2.2101,-0.4109 -2.2091,2.2091 0.0006,1.525 -0.0609,3.1739 0.0332,4.682z"/></g></svg>