<svg xmlns="http://www.w3.org/2000/svg" viewBox="0 0 299.9414 299.9414"><g><g><path fill="black" d="M200.1956 125.1279c8.0812,0.14 16.2522,0.0459 24.3602,0.0364 10.8051,-0.0125 12.4078,0.4382 17.4255,7.2462 2.2635,3.0708 18.9673,25.4965 20.2446,28.5463l-62.0638 0 0.0335 -35.8289zm-27.348 11.9217l-0.0277 67.9867 -146.981 0.0146c0,-10.3342 1.3034,-41.629 -0.4935,-49.5806 -3.301,-14.6081 -25.3476,-13.2186 -25.3453,3.9924l0.0096 103.101c0.0124,12.1141 13.2168,5.6121 26.9713,7.8428l0.2956 -4.9937c0.6755,-7.5673 1.2908,-6.5103 3.3331,-12.1949 1.9443,-5.4123 6.9041,-11.7984 11.1028,-14.9933l9.5908 -6.0948c3.872,-2.3348 6.1899,-2.615 10.5266,-3.3118l6.2006 -0.6432c6.3069,-0.0278 12.1568,1.4233 17.1327,3.5928l4.8107 2.7451c11.3028,7.2467 19.3216,19.5716 19.3629,35.5075l77.5309 0.0142c-0.3775,-3.8078 0.5553,-7.7712 1.2503,-10.681l0.5986 -2.4624c2.0767,-7.5206 9.7746,-17.9715 16.7173,-21.8197 0.1541,-0.0854 0.3486,-0.1769 0.5036,-0.2636l1.4805 -0.8596c5.542,-3.4892 7.9491,-4.2358 14.5884,-5.2007l5.6276 -0.5605c8.161,-0.1189 16.001,2.5044 22.7876,6.8792 9.9394,6.4068 19.8026,20.946 18.4668,34.9543 7.2684,0.0515 26.9872,1.6935 30.0371,-2.4057 1.3844,-1.8609 0.8456,-1.7352 0.9694,-2.768l0.0465 -22.4733c-0.2774,-4.5573 -3.3322,-5.941 -8.169,-5.9436l-0.1099 -76.755c-1.1294,-6.7648 -18.3245,-28.2345 -24.7889,-36.7675l-11.1822 -14.8431c-2.1804,-2.7475 -6.2427,-6.1139 -11.9321,-6.1139l-58.3546 0c-16.6967,0 -12.5572,20.065 -12.5572,35.0997z"/><path fill="black" d="M82.6296 101.8524c-10.6118,2.2383 -32.7753,-1.9473 -40.6264,1.5817 -1.8177,3.9429 -0.7647,5.4326 2.1686,8.3861l35.4818 35.1758c1.4569,1.4225 2.1632,1.9553 3.5612,3.402l6.9794 7.1346c1.7375,1.7527 2.504,2.1858 3.5154,3.5307 4.5991,-2.8712 34.2579,-32.8505 42.3807,-41.0166l7.076 -7.0321c13.5843,-14.0921 -7.1449,-10.7211 -22.764,-10.7211 -17.4219,0 -14.0366,3.445 -14.24,-13.0545 -0.1165,-9.4441 -0.2109,-48.6022 -0.0685,-58.0586 0.1279,-8.4986 1.4087,-21.3144 -2.1295,-26.5149 -4.1563,-6.1085 -13.6676,-6.2854 -18.782,-0.137 -3.8456,4.6233 -3.1425,17.0963 -2.7313,24.0799 0.4211,7.1513 -0.8138,68.3234 0.1785,73.2439z"/><path fill="black" d="M237.2915 272.276c-1.3805,5.0391 -5.1113,8.5946 -11.5259,7.2844 -2.9291,-0.5985 -5.6285,-2.8799 -6.7045,-5.3066 -0.0828,-0.1864 -0.1533,-0.3805 -0.2258,-0.5747l-0.371 -1.1954c-0.0521,-0.2075 -0.099,-0.4019 -0.1395,-0.6118 -0.4841,-2.5172 -0.4237,-1.8854 0.1447,-4.2769 3.0759,-12.9387 22.1304,-7.3947 18.8219,4.6809zm-38.9836 -1.494c0,16.2425 14.7493,30.1973 30.6766,29.0986 4.6084,-0.3179 8.081,-1.3867 11.6049,-3.1179 6.9048,-3.3916 12.2943,-8.056 14.831,-15.6548 0.0655,-0.1962 0.1191,-0.3918 0.1807,-0.5905 0.0614,-0.1984 0.1154,-0.3917 0.1736,-0.5915l1.0463 -4.171c0.3021,-1.7383 0.4946,-4.5837 0.4988,-5.9691 0.0008,-0.3321 -0.0823,-2.9247 -0.1983,-4.0533 -0.6249,-6.0772 -4.264,-13.2194 -8.6263,-17.2826 -19.8193,-18.4603 -50.1873,-4.2436 -50.1873,22.3321z"/><path fill="black" d="M64.7575 260.7517c5.3136,-2.3905 11.1952,1.3607 12.6454,5.9506 4.2713,13.5161 -14.5427,18.1145 -18.5195,6.5274 -2.2509,-6.5582 3.5704,-11.4416 5.8741,-12.4781zm31.9531 1.884c-0.3028,-1.1324 -0.4936,-1.7116 -0.8547,-2.834l-5.2717 -9.3032c-4.3457,-5.0018 -9.5978,-8.3994 -16.5476,-9.7139 -28.3438,-5.3619 -44.8522,27.2987 -29.4735,47.1356 14.9619,19.2994 45.915,15.0628 52.4399,-11.9086l-0.2924 -13.3759z"/><path fill="white" d="M200.1621 160.9568l62.0638 0c-1.2773,-3.0498 -17.9811,-25.4755 -20.2446,-28.5463 -5.0177,-6.808 -6.6204,-7.2587 -17.4255,-7.2462 -8.108,0.0095 -16.279,0.1036 -24.3602,-0.0364l-0.0335 35.8289z"/><path fill="white" d="M64.7575 260.7517c-2.3037,1.0365 -8.1249,5.9198 -5.8741,12.4781 3.9768,11.587 22.7908,6.9886 18.5195,-6.5274 -1.4502,-4.5899 -7.3319,-8.3412 -12.6454,-5.9506z"/><path fill="white" d="M237.2915 272.276c3.3085,-12.0755 -15.746,-17.6196 -18.8219,-4.6809 -0.5684,2.3914 -0.6288,1.7597 -0.1447,4.2769 0.0405,0.2099 0.0874,0.4043 0.1395,0.6118l0.371 1.195"/></g></svg>