
<svg xmlns="http://www.w3.org/2000/svg" viewBox="0 0 299.9414 299.9414"><g><g><path fill="black" d="M46.6169 132.4797c0,4.0006 -2.1864,7.0123 -5.6525,8.17 -9.2324,3.0838 -15.2937,-7.0375 -11.9482,-12.6109l3.1652 -3.5921c0.6295,-0.578 0.999,-0.89 2.048,-1.2256 5.2275,-1.6719 12.3875,0.5323 12.3875,9.2586zm61.7089 5.734l0 84.1014 191.6156 0 0 -99.2649c0,-7.0674 -6.2394,-12.6336 -13.944,-12.6336l-163.2781 0c-0.8314,0 -1.6633,0.0552 -2.4829,0.168 -4.1031,-3.973 -9.6315,-10.0962 -12.1646,-12.5451l-5.2685 -5.2782c0.8572,-0.3629 1.2715,-1.0378 1.9665,-1.741 3.4858,-3.5262 6.8237,-7.1937 10.586,-10.4949 0.4042,-0.3546 0.4898,-0.3789 0.9061,-0.8118 4.5501,-4.7327 7.3601,-4.5439 14.1306,-4.5676 8.9349,-0.0313 15.7151,0.1337 21.7203,-6.0448l10.5803 -14.557c2.4674,-4.38 7.5474,-11.0267 5.6242,-15.7163 -4.0527,-1.2092 -12.1845,5.3816 -16.0991,7.8711 -1.7257,1.0975 -3.3648,2.0053 -5.1576,2.9267 -4.5759,2.3517 -7.7905,3.1708 -11.8583,-0.0357 -2.688,-2.1189 -5.1657,-5.543 -6.8845,-9.1422 -2.3375,-4.8946 -7.1466,-13.4951 -3.2641,-18.2312 0.3306,-0.4036 0.1481,-0.1874 0.475,-0.5686l1.153 -1.1747c0.052,-0.0456 0.1289,-0.1075 0.1817,-0.1531 0.0536,-0.0466 0.1308,-0.1083 0.1848,-0.1552l3.3361 -2.6836c0.5602,-0.4518 0.5882,-0.512 1.1232,-0.8953l7.6013 -4.509c3.2607,-1.9849 6.3295,-3.9995 9.3335,-6.5178 0.2291,-3.6686 -1.6289,-3.8762 -4.8777,-4.3144 -7.747,-1.0446 -17.355,-1.9528 -24.6376,0.3542 -4.7263,1.4972 -8.6617,4.0386 -11.6578,6.4345 -15.2687,12.2098 -5.134,28.3254 -12.1648,41.5026l-1.8436 2.7758c-4.7833,5.9757 -9.9853,10.5808 -15.0579,15.686 -3.0138,-2.34 -13.598,-13.4368 -16.9295,-16.9015 -1.1176,-1.1623 -4.2211,-4.8021 -5.3692,-5.4587 0.051,-0.0897 0.1178,-0.2003 0.1599,-0.2649 1.5419,-2.3647 6.6828,-6.5627 8.9402,-8.662 6.0674,-5.6424 15.1606,-12.0984 6.6866,-20.8685l-2.1373 -2.2606c-17.6065,-18.916 -17.9091,-14.9736 -27.9816,-6.7626 -6.1644,5.0251 -12.9094,11.8462 -18.5084,16.2661 -2.7875,2.2005 -7.2356,6.5539 -9.2598,8.5332 -0.7948,0.7774 -1.5314,1.2414 -2.3762,1.9851l-6.6239 6.4206c-5.0679,4.9025 -4.4666,3.2615 -4.7159,12.6558 -0.1534,5.7774 -0.0493,11.6452 -0.0558,17.4356 -0.0057,5.3284 -0.6076,11.7368 3.6677,13.7879 4.2652,2.0462 7.6051,0.1205 10.9882,-2.416l11.7475 -10.0421c0.0492,-0.0448 0.1226,-0.1105 0.1724,-0.155l7.8534 -6.9185c1.743,1.054 20.4548,19.4767 23.5782,23.1788 -0.3297,0.7041 -0.8636,1.1714 -1.4605,1.732 -0.3341,0.3135 -0.5714,0.5015 -0.8963,0.7833 -0.6775,0.5879 -0.2794,0.1956 -0.8607,0.8136 -7.0925,7.5441 -14.2479,14.0256 -22.4223,22.0981 -8.5177,8.4119 -15.1109,12.7792 -12.8987,24.4094 0.7692,4.0432 2.4317,5.858 4.6447,8.2215 4.7508,5.0743 13.9631,6.3079 19.3414,3.5991l1.9753 -1.3613c0.592,-0.5008 0.8915,-0.7384 1.6583,-1.313l26.961 -25.5985c0.4204,-0.3756 0.4485,-0.4077 0.877,-0.806l6.4355 -6.2812c0.7861,-0.766 0.6767,-0.9088 1.8667,-1.4083 0.2587,0.8455 18.3528,18.9386 25.0649,25.7742z"/><path fill="black" d="M27.3615 204.7181c1.2802,-1.9178 2.8062,-3.6753 4.3083,-5.6049 1.6446,-2.113 2.8859,-3.7325 4.4909,-5.8727l8.8829 -11.3937c3.1403,-3.8679 5.951,-7.303 9.046,-11.2299 2.1393,-2.7141 7.7676,-10.1168 10.6055,-10.1168l21.1407 0c3.4775,0 5.3976,1.926 5.3976,5.4144l0 38.8035c0,3.1588 -2.5948,4.9632 -5.8476,4.9632l-51.2774 0c-6.7253,0 -6.0039,-3.2951 -6.747,-4.9632zm-23.3897 41.9619c-4.3839,2.3269 -3.1486,5.3992 -3.1486,14.4386 0,4.9948 2.1444,2.3912 3.5057,6.861 0.4563,1.4983 0.8035,2.1288 2.0013,2.9558 2.629,1.8151 18.4359,1.0121 23.2804,1.0121 1.6386,0 1.2958,-1.1109 1.3912,-2.6652 0.1096,-1.7835 0.1499,-1.7988 0.5792,-3.4799 0.6429,-2.5176 1.0959,-4.0772 2.0703,-6.045 8.1426,-16.4448 25.0672,-23.8797 43.1315,-17.081 3.1805,1.197 7.6809,4.2893 10.0745,6.5885 4.7494,4.5621 10.2235,13.5743 10.2235,22.6826l101.2055 0c0,-3.7749 1.6797,-9.6233 2.9908,-12.3408 0.9646,-1.9996 1.5965,-3.1663 2.7588,-4.903 0.745,-1.1131 0.9423,-1.2978 1.7543,-2.3011 2.9113,-3.5974 6.4242,-6.6206 10.6331,-8.7355 11.89,-5.9747 26.3688,-4.1301 36.8791,4.677 6.5685,5.5039 11.3525,14.5056 11.5544,23.6034l26.9881 0c3.7292,0 8.0965,-1.8561 8.0965,-5.4144l0 -40.6084 -197.9128 0 -0.8719 -72.6715c-0.5588,-1.0846 -2.4608,-2.2284 -4.0759,-2.2284l-37.7833 0c-1.7764,0 -7.7715,7.6009 -9.3308,9.1395 -1.0637,1.0497 -1.1656,1.184 -2.1042,2.4014l-32.5453 38.6434c-1.5649,1.7951 -2.7696,3.3443 -4.2384,5.2237 -1.5027,1.9226 -0.2396,1.2937 -2.5492,1.955 -6.2766,1.7969 -4.5579,6.2552 -4.5579,19.3416 0,6.317 0,12.6338 0,18.9506z"/><path fill="black" d="M45.8034 274.6546c0,-16.5707 17.432,-23.6183 29.1151,-13.865 10.7901,9.0077 5.2928,30.5596 -11.5728,30.5596 -9.343,0 -17.5423,-7.6466 -17.5423,-16.6946zm-8.5463 -3.1584c0,8.8113 1.4555,14.925 7.7463,21.1066 13.2725,13.0419 35.4886,7.7804 42.128,-8.5267 9.4009,-23.0898 -14.1578,-43.2641 -33.8384,-34.3952 -4.4324,1.9974 -3.9154,1.8767 -7.7555,4.8541 -1.3594,1.0539 -1.9299,2.0328 -2.9905,3.3171 -2.5727,3.1153 -5.2899,9.2638 -5.2899,13.6442z"/><path fill="black" d="M231.5714 291.3493c-17.7923,0 -25.0016,-24.5995 -7.2129,-33.4053 13.2863,-6.5768 29.7252,7.397 23.1621,22.7831 -2.3881,5.5985 -8.2388,10.6222 -15.9492,10.6222zm-26.0885 -17.5971c0,8.0293 3.3688,14.2519 7.6249,18.5213 16.591,16.6425 44.5521,4.1675 44.5521,-18.07 0,-23.4696 -27.8435,-35.4678 -44.4197,-18.8397 -4.2435,4.2567 -7.7573,10.0812 -7.7573,18.3884z"/></g></g></svg>