<svg xmlns="http://www.w3.org/2000/svg" viewBox="0 0 3.3576 3.3576"><g><path fill="black" d="M2.0645 0.9561c0,0.1136 -0.0111,0.2536 -0.0529,0.3409l1.0814 0 0 1.7121c0,0.0545 -0.055,0.0985 -0.1134,0.0985l-2.3518 0c-0.0402,0 -0.0764,-0.0308 -0.0914,-0.06 -0.028,-0.0547 -0.0145,-0.379 -0.0145,-0.4551 0,-0.2071 0,-0.4141 0,-0.6212 -0.098,-0.052 -0.1429,-0.0741 -0.2277,-0.1431 -0.0202,-0.0165 -0.0102,-0.0165 -0.0369,-0.0236 0,0.3182 0,0.6364 0,0.9545 0,0.1894 -0.0151,0.2921 0.058,0.4192 0.0538,0.0937 0.184,0.1793 0.2975,0.1793l2.3821 0c0.1941,0 0.363,-0.1842 0.363,-0.3561l0 -2.1136c0,-0.0959 -0.0592,-0.2193 -0.1241,-0.2696 -0.1343,-0.1042 -0.1687,-0.1016 -0.3414,-0.1016 -0.0783,0 0.0648,0.3705 -0.1555,0.4688 -0.1361,0.1016 -0.3634,0.0506 -0.4348,-0.1075 -0.0264,-0.0584 -0.0181,-0.1989 -0.0174,-0.278 0.001,-0.1104 0.0134,-0.0893 -0.3183,-0.0833 0.0011,0.049 0.0983,0.222 0.0983,0.4394z"/><path fill="black" d="M0.5027 0.1156l0 0.0151c0.0799,0 0.1529,0.0803 0.1588,0.1515 0.0275,-0.0064 0.037,-0.0165 0.0636,-0.0272 0.3197,-0.1294 0.6849,0.0118 0.8721,0.2904 0.2393,0.3559 0.1419,0.8172 -0.1831,1.047 -0.2989,0.2113 -0.7046,0.1884 -0.97,-0.0661 -0.1252,-0.1201 -0.2324,-0.3257 -0.2324,-0.5021 0,-0.0939 0.039,-0.3137 0.1134,-0.3636 0.0225,0.006 0.0373,0.0235 0.0658,0.0477 0.0873,0.0743 0.0988,0.0824 0.1203,-0.0659 0.0147,-0.1015 0.0293,-0.2321 0.0293,-0.3376 0,-0.0742 -0.104,-0.0458 -0.2305,-0.0458 -0.1006,0 -0.1428,0.0065 -0.2369,0.0203 -0.0583,0.0085 -0.058,0.008 -0.058,0.0555 0,0.0272 0.0924,0.0784 0.121,0.1212 -0.0161,0.0692 -0.1361,0.2346 -0.1361,0.5227 0,0.8976 1.17,1.3506 1.7523,0.5661 0.0891,-0.12 0.1492,-0.2652 0.175,-0.4156 0.0706,-0.4109 -0.1421,-0.8048 -0.4909,-1.0063 -0.213,-0.123 -0.509,-0.1614 -0.7495,-0.0805 -0.0372,0.0125 -0.0623,0.0209 -0.0938,0.0348 -0.024,0.0106 -0.0676,0.0328 -0.0905,0.0381z"/><path fill="black" d="M0.9679 1.4713c0.0244,0 0.0395,-0.0101 0.0516,-0.0241 0.0379,-0.044 0.0196,-0.3139 0.0456,-0.371 0.0285,-0.0284 0.035,-0.0368 0.0378,-0.1164l0.2982 -0.2868c0.0844,-0.0767 0.0039,-0.1122 -0.0093,-0.1136 -0.0328,-0.0034 -0.1011,0.0511 -0.1274,0.0723 -0.0199,0.016 -0.034,0.0278 -0.0538,0.0441l-0.1748 0.1329c-0.0356,0.0229 -0.0267,0.0299 -0.0754,0.026 -0.0626,-0.0049 -0.1046,0.0125 -0.1385,0.081 -0.0197,0.0544 -0.0081,0.1145 0.0239,0.1551 0.0329,0.0417 0.0255,0.005 0.0331,0.0729 0.0063,0.0565 0.0077,0.1259 0.0167,0.1878 0.0106,0.073 -0.0107,0.1396 0.0724,0.1396z"/><path fill="black" d="M2.4501 0.2815l0 0.4506c0,0.0481 0.011,0.096 0.0286,0.124 0.0589,0.0937 0.236,0.0739 0.236,-0.1053l0 -0.4882c0,-0.2035 -0.2647,-0.2298 -0.2647,0.0188z"/><polygon fill="black" points="2.4501,1.7999 2.7148,1.7999 2.7148,1.5546 2.4501,1.5546 "/><path fill="black" d="M1.9359 1.7999l0.242 0c0.0174,0 0.0227,-0.0049 0.0227,-0.021l0 -0.2242 -0.2647 0 0 0.2453z"/><path fill="black" d="M1.9359 2.3322l0.2647 0 0 -0.2242c0,-0.0162 -0.0053,-0.021 -0.0227,-0.021l-0.242 0 0 0.2452z"/><path fill="black" d="M1.9359 2.8715l0.242 0c0.0174,0 0.0227,-0.0049 0.0227,-0.021l0 -0.2242 -0.2647 0 0 0.2452z"/><path fill="black" d="M0.8999 2.8505c0,0.0162 0.0053,0.021 0.0227,0.021l0.242 0 0 -0.2452 -0.2647 0 0 0.2242z"/><path fill="black" d="M0.8999 2.1079l0 0.2242 0.2647 0 0 -0.2452 -0.242 0c-0.0174,0 -0.0227,0.0049 -0.0227,0.021z"/><path fill="black" d="M2.4501 2.8505c0,0.0162 0.0053,0.021 0.0227,0.021l0.2193 0c0.0174,0 0.0227,-0.0049 0.0227,-0.021l0 -0.2242 -0.2647 0 0 0.2242z"/><path fill="black" d="M2.4501 2.1079l0 0.2242 0.2647 0 0 -0.2242c0,-0.0162 -0.0053,-0.021 -0.0227,-0.021l-0.2193 0c-0.0174,0 -0.0227,0.0049 -0.0227,0.021z"/><polygon fill="black" points="1.4217,2.3322 1.6788,2.3322 1.6788,2.0869 1.4217,2.0869 "/><polygon fill="black" points="1.4217,2.8715 1.6788,2.8715 1.6788,2.6262 1.4217,2.6262 "/></g></svg>