<svg xmlns="http://www.w3.org/2000/svg" viewBox="0 0 11.6869 11.6869"><g><path fill="black" d="M3.6522 7.1009l0.9161 -1.0274c0.0348,-0.0373 0.0459,-0.0621 0.0795,-0.0986 0.0593,-0.0644 0.1116,-0.1194 0.1716,-0.1836 0.0349,-0.0373 0.0459,-0.0621 0.0795,-0.0986l1.2609 -1.4052c0.033,-0.0424 0.0435,-0.0582 0.0804,-0.0976 0.0309,-0.033 0.0597,-0.0581 0.0827,-0.0951l-0.5782 1.4396c-0.0367,0.0821 -0.0623,0.1551 -0.0989,0.2372 -0.037,0.0827 -0.0609,0.16 -0.0989,0.2372 0.6152,0 1.2082,-0.0368 1.8261,-0.0368 -0.0236,0.0378 -0.0487,0.0537 -0.0765,0.0895 -0.1144,0.1469 -0.3185,0.3517 -0.417,0.4719l-0.3311 0.3803c-0.0312,0.0336 -0.0549,0.0582 -0.0859,0.0917 -0.0336,0.0365 -0.0446,0.0613 -0.0795,0.0986 -0.1181,0.1263 -0.2188,0.2474 -0.337,0.3738l-0.4165 0.4725c-0.0354,0.0376 -0.0469,0.0621 -0.0795,0.0985 -0.0555,0.062 -0.121,0.1202 -0.1709,0.1844l-0.6653 0.7571 0.1679 -0.4207c0.0282,-0.0702 0.0549,-0.1368 0.0834,-0.2048l0.515 -1.2644c0.0355,-0.0835 0.0343,-0.0484 -0.1728,-0.0486 -0.1949,-0.0003 -0.3579,0.0129 -0.5595,0.012l-0.3996 0.0122c-0.066,0.0001 -0.0778,0.0112 -0.1362,0.0131 -0.0941,0.003 -0.192,-0.0038 -0.2861,-0.0008l-0.2736 0.0127zm-0.5478 -6.5488c0,0.3223 0.2366,0.5889 0.5364,0.5889l0.4337 0 0 0.454c-0.3856,0 -0.7403,-0.0644 -0.9409,0.2522 -0.049,0.0773 -0.1686,0.4785 -0.1776,0.5943 -0.1788,0 -0.3576,0 -0.5364,0 -0.2224,0 -0.3072,-0.0032 -0.473,0.0681 -0.1164,0.05 -0.2329,0.154 -0.3015,0.2525 -0.0396,0.0568 -0.068,0.1072 -0.0963,0.1787 -0.0208,0.0524 -0.0536,0.1696 -0.0536,0.2369l0 2.6962 -0.4908 0 0 -2.0122c0,-0.2859 -0.16,-0.328 -0.3431,-0.2093l-0.2526 0.1701c-0.1341,0.093 -0.2232,0.1432 -0.3136,0.3254 -0.0432,0.0871 -0.095,0.2126 -0.095,0.3395l0 0.9693c0,0.1959 0.1137,0.4505 0.2108,0.5464 0.1465,0.1448 0.222,0.241 0.2701,0.4826 0.0354,0.1781 0.0091,0.6208 -0.059,0.7495 -0.0161,0.0305 -0.0195,0.0212 -0.0372,0.0582 -0.0545,0.1143 -0.0765,0.3676 -0.0765,0.5067l0 1.0551c0,0.5601 0.6962,1.0976 0.6962,0.4908l0 -2.1226 0.4908 0 0 1.0797c0,0.1893 0.0934,0.3809 0.2122,0.5081 0.0073,0.0078 0.0152,0.0148 0.0239,0.0234 0.4695,0.4616 0.8552,0.3807 1.6906,0.9682 0.2077,0.146 0.3081,0.4494 0.4601,0.6545 0.1505,0.2032 0.2512,0.782 0.4642,0.9252l0.237 0.1379c0.1708,0.0758 0.3752,0.1665 0.5756,0.1665l3.344 0c0.3232,0 0.6356,-0.3068 0.6919,-0.6794 0.0409,-0.2712 -0.0404,-1.9163 0.0385,-2.0663 0.1166,-0.2217 0.4196,-0.1517 0.4542,0.0764 0.0432,0.2845 -0.0689,0.6426 0.0773,0.8739 0.0513,0.0811 0.1688,0.1664 0.2903,0.1664l0.5022 0c0.1757,0 0.3923,-0.1541 0.4762,-0.2611 0.0655,-0.0836 0.1953,-0.369 0.2635,-0.4897 0.1886,-0.3338 0.3902,-0.7395 0.3902,-1.1387l0 -2.2208c0,-0.5681 -0.2995,-0.9453 -0.5212,-1.4151 -0.0869,-0.1841 -0.1659,-0.3122 -0.346,-0.4133 -0.2152,-0.1207 -0.4565,-0.0856 -0.7307,-0.0856 -0.1189,0 -0.2421,0.053 -0.3086,0.1467 -0.1455,0.2051 -0.076,0.5106 -0.0905,0.8597 -0.0032,0.0771 -0.0311,0.1283 -0.0711,0.1688 -0.1179,0.1192 -0.2822,0.0924 -0.3718,-0.037 -0.0489,-0.0706 -0.0483,-1.7622 -0.0482,-1.8837 0.0002,-0.2175 -0.031,-0.3553 -0.1499,-0.526 -0.0898,-0.1291 -0.221,-0.2284 -0.3763,-0.2825 -0.1617,-0.0564 -0.4049,-0.0381 -0.6151,-0.0381 -0.0224,-0.1037 -0.0535,-0.2053 -0.0799,-0.3067 -0.0289,-0.111 -0.045,-0.1967 -0.1002,-0.2849 -0.1994,-0.3187 -0.5493,-0.2549 -0.9384,-0.2549l0 -0.454c0.3058,0 0.599,0.0503 0.7905,-0.1562 0.1409,-0.1519 0.1681,-0.2468 0.1681,-0.4572 0,-0.197 -0.1342,-0.3914 -0.3003,-0.4746 -0.0614,-0.0308 -0.1165,-0.0529 -0.2018,-0.0529l-3.8006 0c-0.2531,0 -0.4907,0.2885 -0.4907,0.5521z"/></g></svg>