<svg xmlns="http://www.w3.org/2000/svg" viewBox="0 0 300 300"><g><g><path fill="black" d="M-0.0293 144.8875l0 12.469c0.4237,1.067 0.8689,9.8859 1.1192,11.9375 1.3634,11.1847 4.0203,22.0564 7.7832,32.516 1.1951,3.3225 2.4672,6.4585 3.8172,9.6007 0.7078,1.6478 1.3316,2.8106 2.0835,4.4852 2.6416,5.8848 6.2906,11.7615 9.8186,17.0665l2.4056 3.4779c0.8473,0.9713 -0.0606,0.1236 0.3642,0.3626 0.0635,-0.0216 0.1631,-0.1256 0.1887,-0.0701 0.04,0.0907 0.2257,-0.0772 0.3929,-0.1638 0.279,-0.1451 0.3518,-0.1802 0.6145,-0.3634 0.5509,-0.3822 0.6504,-0.6036 1.2392,-1.0743l15.3243 -10.7685c0.5294,-0.3533 0.7335,-0.4254 1.3921,-0.9836l0.9879 -1.1525c-0.6093,-0.7353 -1.6239,-2.3924 -2.1009,-3.274 1.4721,-1.2338 11.1972,-6.7644 13.3135,-7.8025l6.6383 -3.7952c0.4874,-0.2998 0.2053,-0.0639 0.5961,-0.3965 0.5304,-0.4522 0.3642,-0.3306 0.6801,-0.7735 -1.1766,-2.9702 -3.5905,-6.5718 -5.3406,-9.507l-0.992 -1.2183 -10.6679 6.1659c-3.6418,1.9094 -7.2374,4.3091 -10.8536,6.0919 -1.2699,-1.3863 -1.8455,-3.2761 -2.6826,-5.0445 -1.7768,-3.756 -3.0807,-7.614 -4.3948,-11.5246l-4.126 -15.8418c-0.278,-1.2699 -0.4996,-2.3441 -0.7058,-3.6747 -0.6339,-4.097 -1.8824,-10.9478 -1.2905,-14.71l24.5016 0.0041 -0.1056 -12.4669 -24.5652 -0.1216c0.083,-7.0115 1.4413,-14.2568 2.66,-20.9399l5.5857 -18.6082c1.7943,-4.8014 3.4316,-7.2865 4.797,-11.3103 1.0854,0.3223 0.7643,0.2656 1.548,0.6951l4.0891 2.342c3.2038,1.8518 12.6837,7.6275 15.5438,8.9252 0.5139,0.2327 0.5673,0.2327 1.0977,0.4109l1.1849 -2.134c0.0348,-0.0628 0.0799,-0.1462 0.1138,-0.208l1.6424 -2.9095c0.357,-0.6231 0.3796,-0.655 0.7315,-1.2719l2.5359 -4.1814 -21.3215 -12.7089c-0.5796,-0.5202 -0.2072,-0.0093 -0.6432,-0.8096 1.5367,-1.243 2.0456,-2.4851 3.0499,-3.9784 0.038,-0.0567 0.0923,-0.137 0.1292,-0.1937l6.148 -7.8766c0.2288,-0.2194 0.476,-0.4408 0.6648,-0.6427l0.9264 -1.0886c0.044,-0.0494 0.1076,-0.1215 0.1507,-0.171 3.0468,-3.413 6.2373,-6.6253 9.6862,-9.5894l3.8336 -3.3317c0.0533,-0.0432 0.1313,-0.1009 0.1867,-0.1452 0.0759,-0.0597 0.3067,-0.2348 0.3817,-0.2956l1.2279 -1.035c0.2349,-0.1854 0.2923,-0.2153 0.5714,-0.4294l0.5489 -0.4275c0.0523,-0.0422 0.1261,-0.103 0.1785,-0.1462 0.0523,-0.0433 0.1241,-0.1061 0.1764,-0.1493l1.0884 -0.8899c0.2175,-0.1565 0.2431,-0.1555 0.5827,-0.3852l2.6837 -1.8888c0.0523,-0.0402 0.1272,-0.0999 0.1795,-0.1401 0.0523,-0.0412 0.1272,-0.1009 0.1805,-0.1421l1.7039 -1.2565c1.0854,-0.758 1.7266,-1.344 2.9853,-1.8085 1.6988,4.5007 11.2506,18.4331 12.1319,21.4672l0.8626 -0.2884c0.0739,-0.0309 0.554,-0.2656 0.6904,-0.3408 2.9863,-1.6561 6.3132,-3.9703 9.4811,-5.4534 -0.1519,-0.4284 -0.0975,-0.2976 -0.3129,-0.7539l-1.4085 -2.5397c-0.036,-0.0628 -0.0831,-0.1452 -0.1201,-0.208l-1.2515 -2.0629c-1.1643,-2.1515 -1.708,-2.9991 -3.1689,-5.4461l-4.6368 -8.0188c-0.5099,-0.9207 -0.7664,-1.5407 -1.4926,-2.7323l9.3886 -4.269c4.3793,-2.1216 9.1711,-3.2916 13.8101,-4.8301 4.3815,-1.4543 8.6787,-2.2916 12.9258,-3.0136 1.227,-0.209 2.1882,-0.3018 3.4263,-0.4757 3.6901,-0.5171 7.3718,-1.1474 11.1101,-1.0712 0.3396,4.3771 -0.5653,22.39 0.2955,24.6847l12.3328 0 -0.0616 -24.6507c11.4241,-0.1009 29.0606,3.9672 39.548,8.5935l4.8614 2.0763c0.6976,0.2986 0.3314,0.1349 0.9326,0.4047l0.9017 0.4191c0.0688,0.032 0.1549,0.0721 0.2226,0.1031 0.0657,0.0309 0.1529,0.071 0.2185,0.1019 0.4135,0.1936 0.6227,0.2936 1.2137,0.6025l2.7953 1.3245c-0.8073,1.8239 -1.947,3.4913 -3.0118,5.3771l-6.1931 10.8427c-1.2003,2.0526 -2.1328,3.2164 -3.1864,5.5419l11.1122 6.2289c0.1456,-0.5397 0.1897,-0.8405 0.5026,-1.377 0.3386,-0.5829 0.3088,-0.4315 0.395,-0.552l1.1551 -1.8239c0.1733,-0.3018 0.2134,-0.3719 0.3611,-0.6232l9.64 -17.2374c2.1378,0.79 4.1055,2.4883 5.7919,3.7612 1.3276,1.0021 1.4753,0.9712 2.6448,1.8548l10.0082 8.2527c4.0307,3.8239 7.4375,7.5006 11.067,11.8757l5.913 7.7891c0.6299,0.9527 1.39,2.0825 1.8076,3.0197 -1.469,0.6292 -18.7609,11.8355 -19.8945,12.6873 0.8166,2.1206 4.6595,8.3958 6.0475,10.4175 2.2128,-0.2977 17.7934,-11.1889 20.075,-12.157 0.1733,0.1792 0.2226,0.2039 0.4759,0.5778l0.9942 2.031c2.9339,6.9013 5.594,13.1301 7.5893,20.5979 2.144,8.027 4.2572,18.9028 4.2777,28.0462l-24.5282 -0.0289 -0.0103 12.5793 24.4073 0c1.0053,4.859 -2.6919,22.6865 -4.0173,27.7753 -1.1131,4.2699 -6.8056,21.0048 -9.1886,23.0203 -3.171,-2.1299 -7.3975,-4.0135 -10.7798,-6.0682l-10.5725 -6.1042 -3.3791 5.1794c-0.9767,1.7241 -2.0497,3.3852 -3.1227,5.4605 1.6269,1.8466 4.92,3.2236 6.7655,4.2308 0.0821,0.0443 0.316,0.1669 0.4001,0.2101l11.6261 6.7881c0.2277,0.135 0.3754,0.2348 0.5683,0.3512l1.8352 1.1875c-0.3477,0.7364 -1.1859,2.2925 -1.6968,2.9465 1.9666,2.0228 11.4086,9.1826 14.5365,11.4803 1.5942,1.171 2.9924,2.8919 4.7097,3.6303l0.5211 0.169c1.7184,-3.3555 6.2249,-8.2371 8.8768,-13.5731l2.3041 -4.1803c0.4801,-0.8455 0.5068,-1.1741 1.0278,-2.3255 2.0713,-4.5789 4.5713,-9.1013 6.0691,-13.8635 3.6181,-11.5081 5.4145,-15.4279 7.3964,-28.9257 0.4903,-3.3451 1.0761,-12.6153 1.629,-14.8491 0.0185,-0.0742 0.0503,-0.1895 0.0893,-0.2791l0 -14.6225 -2.0107 -18.8441 -2.778 -13.1508c-0.2893,-1.0361 -0.7109,-2.514 -1.111,-3.9198 -0.1877,-0.6581 -0.3181,-1.1967 -0.4801,-1.7672 -0.2863,-1.0062 -0.238,-0.7478 -0.5684,-1.688 -2.9329,-8.334 -3.5145,-11.1271 -7.6918,-19.7411 -0.1775,-0.3657 -0.274,-0.5273 -0.4319,-0.8291l-0.3252 -0.6231c-0.0318,-0.0629 -0.0739,-0.1483 -0.1057,-0.2112l-1.5511 -3.1483c-0.2606,-0.586 -0.4246,-0.8775 -0.753,-1.4419l-6.983 -11.471c-0.1959,-0.3121 -0.2544,-0.4264 -0.4739,-0.7838 -0.0472,-0.0772 -0.1815,-0.2955 -0.2298,-0.3728l-4.004 -5.7303 -20.9706 -22.8957c-12.5103,-10.7295 -23.2018,-18.2251 -39.1744,-25.2593 -28.4142,-12.5143 -62.0531,-16.2775 -93.6824,-8.8902 -36.9822,8.6389 -66.2571,28.7796 -88.4208,58.8918 -2.6723,3.6314 -4.8985,7.0578 -7.3616,11.297l-6.3541 11.8973c-5.829,11.5637 -11.0239,28.8537 -12.894,42.4133 -0.3324,2.4069 -1.3972,15.9212 -1.6445,16.5958z"/><polygon fill="black" points="101.2887,300.0292 198.6527,300.0292 198.4747,245.4953 101.4667,245.4953 "/><path fill="black" d="M257.3491 124.1271c-0.2563,-1.0694 -0.2583,-0.8558 -0.5289,-1.6422 -2.2191,-0.2657 -81.4671,10.2906 -86.8786,10.9928 -2.6638,0.346 -5.3055,-3.3787 -8.1483,-5.0353 -12.45,-7.2571 -28.4636,-1.1836 -34.3787,11.2201 -3.7928,7.9542 -2.6763,18.7775 1.4896,24.3586 4.1911,5.6161 8.7074,9.629 16.6799,11.204 1.4523,0.2872 3.7169,0.4041 5.4262,0.3312 3.3941,-0.1456 8.3476,-1.237 11.224,-3.1167 4.9199,-3.2161 9.0654,-7.4464 11.067,-13.0185 0.2613,-0.7285 0.5544,-1.8922 0.8128,-2.4865l0.7725 -1.1015 20.4391 -7.9425c0.0635,-0.0247 0.1531,-0.0579 0.2166,-0.0826l4.3508 -1.6741c0.8526,-0.3204 0.1612,-0.0642 0.649,-0.2533 0.0898,-0.0343 0.3452,-0.1337 0.434,-0.1682l8.6802 -3.4078c0.085,-0.04 0.3229,-0.1603 0.4086,-0.199l6.5301 -2.5453c1.3927,-0.7987 2.916,-0.9602 4.3864,-1.559l17.1096 -6.7246c0.0696,-0.0198 0.1618,-0.0437 0.2307,-0.0647l3.2992 -1.2201c0.0624,-0.0281 0.1477,-0.0734 0.2091,-0.1018l14.2907 -5.622c0.6999,-0.2334 0.5632,-0.1462 1.2284,-0.141z"/></g></g></svg>