<svg xmlns="http://www.w3.org/2000/svg" viewBox="0 0 5.0581 5.0581"><g><path fill="black" d="M4.1614 0.2199l0.7428 0 0 0.4398 -0.7428 0 0 -0.4398zm-4.0111 0l0.7428 0 0 0.4398 -0.7428 0 0 -0.4398zm1.4856 0l0.7428 0 0 0.4398 -0.7428 0 0 -0.4398zm-1.4856 4.1784l0.7428 0 0 0.4398 -0.7428 0 0 -0.4398zm4.0111 0l0.7428 0 0 0.4398 -0.7428 0 0 -0.4398zm-2.5255 0l0.7428 0 0 0.4398 -0.7428 0 0 -0.4398zm-1.1885 -3.4864l0 1.3187c-0.1309,0.0114 -0.2228,0.149 -0.2228,0.3244 0,0.1259 0.1125,0.2629 0.2228,0.2725l0 1.3187 0.0034 0.0034c-0.0017,0.0089 -0.0028,0.0185 -0.0034,0.0289 -0.5002,0 -0.4457,-0.0619 -0.4457,0.6781 0,0.107 0.0639,0.2015 0.1362,0.2015l0.7676 0c0.1825,0 0.1362,-0.381 0.1362,-0.6781 0,-0.2726 -0.2685,-0.2016 -0.4457,-0.2016 -0.0006,-0.0103 -0.0018,-0.0199 -0.0034,-0.0289l0.0034 -0.0034 0 -1.3187c0.092,-0.008 0.2028,-0.1242 0.2104,-0.2206l0.9161 0c0.0077,0.0964 0.1185,0.2126 0.2104,0.2206l0 1.3187 0.0034 0.0034c-0.0017,0.0089 -0.0028,0.0185 -0.0034,0.0289 -0.0942,0 -0.1918,-0.0038 -0.2855,-0.0011 -0.2094,0.0062 -0.1602,0.2802 -0.1602,0.6792 0,0.107 0.0638,0.2015 0.1362,0.2015l0.7676 0c0.1825,0 0.1362,-0.381 0.1362,-0.6781 0,-0.121 -0.0649,-0.1968 -0.148,-0.2025 -0.0938,-0.0064 -0.2022,0.0009 -0.2977,0.0009 -0.0006,-0.0103 -0.0018,-0.0199 -0.0034,-0.0289l0.0034 -0.0034 0 -1.3187c0.092,-0.008 0.2028,-0.1242 0.2104,-0.2206l1.9561 0c0.0076,0.0964 0.1185,0.2126 0.2104,0.2206l0 1.3187 0.0034 0.0034c-0.0017,0.0089 -0.0028,0.0185 -0.0034,0.0289 -0.5002,0 -0.4457,-0.0619 -0.4457,0.6781 0,0.107 0.0639,0.2015 0.1362,0.2015l0.7676 0c0.1825,0 0.1362,-0.381 0.1362,-0.6781 0,-0.2726 -0.2685,-0.2016 -0.4457,-0.2016 -0.0006,-0.0103 -0.0018,-0.0199 -0.0034,-0.0289l0.0034 -0.0034 0 -1.3187c0.0545,-0.0047 0.1154,-0.0476 0.1506,-0.0887 0.1535,-0.1783 0.0455,-0.4911 -0.1506,-0.5083l0 -1.3187 -0.0034 -0.0034c0.0017,-0.0089 0.0028,-0.0185 0.0034,-0.0289 0.5002,0 0.4457,0.0619 0.4457,-0.6781 0,-0.107 -0.0638,-0.2016 -0.1362,-0.2016l-0.7676 0c-0.0723,0 -0.1362,0.0945 -0.1362,0.2016 0,0.7404 -0.0537,0.6781 0.4457,0.6781 0.0006,0.0103 0.0018,0.0199 0.0034,0.0289l-0.0034 0.0034 0 1.3187c-0.092,0.008 -0.2028,0.1242 -0.2104,0.2206l-1.9561 0c-0.0077,-0.0964 -0.1185,-0.2126 -0.2104,-0.2206l0 -1.3187 -0.0034 -0.0034c0.0017,-0.0089 0.0028,-0.0185 0.0034,-0.0289 0.0942,0 0.1918,0.0038 0.2855,0.0011 0.2094,-0.0062 0.1602,-0.2802 0.1602,-0.6792 0,-0.107 -0.0638,-0.2016 -0.1362,-0.2016l-0.7676 0c-0.0723,0 -0.1362,0.0945 -0.1362,0.2016 0,0.7404 -0.0537,0.6781 0.4457,0.6781 0.0006,0.0103 0.0018,0.0199 0.0034,0.0289l-0.0034 0.0034 0 1.3187c-0.092,0.008 -0.2028,0.1242 -0.2104,0.2206l-0.9161 0c-0.0077,-0.0964 -0.1185,-0.2126 -0.2104,-0.2206l0 -1.3187 -0.0034 -0.0034c0.0017,-0.0089 0.0028,-0.0185 0.0034,-0.0288 0.5002,0 0.4457,0.0619 0.4457,-0.6781 0,-0.107 -0.0639,-0.2016 -0.1362,-0.2016l-0.7676 0c-0.0723,0 -0.1362,0.0945 -0.1362,0.2016 0,0.7404 -0.0537,0.6781 0.4457,0.6781 0.0006,0.0103 0.0018,0.0199 0.0034,0.0288l-0.0034 0.0035zm-0.0743 1.6171c0,-0.1902 0.2981,-0.1996 0.2933,-0.0016 -0.0052,0.2153 -0.2933,0.1851 -0.2933,0.0016zm1.4856 0c-0.0038,-0.0439 0.0449,-0.1501 0.1486,-0.1501 0.1934,0 0.1891,0.3002 0,0.3002 -0.0808,0 -0.1412,-0.0654 -0.1486,-0.1501zm2.8226 0c0,0.1835 -0.2882,0.2136 -0.2933,-0.0016 -0.0048,-0.1979 0.2933,-0.1886 0.2933,0.0016z"/></g></svg>