<svg xmlns="http://www.w3.org/2000/svg" viewBox="0 0 3.3127 3.3127"><g><g><path fill="black" d="M2.6279 1.6989c0,0.0475 -0.0106,0.1246 -0.0193,0.1671 -0.0345,0.17 -0.0574,0.2408 -0.1583,0.3908 -0.0263,0.0391 -0.0525,0.0704 -0.0817,0.1042l-0.0424 0.0412c-0.0978,0.0903 -0.1341,0.1201 -0.2688,0.1861 -0.1618,0.0792 -0.4079,0.1108 -0.6141,0.0621 -0.131,-0.0309 -0.1427,-0.0387 -0.2623,-0.0994 -0.0518,-0.0263 -0.1331,-0.0899 -0.1762,-0.1302 -0.002,-0.0018 -0.0075,-0.0073 -0.0095,-0.0091 -0.0741,-0.0675 -0.0444,-0.0398 -0.1059,-0.1171 -0.2126,-0.2673 -0.2672,-0.686 -0.1194,-0.986l0.1614 -0.2565c0.2356,-0.2713 0.6456,-0.3925 1.0048,-0.2791 0.1054,0.0333 0.1887,0.0699 0.2806,0.1368l0.2391 0.244c0.0972,0.1444 0.1719,0.3522 0.1719,0.5449zm0.5367 -0.6716c0,-0.0675 -0.0298,-0.103 -0.071,-0.1336 -0.0809,-0.06 -0.2112,-0.049 -0.3021,-0.0872 -0.029,-0.0122 -0.0784,-0.041 -0.0926,-0.0667 -0.0566,-0.1023 -0.0156,-0.2407 -0.0565,-0.352 -0.0297,-0.0808 -0.131,-0.1532 -0.2366,-0.1532 -0.0969,0 -0.2056,0.0933 -0.3331,0.0933 -0.1478,0 -0.1997,-0.2223 -0.2811,-0.2858 -0.0243,-0.0189 -0.0307,-0.0219 -0.0543,-0.0275 -0.1906,-0.0453 -0.2189,0.02 -0.3122,0.1455 -0.0911,0.1225 -0.1129,0.1585 -0.2407,0.1585 -0.1186,0 -0.3147,-0.182 -0.4701,-0.0355 -0.1369,0.129 0.0042,0.3843 -0.1569,0.4948 -0.0106,0.0073 -0.0195,0.0118 -0.0298,0.0166 -0.0212,0.0098 -0.0544,0.0205 -0.0764,0.0256 -0.1242,0.0291 -0.331,0.0422 -0.331,0.254 0,0.1154 0.0817,0.2001 0.1165,0.2837 0.0459,0.1099 0.0223,0.0451 0.0223,0.0894l0.0021 0.0531c-0.0036,0.0245 -0.0365,0.0744 -0.0508,0.0936l-0.1666 0.1865c-0.024,0.0269 -0.0437,0.0857 -0.0437,0.1332 0,0.1252 0.0776,0.1665 0.1417,0.2023 0.0599,0.0334 0.1687,0.0897 0.202,0.1415 0.0885,0.1376 -0.0538,0.2827 0.0305,0.4636 0.0288,0.0618 0.0842,0.1246 0.1515,0.1462 0.0891,0.0287 0.2908,-0.0695 0.4031,0.0689 0.0674,0.083 0.04,0.3675 0.3109,0.3675 0.1511,0 0.1385,-0.0312 0.2311,-0.1028 0.0271,-0.021 0.0561,-0.0403 0.0896,-0.0589 0.2147,-0.1194 0.4269,0.3371 0.6582,0.1039 0.1083,-0.1092 0.0771,-0.3052 0.2304,-0.3647 0.1597,-0.062 0.5303,0.0965 0.5303,-0.221 0,-0.1408 -0.1311,-0.3391 0.0281,-0.4567l0.1903 -0.1066c0.0639,-0.0383 0.1147,-0.1015 0.1147,-0.1828 0,-0.2184 -0.2683,-0.2772 -0.2683,-0.457 0,-0.1605 0.1203,-0.1976 0.1203,-0.4291z"/><path fill="black" d="M1.1567 1.6056c0,-0.0598 0.0109,-0.0779 0.0487,-0.1095 0.1997,-0.1669 0.269,0.1734 0.3955,0.2587l0.2629 -0.388c0.0642,-0.093 0.0943,-0.1521 0.2242,-0.0657 0.1404,0.0933 0.0039,0.2167 -0.099,0.3785 -0.017,0.0267 -0.0372,0.0529 -0.0568,0.0827l-0.2291 0.3381c-0.119,0.1405 -0.2606,-0.0807 -0.3151,-0.1589 -0.0207,-0.0297 -0.0379,-0.0488 -0.062,-0.0774l-0.1191 -0.1597c-0.0204,-0.026 -0.0501,-0.0592 -0.0501,-0.0987zm-0.3424 0.0653c0,0.0923 -0.0007,0.1569 0.0224,0.2479 0.0399,0.157 0.1584,0.3495 0.2774,0.4386 0.1511,0.1132 0.3156,0.1996 0.5237,0.1996 0.218,0 0.4553,-0.0897 0.6039,-0.24 0.1762,-0.1783 0.2566,-0.379 0.2566,-0.6274 0,-0.2695 -0.1385,-0.5318 -0.3571,-0.6847 -0.2387,-0.167 -0.5512,-0.2063 -0.8207,-0.0828 -0.1655,0.0758 -0.2329,0.1367 -0.3462,0.2759 -0.0202,0.0249 -0.0252,0.0375 -0.0391,0.0632l-0.0216 0.0342c-0.0087,0.0141 -0.0114,0.0206 -0.0193,0.0365 -0.0438,0.0885 -0.08,0.2105 -0.08,0.3391z"/></g></g></svg>