<svg xmlns="http://www.w3.org/2000/svg" viewBox="0 0 3.4358 3.4358"><g><path fill="#373435" stroke="#373435" stroke-width="0.0228" stroke-linecap="round" stroke-linejoin="round" stroke-miterlimit="22.9256" d="M0.4741 0.7286l0 0.8572 2.4875 0 0 -0.8572c-0.1455,-0.0463 -0.2511,-0.1857 -0.2511,-0.3504 0,-0.2026 0.1598,-0.3668 0.3569,-0.3668 0.1971,0 0.3569,0.1642 0.3569,0.3668 0,0.1647 -0.1057,0.3041 -0.2511,0.3504l0 0.9793c0,0.0043 -0.0004,0.0084 -0.0013,0.0124 -0.0032,0.0614 -0.0544,0.1106 -0.1166,0.1106l-2.5813 0 0 0.8762c0.1455,0.0463 0.2511,0.1857 0.2511,0.3504 0,0.2026 -0.1598,0.3668 -0.3569,0.3668 -0.1971,0 -0.3569,-0.1642 -0.3569,-0.3668 0,-0.1647 0.1057,-0.3041 0.2511,-0.3504l0 -0.993 0 -0.0118 0 -0.9739c-0.1455,-0.0463 -0.2511,-0.1857 -0.2511,-0.3504 0,-0.2026 0.1598,-0.3668 0.3569,-0.3668 0.1971,0 0.3569,0.1642 0.3569,0.3668 0,0.1647 -0.1057,0.3041 -0.2511,0.3504z"/><path fill="#373435" stroke="#373435" stroke-width="0.0228" stroke-linecap="round" stroke-linejoin="round" stroke-miterlimit="22.9256" d="M1.8329 0.7286l0 1.9786c0.1455,0.0463 0.2511,0.1857 0.2511,0.3504 0,0.2026 -0.1598,0.3668 -0.3569,0.3668 -0.1971,0 -0.3569,-0.1642 -0.3569,-0.3668 0,-0.1647 0.1057,-0.3041 0.2511,-0.3504l0 -1.9786c-0.1455,-0.0463 -0.2511,-0.1857 -0.2511,-0.3504 0,-0.2026 0.1598,-0.3668 0.3569,-0.3668 0.1971,0 0.3569,0.1642 0.3569,0.3668 0,0.1647 -0.1057,0.3041 -0.2511,0.3504z"/><path fill="#373435" stroke="#373435" stroke-width="0.0228" stroke-linecap="round" stroke-linejoin="round" stroke-miterlimit="22.9256" d="M3.1733 2.7072c0.1455,0.0463 0.2511,0.1857 0.2511,0.3504 0,0.2026 -0.1598,0.3668 -0.3569,0.3668 -0.1971,0 -0.3569,-0.1642 -0.3569,-0.3668 0,-0.1647 0.1057,-0.3041 0.2511,-0.3504l0 -0.6875c0,-0.0333 0.0272,-0.0604 0.0604,-0.0604l0.0907 0c0.0333,0 0.0604,0.0272 0.0604,0.0604l0 0.6875z"/><path fill="#FEFEFE" fill-rule="nonzero" d="M2.9253 3.2369l0 -0.3678 0.163 0c0.0328,0 0.0577,0.0033 0.0747,0.0099 0.017,0.0066 0.0306,0.0182 0.0408,0.0349 0.0102,0.0167 0.0152,0.0352 0.0152,0.0554 0,0.0261 -0.0085,0.0481 -0.0253,0.066 -0.0169,0.0179 -0.0429,0.0292 -0.0782,0.0341 0.0129,0.0062 0.0227,0.0123 0.0294,0.0183 0.0142,0.013 0.0276,0.0294 0.0402,0.049l0.0636 0.1002 -0.0608 0 -0.0486 -0.0765c-0.0141,-0.0222 -0.0259,-0.039 -0.035,-0.0508 -0.0092,-0.0117 -0.0175,-0.0199 -0.0247,-0.0246 -0.0072,-0.0046 -0.0146,-0.0079 -0.0222,-0.0098 -0.0055,-0.0011 -0.0145,-0.0017 -0.0271,-0.0017l-0.0563 0 0 0.1633 -0.0488 0zm0.0488 -0.2055l0.1044 0c0.0223,0 0.0395,-0.0023 0.052,-0.0069 0.0125,-0.0045 0.022,-0.0119 0.0284,-0.0221 0.0065,-0.0101 0.0098,-0.0211 0.0098,-0.033 0,-0.0174 -0.0062,-0.0318 -0.0188,-0.043 -0.0126,-0.0112 -0.0324,-0.0168 -0.0596,-0.0168l-0.1162 0 0 0.1217z"/></g></svg>