<svg xmlns="http://www.w3.org/2000/svg" viewBox="0 0 3.315 3.315"><g><g><path fill="black" d="M3.0216 2.9856c-0.0534,-0.0233 -0.1089,0.0095 -0.1242,0.0493 -0.0227,0.0587 0.0151,0.1073 0.0546,0.1225 0.1135,0.0435 0.1881,-0.12 0.0697,-0.1718zm-0.3401 0.2188c-0.1046,-0.0017 -0.4393,0.0182 -0.5657,0.0245 -0.1845,0.0092 -0.3721,0.014 -0.5571,0.0241 -0.2073,0.0113 -0.3418,0.025 -0.5064,-0.0609 -0.0946,-0.0494 -0.2632,-0.1549 -0.3684,-0.2164 -0.123,-0.0719 -0.2492,-0.1457 -0.3712,-0.2184 -0.0624,-0.0372 -0.1203,-0.0731 -0.1843,-0.1111 -0.0539,-0.0319 -0.1283,-0.0655 -0.1285,-0.1613 -0.0001,-0.0821 0.0698,-0.1485 0.1603,-0.1299 0.1372,0.0282 0.4363,0.219 0.5721,0.3016 0.1959,0.1191 0.18,0.1143 0.4391,0.1505 0.0599,0.0084 0.6319,0.0638 0.6807,0.0459 0.0374,-0.0138 0.0348,-0.0683 -0.0116,-0.0787 -0.1144,-0.0257 -0.7148,-0.0483 -0.7852,-0.0875 -0.1073,-0.0597 -0.1216,-0.2098 -0.0079,-0.2746 0.0439,-0.0251 0.0705,-0.0213 0.1265,-0.0219 0.1918,-0.0019 0.3841,-0.0054 0.5764,-0.0068 0.2533,-0.0017 0.4069,-0.1341 0.7693,-0.0547 0.1032,0.0226 0.1799,0.0663 0.2149,0.074 0.0661,-0.0765 0.0955,-0.0772 0.222,-0.0661 0.1723,0.015 0.3799,-0.0221 0.3565,0.2343 -0.0083,0.0907 -0.0115,0.1833 -0.0199,0.2745 -0.0087,0.0942 -0.0118,0.1912 -0.0198,0.2841 -0.0202,0.2341 -0.2057,0.1859 -0.3951,0.1712 -0.1021,-0.008 -0.1652,-0.0191 -0.1968,-0.0963z"/><path fill="black" d="M1.584 0.7151c-0.0045,0.0048 -0.0026,0.0043 -0.0088,0.0087 -0.0104,0.0074 -0.0046,0.0026 -0.0128,0.0055 -0.0043,-0.006 -0.0072,-0.0069 -0.0093,-0.0193l0.0004 -0.0699 -0.0387 0.0016c-0.0986,-0.0039 -0.2195,0.0898 -0.2709,0.1869 -0.0167,0.0315 -0.0311,0.0749 -0.0369,0.1169 -0.0509,0.3737 0.4303,0.5716 0.649,0.2492 0.0701,-0.1033 0.0794,-0.2377 0.02,-0.3612 -0.02,-0.0415 -0.0503,-0.0669 -0.0629,-0.0957 0.0324,-0.0145 0.0752,-0.0582 0.1082,-0.0698 0.0663,0.0592 0.1173,0.1948 0.1245,0.2961 0.0257,0.3604 -0.3432,0.6426 -0.6986,0.4762 -0.1626,-0.0761 -0.3273,-0.2926 -0.2619,-0.5584 0.0924,-0.3759 0.4601,-0.3754 0.4657,-0.3807 0.0104,-0.02 -0.0005,-0.059 0.0086,-0.0854 0.0191,-0.0024 0.2155,0.1358 0.2262,0.1517 -0.0074,0.015 -0.1719,0.1325 -0.2018,0.1475zm-0.6939 -0.1035c-0.0107,0.0292 -0.0316,0.0628 -0.0444,0.0945 -0.0135,0.0334 -0.0199,0.0766 -0.039,0.1057 -0.0535,0.0118 -0.1315,0.0146 -0.1817,0.0303 -0.0656,0.0206 -0.054,0.0882 -0.054,0.1656 -0,0.0745 -0.0114,0.1384 0.0588,0.1569l0.1713 0.0303c0.026,0.0102 0.0252,0.0531 0.0483,0.1055 0.057,0.1289 0.0761,0.0509 -0.0533,0.236 -0.0485,0.0693 0.012,0.1122 0.0562,0.1569 0.0741,0.0751 0.1063,0.1368 0.1962,0.0656l0.094 -0.0704c0.0399,-0.0277 0.028,-0.0168 0.1044,0.0179 0.1125,0.0511 0.1206,0.0191 0.1301,0.0823l0.0239 0.1424c0.0183,0.0756 0.0717,0.0625 0.1562,0.0625 0.0785,0 0.1419,0.0144 0.1631,-0.0557 0.0156,-0.0515 0.0204,-0.1306 0.0326,-0.1875 0.0178,-0.0116 0.0748,-0.0264 0.0992,-0.0371 0.0348,-0.0153 0.0605,-0.0304 0.0912,-0.0453l0.0754 0.0503c0.0217,0.015 0.0498,0.041 0.0717,0.0537 0.0766,0.0443 0.1245,-0.0309 0.1582,-0.0649 0.0979,-0.0986 0.1254,-0.1054 0.0256,-0.2363 -0.0133,-0.0175 -0.0156,-0.0248 -0.0265,-0.0392 -0.0453,-0.06 -0.0328,-0.02 0.0151,-0.1335 0.0151,-0.0356 0.0233,-0.0685 0.0362,-0.1069 0.0596,-0.0154 0.127,-0.0169 0.1848,-0.0336 0.0702,-0.0202 0.0569,-0.0831 0.0569,-0.161 0,-0.0792 0.0146,-0.1434 -0.059,-0.1619 -0.0482,-0.0121 -0.1419,-0.0179 -0.1811,-0.0334 -0.0058,-0.0051 -0.0359,-0.1079 -0.0582,-0.151 -0.0318,-0.0614 -0.0325,-0.0379 0.0023,-0.086 0.0113,-0.0156 0.0129,-0.0222 0.0264,-0.0393 0.1043,-0.1321 0.071,-0.1424 -0.0184,-0.2321 -0.1099,-0.1104 -0.105,-0.1109 -0.2305,-0.0198 -0.1372,0.0996 -0.031,0.0431 -0.2394,-0.0158 -0.0316,-0.0089 -0.0342,-0.003 -0.0404,-0.035 -0.0159,-0.0811 -0.0075,-0.2072 -0.0882,-0.2195 -0.0377,-0.0057 -0.11,-0.0013 -0.1514,-0.0014 -0.0532,-0.0002 -0.0873,0.0076 -0.1035,0.0478 -0.0106,0.0262 -0.0185,0.0986 -0.0237,0.1306 -0.0206,0.1258 -0.0071,0.0305 -0.1788,0.1333 -0.0469,0.0281 -0.044,0.0122 -0.1389,-0.0544 -0.015,-0.0105 -0.028,-0.022 -0.0444,-0.0323 -0.0462,-0.0291 -0.0744,-0.0093 -0.102,0.0177 -0.0271,0.0265 -0.0492,0.0504 -0.0761,0.0771 -0.019,0.0189 -0.0634,0.0514 -0.0638,0.0922 -0.0005,0.0499 0.097,0.152 0.1188,0.1981z"/><path fill="black" d="M0.819 2.5655c-0.0009,-0.0003 -0.4154,-0.2596 -0.5322,-0.2927l0.0318 -0.0212c0.0116,-0.0038 0.0277,-0.0069 0.0403,-0.0076 0.0298,-0.0016 0.0553,0.005 0.0815,0.0154 0.072,0.0285 0.3629,0.1613 0.3926,0.1926 -0.0073,0.035 -0.013,0.072 -0.014,0.1135z"/><path fill="black" d="M0.9594 2.2851c-0.0084,0.0168 0.0011,0.0016 -0.0082,0.0119l-0.0278 0.022c-0.0126,0.0102 -0.0217,0.021 -0.032,0.0323 -0.0195,-0.0057 -0.0569,-0.0313 -0.0813,-0.0433 -0.0284,-0.014 -0.0553,-0.0258 -0.0865,-0.0386 -0.0589,-0.0242 -0.1268,-0.0551 -0.183,-0.0732l0.0222 -0.0173c0.0248,-0.0113 0.0653,-0.0134 0.0933,-0.0071 0.0674,0.015 0.2347,0.0919 0.3032,0.1134z"/><path fill="#757575" d="M1.584 0.7151l-0.0251 0.0077 -0.0013 -0.0868c-0.0099,-0.0005 -0.0149,-0.0015 -0.0227,-0.0009 -0.0204,0.0017 -0.0116,-0.0009 -0.0202,0.0067l0.0387 -0.0016 -0.0004 0.0699c0.0021,0.0124 0.005,0.0132 0.0093,0.0193 0.0082,-0.0029 0.0024,0.0019 0.0128,-0.0055 0.0062,-0.0044 0.0043,-0.0039 0.0088,-0.0087z"/></g></g></svg>