<svg viewBox="0 0 23 15" fill="none" xmlns="http://www.w3.org/2000/svg"><path fill="#444F60" d="M22.6003 7.50003C22.6003 7.33729 22.5019 7.12119 22.4021 7.01633L16.7758 1.03823C16.5131 0.766656 16.0876 0.735182 15.7813 1.0108C15.5075 1.2572 15.5007 1.73776 15.7539 2.00533L20.2703 6.79659L0.703295 6.79674C0.314865 6.79674 0 7.11161 0 7.50003C0 7.88846 0.314865 8.20337 0.703295 8.20337L20.2703 8.20322L15.7539 12.9945C15.5007 13.262 15.5187 13.7308 15.7813 13.989C16.0586 14.2616 16.5171 14.2373 16.7758 13.9616L22.4021 7.98346C22.5674 7.82132 22.5976 7.66517 22.6003 7.50003Z"/></svg>