<svg viewBox="0 0 23 14" fill="none" xmlns="http://www.w3.org/2000/svg"><path fill="#444F60" d="M-1.90735e-06 7.00003C-1.90735e-06 6.83729 0.098423 6.62119 0.198292 6.51633L5.82454 0.538233C6.08722 0.266656 6.51279 0.235182 6.81904 0.510803C7.09283 0.757203 7.09965 1.23776 6.84647 1.50533L2.33008 6.29659L21.897 6.29674C22.2855 6.29674 22.6003 6.61161 22.6003 7.00003C22.6003 7.38846 22.2855 7.70337 21.897 7.70337L2.33008 7.70322L6.84647 12.4945C7.09962 12.762 7.08165 13.2308 6.81904 13.489C6.54177 13.7616 6.08322 13.7373 5.82454 13.4616L0.198292 7.48346C0.0329819 7.32132 0.00277519 7.16517 -1.90735e-06 7.00003Z"/></svg>