<svg xmlns="http://www.w3.org/2000/svg" viewBox="0 0 320 148.15"><g><g><path d="M320,41.48,308.15,0H243V5.93H88.89v5.92H17.78V5.93H0V35.56H17.78V17.78H207.41V47.41H5.92V83H243v5.93H59.26v29.63H79.12A20.39,20.39,0,0,0,77,127.41a20.74,20.74,0,0,0,41.48,0,20.53,20.53,0,0,0-2.08-8.89h10.08a20.53,20.53,0,0,0-2.08,8.89,20.74,20.74,0,1,0,41.48,0,20.39,20.39,0,0,0-2.08-8.89h75.28a20.39,20.39,0,0,0-2.08,8.89,20.74,20.74,0,0,0,41.48,0,20.53,20.53,0,0,0-2.08-8.89H320ZM83,71.11H17.78V59.26H83Zm77,0H94.81V59.26H160Zm11.85,0V59.26H237V71.11Zm-65.18,56.3a8.89,8.89,0,1,1-8.9-8.89h0A8.9,8.9,0,0,1,106.67,127.41Zm47.4,0a8.89,8.89,0,1,1-8.89-8.89h0A8.89,8.89,0,0,1,154.07,127.41Zm112.6,0a8.89,8.89,0,1,1-8.9-8.89h0A8.9,8.9,0,0,1,266.67,127.41Zm44.44-65.19H257.78V8.89h41.48l11.85,35.55Z"/></g></g></svg>