<svg xmlns="http://www.w3.org/2000/svg" viewBox="0 0 320 308.66"><g><g><g><polygon points="246.67 197.86 157.23 151.35 157.23 62.16 149.92 62.16 149.92 155.8 243.3 204.36 246.67 197.86" /><path d="M14.63,153.57C14.63,77,77,14.63,153.57,14.63a138.23,138.23,0,0,1,97.65,40.09H223.77V69.34H275V18.15H260.34V43.22A152.77,152.77,0,0,0,153.57,0C68.9,0,0,68.89,0,153.57A153.06,153.06,0,0,0,137.88,306.36l1.48-14.55A138.46,138.46,0,0,1,14.63,153.57Z"/><path d="M304.58,129.65a14.63,14.63,0,1,0-17.85-10.44A14.61,14.61,0,0,0,304.58,129.65Z" /><path d="M319.52,158.41a14.63,14.63,0,1,0-10.45,17.86A14.62,14.62,0,0,0,319.52,158.41Z" /><path d="M291.74,192.07a14.62,14.62,0,1,0,17.86,10.44A14.61,14.61,0,0,0,291.74,192.07Z" /><path d="M269.13,230.71A14.63,14.63,0,1,0,287,241.16,14.63,14.63,0,0,0,269.13,230.71Z" /><path d="M235.54,261a14.63,14.63,0,1,0,17.86,10.45A14.63,14.63,0,0,0,235.54,261Z" /><path d="M192.71,279.88a14.63,14.63,0,1,0,17.85,10.45A14.62,14.62,0,0,0,192.71,279.88Z" /></g></g></g></svg>