<svg xmlns="http://www.w3.org/2000/svg" viewBox="0 0 320 193.21"><g><g><path d="M271.7,30.19H229.43V0H48.3V24.15H6V36.23H48.3v6H6V54.34H48.3V72.45H0V84.53H48.3v36.22h-6v30.19H75A29.92,29.92,0,0,0,72.45,163a30.19,30.19,0,0,0,60.38,0,29.92,29.92,0,0,0-2.56-12.08h89.65A29.92,29.92,0,0,0,217.36,163a30.19,30.19,0,1,0,57.82-12.08H320V83.14ZM238.49,45.28h30.19l30.19,37.86V93.58H238.49ZM205.28,78.49V90.57H114.72V78.49Zm-24.15-6H90.57V60.38h90.56ZM72.45,36.23H163V48.3H72.45ZM120.75,163a18.11,18.11,0,1,1-31.51-12.08H116A18,18,0,0,1,120.75,163Zm144.91,0a18.12,18.12,0,1,1-31.52-12.08H261A18,18,0,0,1,265.66,163Z" /></g></g></svg>