<svg xmlns="http://www.w3.org/2000/svg" viewBox="0 0 320 252.39"><g><g><path id="Грузовые_кузова" d="M320,149l-11.49-40.22h-63.2v86.18H228l.06-.05-54.23-64.07-8.74,7.39-31.39-37.09,73.08-61.86L173.52,0,0,146.88l33.22,39.25,93.42-79.08L158,144.14l-9.23,7.8,36.39,43h-118v28.73h2a19.8,19.8,0,0,0-2,8.62,20.11,20.11,0,0,0,40.22,0,19.8,19.8,0,0,0-2-8.62H258.82a19.8,19.8,0,0,0-2,8.62,20.11,20.11,0,1,0,40.22,0,19.8,19.8,0,0,0-2-8.62h25ZM95.92,232.28a8.62,8.62,0,1,1-8.62-8.62h0A8.63,8.63,0,0,1,95.92,232.28Zm189.61,0a8.62,8.62,0,1,1-8.63-8.62h0A8.63,8.63,0,0,1,285.53,232.28Zm25.85-63.2H259.67V117.37h40.22l11.49,34.47Z" /></g></g></svg>