<svg xmlns="http://www.w3.org/2000/svg" viewBox="0 0 320 169.06"><g><g><path d="M320,60.38,307.92,18.11H289.81V0H229.43L213.92,36.23H18.11L0,90.57H211.32l24.15-72.46h6v90.57H54.34v30.19h2.12a20.84,20.84,0,0,0-2.12,9,21.13,21.13,0,1,0,42.26,0,20.84,20.84,0,0,0-2.12-9H255.7a20.84,20.84,0,0,0-2.12,9,21.14,21.14,0,1,0,42.27,0,20.84,20.84,0,0,0-2.12-9H320ZM84.53,147.92a9.06,9.06,0,1,1-9.07-9h0A9.06,9.06,0,0,1,84.53,147.92Zm199.24,0a9.06,9.06,0,1,1-9.07-9h0A9.05,9.05,0,0,1,283.77,147.92Zm27.17-66.41H256.6V27.17h42.27L310.94,63.4Z" /></g></g></svg>