<svg xmlns="http://www.w3.org/2000/svg" viewBox="0 0 320 323.9"><g><g><g><rect x="39.02" y="105.37" width="31.22" height="23.41" /><rect x="91.06" y="105.37" width="31.22" height="23.41" /><rect x="143.09" y="105.37" width="31.22" height="23.41" /><rect x="195.12" y="105.37" width="31.22" height="23.41" /><rect x="39.02" y="156.1" width="31.22" height="23.41" /><rect x="91.06" y="156.1" width="31.22" height="23.41" /><rect x="143.09" y="156.1" width="31.22" height="23.41" /><polygon points="195.12 179.51 225.41 179.51 226.34 179.51 226.34 179.2 226.34 156.1 195.12 156.1 195.12 179.51" /><rect x="39.02" y="206.83" width="31.22" height="23.41" /><rect x="91.06" y="206.83" width="31.22" height="23.41" /><rect x="143.09" y="206.83" width="31.22" height="23.41" /><path d="M172.57,242H19.51V78.05H245.85v97.64c1.25-.08,2.58-.08,3.91-.08a76.54,76.54,0,0,1,15.61,1.64V50.73A23.42,23.42,0,0,0,242,27.32H214.63V34c0,10.2-7.33,19.51-17.49,20.53a19.52,19.52,0,0,1-21.53-19.41v-7.8H89.76V34c0,10.2-7.34,19.51-17.5,20.53A19.52,19.52,0,0,1,50.73,35.12v-7.8H23.41A23.41,23.41,0,0,0,0,50.73V245.85a23.41,23.41,0,0,0,23.41,23.42H173.27a81,81,0,0,1-1.56-15.61A72.67,72.67,0,0,1,172.57,242Z"/><path d="M265.37,185.13a73.27,73.27,0,0,0-15.61-1.72c-1.33,0-2.66,0-3.91.08A70.5,70.5,0,0,0,180.45,242a72,72,0,0,0-.94,11.71,73.27,73.27,0,0,0,1.72,15.61,70.27,70.27,0,1,0,84.14-84.14ZM249.76,308.29a54.63,54.63,0,0,1-53.86-45.66,49.07,49.07,0,0,1-.78-9,53.38,53.38,0,0,1,4.45-21.54,54.68,54.68,0,0,1,35.2-31,52.87,52.87,0,0,1,15-2.11,48.28,48.28,0,0,1,9,.79,54.61,54.61,0,0,1-9,108.48Z"/><path d="M253.66,252V214.63a3.91,3.91,0,0,0-7.81,0v39a3.91,3.91,0,0,0,1.15,2.76l11.7,11.71a3.9,3.9,0,1,0,5.52-5.52Z" /><path d="M70.24,46.83A11.69,11.69,0,0,0,82,35.12V11.71a11.71,11.71,0,1,0-23.41,0V35.12A11.69,11.69,0,0,0,70.24,46.83Z" /><path d="M195.12,46.83a11.69,11.69,0,0,0,11.71-11.71V11.71a11.71,11.71,0,0,0-23.42,0V35.12A11.69,11.69,0,0,0,195.12,46.83Z" /></g></g></g></svg>