<svg xmlns="http://www.w3.org/2000/svg" viewBox="0 0 320 175.68"><g><g><g><path d="M320,62.78,307.46,18.86h-50.2V0H194.51V18.86H12.56L0,94.14H25.1v18.8l18.82,0v31.37h21a21.63,21.63,0,0,0-2.19,9.38,22,22,0,1,0,41.75-9.38h10.64a21.63,21.63,0,0,0-2.19,9.38,22,22,0,0,0,43.93,0,21.64,21.64,0,0,0-2.2-9.38h79.67a21.62,21.62,0,0,0-2.18,9.38,22,22,0,1,0,41.74-9.38H320ZM31.38,75.32H18.82L25.1,37.68H37.64Zm25.09,0H43.92L50.2,37.68H62.74Zm12.55,0L75.3,37.68H87.84L81.57,75.32ZM84.7,163.13a9.4,9.4,0,0,1-.31-18.79H85a9.4,9.4,0,0,1-.32,18.79Zm22-87.81H94.12l6.27-37.64h12.55Zm12.55,0,6.27-37.64H138l-6.27,37.64Zm15.68,87.81a9.4,9.4,0,0,1-.31-18.79h.63a9.4,9.4,0,0,1-.32,18.79Zm22-87.81H144.31l6.28-37.64h12.54Zm25.1,0H169.41l6.28-37.64h12.54Zm25.09,0H194.51l6.28-37.64h12.54Zm31.37,18.79H219.61l12.55-75.25h6.27Zm15.68,69a9.4,9.4,0,0,1-.31-18.79h.63a9.4,9.4,0,0,1-.32,18.79Zm56.48-78.4H254.12V28.27H298l12.55,37.64Z" /></g></g></g></svg>