<svg viewBox="0 0 22 22" fill="none" xmlns="http://www.w3.org/2000/svg"><path d="M9.2086 0H0.895538C0.40116 0 0 0.40116 0 0.895538V9.2086C0 9.70344 0.40116 10.1046 0.895538 10.1046H9.2086C9.70344 10.1046 10.1046 9.70344 10.1046 9.2086V0.895538C10.1046 0.40116 9.70344 0 9.2086 0Z" fill="#B1BED2"/><path d="M9.2086 0H0.895538C0.40116 0 0 0.40116 0 0.895538V9.2086C0 9.70344 0.40116 10.1046 0.895538 10.1046H9.2086C9.70344 10.1046 10.1046 9.70344 10.1046 9.2086V0.895538C10.1046 0.40116 9.70344 0 9.2086 0Z" fill="#B1BED2"/><path d="M21.1041 0H12.791C12.2967 0 11.8955 0.40116 11.8955 0.895538V9.2086C11.8955 9.70344 12.2962 10.1046 12.791 10.1046H21.1041C21.5985 10.1046 22.0001 9.70344 22.0001 9.2086V0.895538C22.0001 0.40116 21.5989 0 21.1041 0Z" fill="#B1BED2"/><path d="M9.2086 11.8961H0.895538C0.40116 11.8961 0 12.2968 0 12.7917V21.1047C0 21.5991 0.40116 22.0007 0.895538 22.0007H9.2086C9.70344 22.0007 10.1046 21.5996 10.1046 21.1047V12.7912C10.1046 12.2968 9.70344 11.8961 9.2086 11.8961Z" fill="#B1BED2"/><path d="M21.1041 11.8961H12.791C12.2967 11.8961 11.8955 12.2968 11.8955 12.7917V21.1047C11.8955 21.5991 12.2962 22.0007 12.791 22.0007H21.1041C21.5985 22.0007 22.0001 21.5996 22.0001 21.1047V12.7912C22.0001 12.2968 21.5989 11.8961 21.1041 11.8961Z" fill="#B1BED2"/></svg>