<svg width="24" height="24" viewBox="0 0 24 24" fill="none" xmlns="http://www.w3.org/2000/svg">
<path d="M5.17556 22.1027H18.8244C20.5754 22.1027 22 20.6781 22 18.9272V6.9254C22 5.17445 20.5754 3.74983 18.8244 3.74983H18.3205V2.63346C18.3205 2.28367 18.0369 2 17.6871 2C17.3373 2 17.0536 2.28367 17.0536 2.63346V3.74983H14.5292V2.63346C14.5292 2.28367 14.2457 2 13.8957 2C13.5457 2 13.2622 2.28367 13.2622 2.63346V3.74983H10.7378V2.63346C10.7378 2.28367 10.4541 2 10.1043 2C9.75452 2 9.47085 2.28367 9.47085 2.63346V3.74983H6.94639V2.63346C6.94639 2.28367 6.66294 2 6.31293 2C5.96315 2 5.67947 2.28367 5.67947 2.63346V3.74983H5.17556C3.42462 3.74983 2 5.17445 2 6.9254V18.927C1.99978 20.6781 3.42439 22.1027 5.17556 22.1027ZM3.4092 6.9254C3.4092 5.95153 4.20147 5.15926 5.17534 5.15926H5.67925V6.26558C5.67925 6.61537 5.96292 6.89904 6.31271 6.89904C6.6625 6.89904 6.94617 6.61537 6.94617 6.26558V5.15926H9.47063V6.26558C9.47063 6.61537 9.7543 6.89904 10.1041 6.89904C10.4539 6.89904 10.7375 6.61537 10.7375 6.26558V5.15926H13.262V6.26558C13.262 6.61537 13.5457 6.89904 13.8955 6.89904C14.2453 6.89904 14.5289 6.61537 14.5289 6.26558V5.15926H17.0534V6.26558C17.0534 6.61537 17.3371 6.89904 17.6868 6.89904C18.0366 6.89904 18.3203 6.61537 18.3203 6.26558V5.15926H18.8242C19.7981 5.15926 20.5904 5.95153 20.5904 6.9254V18.927C20.5904 19.9008 19.7981 20.6931 18.8242 20.6931H5.17556C4.2017 20.6931 3.40943 19.9008 3.40943 18.927V6.9254H3.4092Z" fill="#444F60"/>
<path d="M8.2886 8.75609H6.09427V10.7101H8.2886V8.75609Z" fill="#444F60"/>
<path d="M13.0972 8.75609H10.9028V10.7101H13.0972V8.75609Z" fill="#444F60"/>
<path d="M17.9058 8.75609H15.7114V10.7101H17.9058V8.75609Z" fill="#444F60"/>
<path d="M8.2886 12.4507H6.09427V14.4047H8.2886V12.4507Z" fill="#444F60"/>
<path d="M13.0972 12.4507H10.9028V14.4047H13.0972V12.4507Z" fill="#444F60"/>
<path d="M17.9058 12.4507H15.7114V14.4047H17.9058V12.4507Z" fill="#444F60"/>
<path d="M8.2886 16.1454H6.09427V18.0994H8.2886V16.1454Z" fill="#444F60"/>
<path d="M13.0972 16.1454H10.9028V18.0994H13.0972V16.1454Z" fill="#444F60"/>
</svg>
