<svg width="24" height="24" viewBox="0 0 24 24" fill="none" xmlns="http://www.w3.org/2000/svg">
<path d="M12 22C6.48601 22 2 17.514 2 12C2 6.48601 6.48601 2 12 2C17.514 2 22 6.48601 22 12C22 17.514 17.514 22 12 22ZM12 3.09538C7.09016 3.09538 3.09623 7.09016 3.09623 12C3.09623 16.9098 7.09016 20.9046 12 20.9046C16.9098 20.9046 20.9038 16.9098 20.9038 12C20.9038 7.09016 16.9098 3.09538 12 3.09538Z" fill="#444F60" stroke="#444F60" stroke-width="0.2"/>
<path d="M13.0263 13.2319C12.9193 13.2319 12.8106 13.2007 12.7162 13.135L7.60077 9.607C7.35136 9.43511 7.28901 9.09386 7.4609 8.84529C7.63195 8.59757 7.97405 8.53353 8.22262 8.70542L13.3372 12.2342C13.5866 12.4061 13.649 12.7474 13.4771 12.9959C13.3718 13.1493 13.2007 13.2319 13.0263 13.2319Z" fill="#444F60"/>
<path d="M10.8945 13.2319C10.7117 13.2319 10.533 13.1409 10.4285 12.974C10.2693 12.7171 10.3468 12.3792 10.6038 12.2191L17.0944 8.16953C17.3497 8.00775 17.6876 8.0878 17.8493 8.34395C18.0086 8.60094 17.9311 8.93883 17.6741 9.09892L11.1835 13.1485C11.0942 13.2049 10.9939 13.2319 10.8945 13.2319Z" fill="#444F60"/>
<path d="M12 4.86788C11.9736 4.86788 11.9523 4.84654 11.9523 4.82019V4.1183C11.9523 4.09195 11.9736 4.07061 12 4.07061C12.0264 4.07061 12.0477 4.09195 12.0477 4.1183V4.82019C12.0477 4.84654 12.0264 4.86788 12 4.86788Z" fill="#444F60" stroke="#444F60"/>
<path d="M12 19.9294C11.9736 19.9294 11.9523 19.908 11.9523 19.8817V19.1798C11.9523 19.1534 11.9736 19.1321 12 19.1321C12.0264 19.1321 12.0477 19.1534 12.0477 19.1798V19.8817C12.0477 19.908 12.0264 19.9294 12 19.9294Z" fill="#444F60" stroke="#444F60"/>
<path d="M6.88927 6.95736L6.39328 6.46053L6.39298 6.46023C6.37484 6.44209 6.37468 6.41205 6.39313 6.39368L6.39313 6.39368L6.39452 6.39228C6.40231 6.38447 6.41287 6.37955 6.42681 6.37955C6.44072 6.37955 6.45246 6.3845 6.4616 6.39351C6.46165 6.39357 6.46171 6.39362 6.46177 6.39368L6.95736 6.88928C6.9755 6.90742 6.97566 6.93745 6.95722 6.95582L6.95721 6.95582L6.95512 6.95792C6.94679 6.96632 6.93562 6.97101 6.92332 6.97101C6.9094 6.97101 6.89795 6.96601 6.88935 6.95744C6.88932 6.95741 6.8893 6.95739 6.88927 6.95736Z" fill="#444F60" stroke="#444F60"/>
<path d="M17.0428 17.0442L17.0428 17.0442L17.0442 17.0428C17.052 17.035 17.0625 17.03 17.0765 17.03C17.0904 17.03 17.1021 17.035 17.1112 17.044C17.1113 17.0441 17.1114 17.0441 17.1114 17.0442L17.607 17.5398L17.951 17.1958L17.607 17.5398C17.6252 17.5579 17.6253 17.5879 17.6069 17.6063L17.6069 17.6063L17.6048 17.6084C17.5978 17.6154 17.5873 17.6207 17.573 17.6207C17.559 17.6207 17.5475 17.6156 17.5389 17.607L17.0426 17.1107C17.0245 17.0926 17.0243 17.0625 17.0428 17.0442Z" fill="#444F60" stroke="#444F60"/>
<path d="M4.82019 12.0477H4.1183C4.09195 12.0477 4.07061 12.0264 4.07061 12C4.07061 11.9737 4.09195 11.9523 4.1183 11.9523H4.82103C4.84738 11.9523 4.86872 11.9737 4.86872 12C4.86872 12.0259 4.84788 12.0477 4.82019 12.0477Z" fill="#444F60" stroke="#444F60"/>
<path d="M19.8817 12.0477H19.179C19.1526 12.0477 19.1313 12.0264 19.1313 12C19.1313 11.9737 19.1526 11.9523 19.179 11.9523H19.8817C19.9081 11.9523 19.9294 11.9737 19.9294 12C19.9294 12.0269 19.9084 12.0477 19.8817 12.0477Z" fill="#444F60" stroke="#444F60"/>
<path d="M7.31007 16.6899L6.95652 17.0435C6.97667 17.0636 6.9745 17.0937 6.95806 17.11L6.95736 17.1107L6.46107 17.607L6.79601 17.942L6.46107 17.607C6.45245 17.6156 6.44098 17.6207 6.42703 17.6207C6.42024 17.6207 6.4141 17.6194 6.40894 17.6173C6.40413 17.6153 6.39911 17.6123 6.39382 17.607C6.37368 17.5869 6.37584 17.5568 6.39228 17.5405L6.39298 17.5398L6.88927 17.0435C6.90715 17.0256 6.93741 17.0244 6.95722 17.0442L7.31007 16.6899ZM7.31007 16.6899C7.52409 16.9039 7.52494 17.2511 7.31091 17.4643M7.31007 16.6899L7.31091 17.4643M7.31091 17.4643L7.3109 17.4643L7.31091 17.4643Z" fill="#444F60" stroke="#444F60"/>
<path d="M17.9597 6.04027L17.6062 6.39383C17.6263 6.41398 17.6241 6.444 17.6077 6.46037L17.607 6.46107L17.1118 6.9563C17.1014 6.96639 17.0887 6.97101 17.0767 6.97101C17.0699 6.97101 17.0637 6.96972 17.0586 6.96763C17.0538 6.96568 17.0488 6.96265 17.0435 6.95736C17.0233 6.93721 17.0255 6.90719 17.0419 6.89082L17.0419 6.89082L17.0426 6.89012L17.5389 6.39383C17.5568 6.37595 17.5871 6.37479 17.6069 6.39452L17.9597 6.04027ZM17.9597 6.04027C18.1737 6.25429 18.1746 6.60145 17.9606 6.81462M17.9597 6.04027C17.7457 5.8271 17.3994 5.82625 17.1854 6.04027L17.9606 6.81462M17.9606 6.81462L17.9606 6.81462L17.9606 6.81462ZM17.9606 6.81462L17.4643 7.31092C17.3573 7.41708 17.2165 7.47101 17.0767 7.47101C16.9368 7.47101 16.7969 7.41793 16.6899 7.31092L17.9606 6.81462Z" fill="#444F60" stroke="#444F60"/>
</svg>
