<svg xmlns="http://www.w3.org/2000/svg" viewBox="0 0 500 500"><g><g><g><polygon fill="#bf3030" points="365.2 261.2 365.2 165.2 90 165.2 90 261.2 314 261.2 314 331.6 326.8 331.6 326.8 274 410 274 410 261.2 365.2 261.2" /><path fill="#3062bf" d="M131.6,270.8a32,32,0,1,0,32,32A32,32,0,0,0,131.6,270.8Zm0,51.2a19.2,19.2,0,1,1,19.2-19.2A19.22,19.22,0,0,1,131.6,322Z" /><path fill="#3062bf" d="M198.8,270.8a32,32,0,1,0,32,32A32,32,0,0,0,198.8,270.8Zm0,51.2A19.2,19.2,0,1,1,218,302.8,19.22,19.22,0,0,1,198.8,322Z" /><path fill="#3062bf" d="M250,500A250,250,0,0,1,73.22,73.22,248.36,248.36,0,0,1,250,0a9.62,9.62,0,1,1,0,19.23C122.75,19.23,19.23,122.75,19.23,250S122.75,480.77,250,480.77,480.77,377.25,480.77,250A9.62,9.62,0,1,1,500,250,250,250,0,0,1,250,500Z" /></g></g></g></svg>