<svg xmlns="http://www.w3.org/2000/svg" viewBox="0 0 500 500"><g><g><g><path fill="#3062bf" d="M250,500A250,250,0,0,1,73.22,73.22,248.36,248.36,0,0,1,250,0a9.62,9.62,0,1,1,0,19.23C122.75,19.23,19.23,122.75,19.23,250S122.75,480.77,250,480.77,480.77,377.25,480.77,250A9.62,9.62,0,1,1,500,250,250,250,0,0,1,250,500Z"/><polygon fill="#3062bf" points="321.11 152.22 321.11 270.74 137.41 270.74 145.82 228.55 90 217.41 148.9 213.2 172.96 211.48 149.97 207.93 95.93 199.63 152.46 195.6 178.89 193.7 153.59 189.79 101.85 181.85 156.73 174.15 161.11 152.22 321.11 152.22" /><path fill="#bf3030" d="M362.59,181.85H321.11v88.89H137.41l-5.93,29.63h33.46c7.47-9.13,19-15.13,31-15.13h.09c9.49,0,18.08,3.93,23.57,10.71a26.34,26.34,0,0,1,2.91,4.42h88.18c7.48-8.92,18.88-14.77,30.73-14.77h.09c9.49,0,18.09,3.93,23.57,10.71a27.2,27.2,0,0,1,2.73,4.06H410V233.82Zm26.67,62.22H330v-47.4h29.63l29.63,37.15Z" /><path fill="#bf3030" d="M217.92,300.37a23.23,23.23,0,0,0-1.39-1.91c-4.73-5.84-12.19-9.2-20.47-9.22H196a36.6,36.6,0,0,0-25.72,11.13A34,34,0,0,0,161.11,317c-1.66,7.86,0,15.37,4.67,21.15s12.19,9.2,20.47,9.22h.08c16.27,0,31.58-12.2,34.87-27.8A25.08,25.08,0,0,0,217.92,300.37Zm-8.32,16.79c-2.1,10-12.75,18.4-23.27,18.4h-.05c-4.77,0-8.78-1.73-11.28-4.83a13.16,13.16,0,0,1-2.29-11.24c2.1-10,12.76-18.4,23.27-18.4H196c4.77,0,8.78,1.73,11.29,4.83a12.36,12.36,0,0,1,2.64,7.87A16.52,16.52,0,0,1,209.6,317.16Z" /><path fill="#bf3030" d="M363.15,300.37a18.53,18.53,0,0,0-1.14-1.54c-4.72-5.85-12.18-9.21-20.47-9.23h-.08a36.51,36.51,0,0,0-25.35,10.77,34.08,34.08,0,0,0-9.52,17c-1.66,7.86,0,15.37,4.67,21.15s12.19,9.2,20.47,9.22h.08c16.27,0,31.58-12.2,34.87-27.8A25,25,0,0,0,363.15,300.37Zm-8.06,17.15c-2.11,10-12.76,18.4-23.28,18.4h-.05c-4.77,0-8.77-1.73-11.28-4.83a13.15,13.15,0,0,1-2.29-11.24c2.11-10,12.76-18.4,23.27-18.4h.05c4.77,0,8.78,1.73,11.29,4.83A13.19,13.19,0,0,1,355.09,317.52Z"/></g></g></g></svg>