<svg xmlns="http://www.w3.org/2000/svg" viewBox="0 0 500 500"><g><g><g><path fill="#3062bf" d="M250,500A250,250,0,0,1,73.22,73.22,248.36,248.36,0,0,1,250,0a9.62,9.62,0,1,1,0,19.23C122.75,19.23,19.23,122.75,19.23,250S122.75,480.77,250,480.77,480.77,377.25,480.77,250A9.62,9.62,0,1,1,500,250,250,250,0,0,1,250,500Z"/><polygon fill="#3062bf" points="377.45 161.94 377.45 180.05 323.11 180.05 298.96 252.51 87.64 252.51 105.75 198.17 301.55 198.17 317.07 161.94 377.45 161.94" /><line fill="none" x1="182.21" y1="300.81" x2="182.2" y2="300.81" /><line fill="none" x1="338.91" y1="300.81" x2="186.56" y2="300.81" /><line fill="none" x1="362.36" y1="300.81" x2="362.34" y2="300.81" /><line fill="none" x1="163.12" y1="300.81" x2="163.1" y2="300.81" /><line fill="none" x1="144.09" y1="300.81" x2="141.97" y2="300.81" /><path fill="#bf3030" d="M163.1,300.8h0Zm18.59-1q.27.49.51,1h0C182.05,300.46,181.88,300.12,181.69,299.79Zm-18.59,1h0Zm18.59-1q.27.49.51,1h0C182.05,300.46,181.88,300.12,181.69,299.79Zm-37.68,1h0a21.1,21.1,0,0,1,4.16-5.89A20.65,20.65,0,0,0,144,300.81Zm19.09,0h0Zm18.59-1q.27.49.51,1h0C182.05,300.46,181.88,300.12,181.69,299.79Zm180.66,1h0Zm33.21-120.75H329.14v90.57H142v25.67a25.12,25.12,0,0,1,44.59,4.52H338.91a25.12,25.12,0,0,1,46.88,0h21.85V222.32Zm3,63.4H344.24V189.11H386.5l12.08,36.23ZM362.35,300.8h0Z"/><path fill="#bf3030" d="M381.44,300.81a21.12,21.12,0,0,0-38.18,0,20.88,20.88,0,0,0-2,9,21.13,21.13,0,1,0,42.26,0A20.88,20.88,0,0,0,381.44,300.81Zm-19.09,18.1a9.06,9.06,0,0,1-.46-18.1h.92a9.06,9.06,0,0,1-.46,18.1Z" /><path fill="#bf3030" d="M182.19,300.81a21.12,21.12,0,0,0-38.18,0,20.88,20.88,0,0,0-2,9,21.13,21.13,0,1,0,42.26,0A20.88,20.88,0,0,0,182.19,300.81Zm-19.09,18.1a9.06,9.06,0,0,1-.46-18.1h.92a9.06,9.06,0,0,1-.46,18.1Z" /></g></g></g></svg>