<svg xmlns="http://www.w3.org/2000/svg" viewBox="0 0 500 500"><g><g><g><path fill="#bf3030" d="M377.14,281.92a10.88,10.88,0,0,1-2.54,7.3,11.58,11.58,0,0,1-15,2.81c-.81-.65-4.65-3.79-24.48-19.89a4.07,4.07,0,0,0-5.14,6.32c9.27,7.54,18,15.62,27.94,22.27a13.19,13.19,0,0,1,3,19.18c-8.5,10.92-20.41.93-28.08-5.2l-19.37-15.5a4.06,4.06,0,0,0-6,1,4.15,4.15,0,0,0,.89,5.33l13.73,11c6.68,5.34,18.86,10.75,20.37,20.11a12.21,12.21,0,0,1-10.92,13.94,11.92,11.92,0,0,1-9.13-3L292,320.88a4.07,4.07,0,0,0-5.3,6.17l24.86,21.78a6.63,6.63,0,0,1,1.08,8.53,5.82,5.82,0,0,1-3.13,2.44,15,15,0,0,0-14.76-12.87,14.46,14.46,0,0,0-7.29,1.9l.43-2.38a2.83,2.83,0,0,0,.11-.87,14.86,14.86,0,0,0-14.86-14.86,14.59,14.59,0,0,0-13,7.67l-4.6-2.21v-6.32c0-7.79-5.83-14.54-13.35-15.3-6.1-.59-11.61,2.6-14.48,8.38l-4.59-2.22v-6.91c0-7.57-5.3-14.16-12.38-15.3a14.93,14.93,0,0,0-15.45,7.4A48.61,48.61,0,0,1,182,289.54a58.44,58.44,0,0,0-25.83-25.83L97.09,234.2c-.54-.38-5-3.95-6.54-12.75-2.06-11.25.7-31.84,25.07-66.26A11,11,0,0,1,123,150.7a11.43,11.43,0,0,1,8.05,2.11c29.35,22.54,67.93,46.75,85,33.89,21.08-15.79,51-25.08,65.12-11,1.14,1.14,2.27,2.32,3.52,3.57-8.06-.87-18-1.84-28.65.27-13.89,2.75-26.59,12.43-34.8,26.53-5.22,9.05-9,20.35-6.54,30.83,2.58,11,14.57,19.54,25.86,16.68,13.14-3.34,13.46-18.92,17.11-29.44,8.85-25.56,38.85-8.27,53.12,1.28,11.14,7.46,21.24,16.15,31.83,24.32q8.05,6.21,16.13,12.36c5,3.79,11.18,7.3,15.27,12.06A12.58,12.58,0,0,1,377.14,281.92Z"/><path fill="#3062bf" d="M410,183.78a23,23,0,0,1-.38,4.43,29.46,29.46,0,0,1-4.49,12c-9.59,14.3-26.43,22.7-38.74,34.48-3.14,3-6.3,6.34-10.15,8.44-5.29,2.91-10.36-.81-14.68-3.76-16.86-11.51-30.84-26.44-50.64-33.23-6.82-2.34-14.17-3.65-21.27-2.39a27.31,27.31,0,0,0-13.93,6.81c-4.23,4.09-5.78,10.79-7.15,16.33-.81,3.29-1.29,6.66-2.36,9.88-1.47,4.42-5.4,10.26-10.6,10.27-5.92,0-11-5.65-12.71-10.89-2.16-6.43,0-16.65,5.46-26,7-12.11,17.67-20.37,29.35-22.7a60.5,60.5,0,0,1,11.78-1.13c19.59,0,41.32,7.79,55.12-10.81l42.16-42.16a6.54,6.54,0,0,1,8.75-.43C385.9,141.14,410,162.65,410,183.78Z"/><path fill="#3062bf" d="M301.48,361.8a6.33,6.33,0,0,1-.16,1.29,4.57,4.57,0,0,1-.76,2,6.59,6.59,0,0,1-5.84,3.46A6.75,6.75,0,0,1,288,361.8c0-7.87,11.82-9,13.4-1.25A8.79,8.79,0,0,1,301.48,361.8Z" /><path fill="#3062bf" d="M279.48,345.22c.14,3.68-1.16,8.13-1.67,10.92-1,5.65-3.24,12.41-10.11,12.41a9,9,0,0,1-7.78-13.4c2.71-4.83,6.42-16.32,13.19-16.32C277.88,338.83,279.35,341.67,279.48,345.22Z" /><path fill="#3062bf" d="M215,313.81v21.77a5.93,5.93,0,0,1-5.94,5.95c-9.63,0-7.78-17.66-7.57-23.68.12-3.46-.55-7.4,2.38-9.88C208.62,303.94,215,308.14,215,313.81Z" /><path fill="#3062bf" d="M247.44,329.86v15.07c0,8.47-13.53,10.26-17.13,3.36-2.83-5.41,2.11-15.6,4.21-20.75C237.41,320.43,247.44,321.92,247.44,329.86Z" /><polygon fill="#bf3030" points="350.61 244.2 350.06 244.2 350.12 244.14 350.12 244.09 350.28 244.14 350.34 244.14 350.61 244.2" /><polygon fill="#bf3030" points="350.01 244.2 350.01 244.14 350.34 244.14 350.61 244.2 350.01 244.2" /><path fill="#bf3030" d="M350.12,244.09l-.05-.05-.06.1v.06h.06l.05-.06h.16v0Zm.22,0h-.06v0h-.16l-.05-.05-.06.1v.06h.6Zm-.22,0-.05-.05-.06.1v.06h.06l.05-.06h.16v0Z" /><path fill="#3062bf" d="M250,500A250,250,0,0,1,73.22,73.22,248.36,248.36,0,0,1,250,0a9.62,9.62,0,1,1,0,19.23C122.75,19.23,19.23,122.75,19.23,250S122.75,480.77,250,480.77,480.77,377.25,480.77,250A9.62,9.62,0,1,1,500,250,250,250,0,0,1,250,500Z" /></g></g></g></svg>