<svg xmlns="http://www.w3.org/2000/svg" viewBox="0 0 500 500"><g><g><g><path fill="#3062bf" d="M250,500A250,250,0,0,1,73.22,73.22,248.36,248.36,0,0,1,250,0a9.62,9.62,0,1,1,0,19.23C122.75,19.23,19.23,122.75,19.23,250S122.75,480.77,250,480.77,480.77,377.25,480.77,250A9.62,9.62,0,1,1,500,250,250,250,0,0,1,250,500Z"/><path fill="#bf3030" d="M391.54,305.38V230.12l-49.23-54H286.92V305.38H90V330h17.94a34.77,34.77,0,0,1,62.59,0h122a34.77,34.77,0,0,1,62.59,0H410V305.38ZM370,240.76H308.46V191.53h30.77L370,230.12Z" /><path fill="#3062bf" d="M187,166a23.52,23.52,0,0,0,1.47-8.31,24.62,24.62,0,1,0-49.23,0,24.32,24.32,0,0,0,1.54,8.49v30h4.62A13.85,13.85,0,1,1,131.51,210h-9.23A23.08,23.08,0,1,0,150,187.36V178a24.44,24.44,0,0,0,13.85,4.31A24,24,0,0,0,177,178.44l13.5,126.94h12.39l-12-113.65,84.6,113.65h11.49v-5.21Zm-11.7-3.76A12.22,12.22,0,0,1,163.82,170,12.31,12.31,0,1,1,174,150.81v.06a11.89,11.89,0,0,1,2.1,6.83A12.32,12.32,0,0,1,175.26,162.25Z"/><path fill="#bf3030" d="M166,330a30.77,30.77,0,1,0,4,15.15A30.78,30.78,0,0,0,166,330Zm-26.78,33.61a18.45,18.45,0,1,1,18.46-18.46A18.48,18.48,0,0,1,139.23,363.61Z" /><path fill="#bf3030" d="M350.63,330a30.77,30.77,0,1,0,4,15.15A30.81,30.81,0,0,0,350.63,330Zm-26.78,33.61a18.45,18.45,0,1,1,18.46-18.46A18.49,18.49,0,0,1,323.85,363.61Z" /></g></g></g></svg>