<svg xmlns="http://www.w3.org/2000/svg" viewBox="0 0 500 500"><g><g><g><path fill="#3062bf" d="M250,500A250,250,0,0,1,73.22,73.22,248.36,248.36,0,0,1,250,0a9.62,9.62,0,1,1,0,19.23C122.75,19.23,19.23,122.75,19.23,250S122.75,480.77,250,480.77,480.77,377.25,480.77,250A9.62,9.62,0,1,1,500,250,250,250,0,0,1,250,500Z" /><polygon fill="#3062bf" points="318.02 318.68 317.96 318.74 275.2 318.74 238.81 275.75 248.04 267.94 216.64 230.86 123.22 309.93 90 270.68 263.52 123.8 296.74 163.05 223.66 224.92 255.05 262.01 263.79 254.61 318.02 318.68" /><path fill="#bf3030" d="M152,348.86h0Zm18.59-1q.27.5.51,1h0C170.93,348.52,170.76,348.18,170.57,347.85Zm-18.59,1h0Zm18.59-1q.27.5.51,1h0C170.93,348.52,170.76,348.18,170.57,347.85Zm-37.68,1h0a21.1,21.1,0,0,1,4.16-5.89A20.65,20.65,0,0,0,132.89,348.87Zm19.09,0h0Zm18.59-1q.27.5.51,1h0C170.93,348.52,170.76,348.18,170.57,347.85Zm180.66,1h0Zm33.21-120.75H318v90.57H130.85v25.67a25.12,25.12,0,0,1,44.59,4.52H327.79a25.12,25.12,0,0,1,46.88,0h21.85V270.38Zm3,63.4H333.12V237.17h42.26l12.08,36.23Zm-36.23,57.35h0Z"/><path fill="#bf3030" d="M370.32,348.87a21.12,21.12,0,0,0-38.18,0,20.88,20.88,0,0,0-2,9,21.13,21.13,0,1,0,42.26,0A20.88,20.88,0,0,0,370.32,348.87ZM351.23,367a9.06,9.06,0,0,1-.46-18.1h.92a9.06,9.06,0,0,1-.46,18.1Z" /><path fill="#bf3030" d="M171.07,348.87a21.12,21.12,0,0,0-38.18,0,20.88,20.88,0,0,0-2,9,21.13,21.13,0,1,0,42.26,0A20.88,20.88,0,0,0,171.07,348.87ZM152,367a9.06,9.06,0,0,1-.46-18.1h.92A9.06,9.06,0,0,1,152,367Z" /></g></g></g></svg>