<svg xmlns="http://www.w3.org/2000/svg" viewBox="0 0 500 500"><g><g><g><path fill="#bf3030" d="M183.12,134.66v23.26H125l-11.63,40.72v75.6h39.13a23.6,23.6,0,0,1,43.87,0H263a23.6,23.6,0,0,1,43.87,0h2.66a23.6,23.6,0,0,1,43.87,0h15.87V245.16h17.44V134.66ZM174.39,219H122.05V201.54l11.63-34.89h40.71Z"/><path fill="#bf3030" d="M352,281.81a10.92,10.92,0,0,0-.1-1.15,20.79,20.79,0,0,0-1.87-6.42h.06a20.6,20.6,0,0,0-37.33,0h.06a20.73,20.73,0,0,0-1.71,5.29c-.06.38-.12.75-.16,1.13s-.06.49-.07.74,0,.34,0,.51c0,.35,0,.7,0,1.06A20.62,20.62,0,0,0,352,283C352,282.58,352,282.19,352,281.81Zm-20.58,9.62a8.47,8.47,0,1,1,8.47-8.46A8.47,8.47,0,0,1,331.42,291.43Z"/><path fill="#bf3030" d="M305.48,281.91c0-.17,0-.34,0-.51s0-.5-.07-.74-.1-.75-.16-1.13a20.73,20.73,0,0,0-1.71-5.29h.06a20.6,20.6,0,0,0-37.33,0h.06a20.79,20.79,0,0,0-1.87,6.42,10.92,10.92,0,0,0-.1,1.15c0,.38,0,.77,0,1.16a20.62,20.62,0,0,0,41.23,0C305.51,282.61,305.5,282.26,305.48,281.91Zm-20.58,9.52a8.47,8.47,0,1,1,8.46-8.46A8.48,8.48,0,0,1,284.9,291.43Z"/><path fill="#bf3030" d="M195,281.81c0-.39-.05-.77-.1-1.15a20.79,20.79,0,0,0-1.87-6.42h.06a20.6,20.6,0,0,0-37.34,0h.07a20.73,20.73,0,0,0-1.71,5.29c-.06.38-.12.75-.16,1.13s-.06.49-.07.74,0,.34,0,.51c0,.35,0,.7,0,1.06A20.62,20.62,0,0,0,195,283C195,282.58,195,282.19,195,281.81Zm-20.58,9.62a8.47,8.47,0,1,1,8.47-8.46A8.48,8.48,0,0,1,174.39,291.43Z" /><path fill="#3062bf" d="M371.18,330.22,381,312.73h29a35.14,35.14,0,0,0-61,0H151a35.14,35.14,0,0,0-61,0h29l9.78,17.49L119,347.66H90a35.15,35.15,0,0,0,61,0H349a35.15,35.15,0,0,0,61,0H381Zm-22.17,3H151a3,3,0,0,1-3-3,3,3,0,0,1,3-3H349a3,3,0,0,1,3,3A3.05,3.05,0,0,1,349,333.26Z"/><path fill="#3062bf" d="M250,500A250,250,0,0,1,73.22,73.22,248.36,248.36,0,0,1,250,0a9.62,9.62,0,1,1,0,19.23C122.75,19.23,19.23,122.75,19.23,250S122.75,480.77,250,480.77,480.77,377.25,480.77,250A9.62,9.62,0,1,1,500,250,250,250,0,0,1,250,500Z" /></g></g></g></svg>