<svg xmlns="http://www.w3.org/2000/svg" viewBox="0 0 500 500"><g><g><g><path fill="#3062bf" d="M250,500A250,250,0,0,1,73.22,73.22,248.36,248.36,0,0,1,250,0a9.62,9.62,0,1,1,0,19.23C122.75,19.23,19.23,122.75,19.23,250S122.75,480.77,250,480.77,480.77,377.25,480.77,250A9.62,9.62,0,1,1,500,250,250,250,0,0,1,250,500Z" /><path fill="#bf3030" d="M408.23,127.86l-1.93-7.13-30.95,31-21.05-5.92-6-21.12,31-30.94-7.14-1.93a51.33,51.33,0,0,0-63.59,60.56l-73.94,73.93-6,6.05-76.24,76.24a51.33,51.33,0,0,0-60.56,63.59l1.93,7.13,30.94-30.95,21.12,6,5.92,21.05-31,30.95,7.14,1.93a51.33,51.33,0,0,0,63.59-60.56l76.24-76.24,6.05-6,73.93-73.94a51.33,51.33,0,0,0,60.56-63.59Zm-19.29,43.71a43,43,0,0,1-41.48,11l-2.39-.64L182,345.07l.64,2.39a42.76,42.76,0,0,1-44.79,53.85l23.45-23.45-8.56-30.49-30.56-8.64L98.69,362.19a42.76,42.76,0,0,1,53.85-44.79l2.39.64L318,154.93l-.64-2.39a42.76,42.76,0,0,1,44.79-53.85l-23.46,23.45,8.64,30.55,30.49,8.57,23.46-23.45A43,43,0,0,1,388.94,171.57Z" /><path fill="#3062bf" d="M392.83,348.26l-63.49-63.49,15.12-15.12-6-6-15.12,15.12-18.11,18.11-31.44-31.44-6.05,6,31.45,31.45L281,321.05l-15.12,15.12,6,6L287,327.09l63.49,63.49a29.93,29.93,0,0,0,42.33-42.32Zm-6.05,36.28a21.41,21.41,0,0,1-30.23,0l-63.49-63.49,30.23-30.24,63.49,63.49A21.4,21.4,0,0,1,386.78,384.54Z" /><path fill="#3062bf" d="M161.44,153.08l8.33-8.33L127,94.12,96.37,124.7,147,167.53l8.4-8.4,73.18,73.18,6-6.05Zm-14.93,2.84L109,124.18l17.43-17.44,31.75,37.52Z" /></g></g></g></svg>