<svg width="28" height="32" viewBox="0 0 28 32" fill="none" xmlns="http://www.w3.org/2000/svg">
<path fill-rule="evenodd" clip-rule="evenodd" d="M14 0.25C14.2812 0.25 14.4148 0.313281 15.2304 0.875781C15.7297 1.21328 16.489 1.69844 16.9179 1.94453C17.3469 2.18359 18.1062 2.58437 18.6054 2.81641C19.1047 3.05547 19.8359 3.37188 20.2226 3.51953C20.6094 3.66016 21.214 3.87109 21.5586 3.97656C21.9031 4.08203 22.557 4.25078 23 4.34922C23.4429 4.44766 24.0476 4.56719 24.3359 4.60234C24.6242 4.64453 25.2992 4.70781 25.8265 4.73594C26.6211 4.77813 26.8179 4.80625 26.9726 4.92578C27.0781 5.00313 27.2328 5.15781 27.3172 5.26328C27.4648 5.46016 27.4648 5.47422 27.4859 11.4156C27.5 17.1109 27.4929 17.4203 27.3523 18.5312C27.275 19.1711 27.1133 20.057 27.0008 20.5C26.8812 20.943 26.6773 21.5969 26.5367 21.9414C26.4031 22.2859 26.15 22.8273 25.9883 23.1367C25.8195 23.4461 25.482 23.9805 25.2359 24.325C24.9969 24.6695 24.5047 25.2531 24.1601 25.6187C23.8156 25.9914 23.2601 26.5117 22.9297 26.7859C22.5992 27.0602 22.0156 27.5102 21.6289 27.7844C21.2422 28.0586 20.4828 28.5508 19.9414 28.8742C19.4 29.2047 18.3523 29.7742 17.6211 30.1469C16.8898 30.5195 15.8281 31.0328 15.2656 31.2859C14.6258 31.5812 14.1547 31.757 14 31.75C13.8453 31.75 13.3601 31.5672 12.6992 31.2719C12.1156 31.0047 11.1383 30.5336 10.5195 30.2242C9.90076 29.9078 9.00076 29.4297 8.5156 29.1484C8.03045 28.8672 7.30623 28.4172 6.89841 28.143C6.4906 27.8758 5.89295 27.4469 5.56248 27.1938C5.23201 26.9406 4.57107 26.3359 4.08591 25.8508C3.60076 25.3656 3.0031 24.6766 2.76404 24.332C2.51794 23.9875 2.18044 23.4461 2.01169 23.1367C1.84998 22.8273 1.59685 22.2859 1.46326 21.9414C1.32263 21.5969 1.11873 20.943 0.999194 20.5C0.886694 20.057 0.724976 19.1711 0.647632 18.5312C0.499976 17.4133 0.492944 17.1461 0.514038 11.4156C0.535132 5.58672 0.535132 5.46016 0.675757 5.27031C0.753101 5.17188 0.907789 5.01719 1.01326 4.93281C1.18904 4.80625 1.35779 4.77813 2.17341 4.73594C2.70076 4.70781 3.37576 4.64453 3.66404 4.60234C3.95232 4.56016 4.49373 4.46172 4.85935 4.39141C5.22498 4.31406 5.85779 4.15938 6.2656 4.03984C6.67341 3.92031 7.44685 3.64609 7.98826 3.43516C8.52966 3.21719 9.34529 2.85859 9.80232 2.63359C10.2523 2.40156 10.9625 2.01484 11.3773 1.76875C11.7992 1.51562 12.4812 1.07266 12.9101 0.784375C13.5922 0.320312 13.7258 0.25 14 0.25ZM12.207 7.18984C11.8976 7.24609 11.3773 7.39375 11.0469 7.50625C10.7164 7.62578 10.2242 7.82969 9.95701 7.97031C9.68982 8.10391 9.27498 8.34297 9.04295 8.49766C8.81091 8.65234 8.52966 8.85625 8.41013 8.94766C8.2906 9.04609 7.93904 9.37656 7.6156 9.69297C7.29216 10.0094 6.8492 10.5367 6.6242 10.8672C6.3992 11.1977 6.10388 11.6898 5.97029 11.957C5.82966 12.2242 5.63279 12.6883 5.52732 12.9766C5.42888 13.2648 5.28123 13.7711 5.20388 14.1016C5.13357 14.432 5.04919 15.093 5.0281 15.5781C4.99294 16.232 5.01404 16.668 5.09841 17.2656C5.16873 17.7086 5.32341 18.3906 5.44998 18.7773C5.58357 19.1641 5.8156 19.7336 5.97029 20.043C6.12498 20.3523 6.42029 20.8516 6.63123 21.1469C6.83513 21.4422 7.20779 21.8992 7.46091 22.1594C7.71404 22.4195 8.07263 22.7641 8.26951 22.9258C8.45935 23.0945 8.84607 23.3687 9.11326 23.5445C9.38045 23.7133 9.80935 23.9594 10.0625 24.0859C10.3156 24.2125 10.8359 24.4164 11.2226 24.55C11.6094 24.6766 12.2914 24.8313 12.7344 24.9016C13.332 24.9859 13.7679 25.007 14.4219 24.9719C14.907 24.9508 15.5679 24.8664 15.8984 24.7961C16.2289 24.7188 16.7351 24.5711 17.0234 24.4727C17.3117 24.3672 17.7687 24.1703 18.0429 24.0297C18.3172 23.8961 18.8023 23.6008 19.1328 23.3758C19.4633 23.1508 19.9906 22.7078 20.307 22.3844C20.6234 22.0609 20.9539 21.7023 21.0523 21.5898C21.1437 21.4773 21.3476 21.1891 21.5023 20.957C21.657 20.725 21.8961 20.3172 22.0297 20.043C22.1703 19.7687 22.3672 19.3117 22.4726 19.0234C22.5711 18.7352 22.7187 18.2289 22.7961 17.8984C22.8664 17.568 22.9508 16.907 22.9719 16.4219C23.007 15.768 22.9859 15.332 22.9015 14.7344C22.8312 14.2914 22.6765 13.6094 22.55 13.2227C22.4164 12.8359 22.1984 12.2805 22.0508 11.9922C21.9031 11.7039 21.657 11.275 21.5023 11.043C21.3476 10.8109 21.0875 10.4664 20.9258 10.2695C20.764 10.0797 20.4195 9.71406 20.1594 9.46094C19.8992 9.20781 19.4422 8.83516 19.1469 8.63125C18.8515 8.42031 18.3523 8.125 18.0429 7.97031C17.7336 7.81563 17.164 7.58359 16.7773 7.45C16.3906 7.32344 15.7437 7.16875 15.3359 7.1125C14.9281 7.04922 14.2953 7.00703 13.9297 7.01406C13.564 7.02109 13.1492 7.03516 13.0156 7.04922C12.882 7.06328 12.5164 7.12656 12.207 7.18984ZM17.4804 12.6531C17.6703 12.6742 17.9094 12.7445 18.0008 12.8148C18.0922 12.8852 18.2258 13.0188 18.3031 13.1172C18.3734 13.2156 18.4508 13.4195 18.4789 13.5742C18.5 13.7289 18.4859 13.968 18.4367 14.1016C18.3804 14.2844 17.7125 14.9945 15.8844 16.8227C13.6414 19.0586 13.3742 19.2977 13.1211 19.3398C12.9664 19.368 12.7273 19.368 12.5937 19.3398C12.3969 19.3047 12.0875 19.0305 10.9625 17.9125C9.73904 16.6891 9.57732 16.4922 9.53513 16.2461C9.50701 16.0914 9.50701 15.8523 9.53513 15.7188C9.56326 15.5781 9.69685 15.3672 9.84451 15.2195C9.99216 15.0719 10.2031 14.9383 10.3437 14.9102C10.4773 14.882 10.7164 14.882 10.8711 14.9102C11.1101 14.9523 11.2859 15.0859 12.875 16.668L14.8297 14.7203C15.8984 13.6516 16.8547 12.7375 16.9531 12.6953C17.0515 12.6602 17.2836 12.6391 17.4804 12.6531Z" fill="white"/>
</svg>
