<svg viewBox="0 0 64 64" xmlns="http://www.w3.org/2000/svg"><circle cx="30.9" cy="37.01" r="25.19" fill="#EAEBED"/><g stroke="#0D2D47" stroke-linecap="round" stroke-linejoin="round" stroke-miterlimit="10" stroke-width="2"><g fill="#fff"><rect transform="matrix(.9659 .2588 -.2588 .9659 7.6826 -10.037)" x="29.81" y="12.01" width="24.3" height="24.3"/><rect transform="matrix(.9659 .2588 -.2588 .9659 5.428 -10.97)" x="30.36" y="12.33" width="28.04" height="5.61"/><path d="m47.62 24.71c-0.27 1-1.29 1.59-2.29 1.32l-7.22-1.93c-1-0.27-1.59-1.29-1.32-2.29s1.29-1.59 2.29-1.32l7.22 1.93c0.99 0.26 1.58 1.29 1.32 2.29z"/><rect transform="matrix(.9659 .2588 -.2588 .9659 5.428 -10.97)" x="30.36" y="12.33" width="28.04" height="5.61"/><path d="m47.62 24.71c-0.27 1-1.29 1.59-2.29 1.32l-7.22-1.93c-1-0.27-1.59-1.29-1.32-2.29s1.29-1.59 2.29-1.32l7.22 1.93c0.99 0.26 1.58 1.29 1.32 2.29z"/></g><line x1="45.05" x2="46.86" y1="12.34" y2="5.58" fill="none"/><path d="m46.99 5.74s2.5 2.66 6.18 3.64 6.68 1.79 7.18-0.06-2.5-2.66-6.18-3.64c-3.69-0.99-7.18 0.06-7.18 0.06z" fill="#F9A057"/><path d="m46.83 5.7s-3.49 1.05-7.18 0.06-6.68-1.79-6.18-3.64 3.49-1.05 7.18-0.06c3.69 0.98 6.18 3.64 6.18 3.64z" fill="#F9A057"/></g><g stroke="#0D2D47" stroke-miterlimit="10" stroke-width="2"><path d="m29.25 48.48s8.69 2.33 10.63 2.85c4.83 1.29 6.64-5.47 1.81-6.76-1.93-0.52-3.87-1.04-7.55-2.02-1.1-0.29-2.62-3.81-4.37-4.28-0.78-0.21-4.41-1.18-6.2-1.66s-4.49 0.47-6.1 1.32c-2.52 1.45-8.84 4.87-9.53 5.17 2.42 3.57 7.31 11.59 8.42 13.26 2.49-1.44 3.75-3.08 5.37-2.64 1.62 0.43 16.03 4.3 17.65 4.73 1.47 0.39 11.47-4.78 12.81-5.66 1.29-0.84 8.36-6.23 10.35-8.76-0.49-1.24-2.36-2.2-4.97-2.29-2.49-0.08-4.9 0.78-7.3 3.42l-5.94 1.15" fill="#fff"/><rect transform="matrix(-.866 .5001 -.5001 -.866 45.874 89.491)" x="6.15" y="40.23" width="9.6" height="21.32" fill="#F9A057"/></g><g fill="none" stroke="#BDC0C4" stroke-miterlimit="10" stroke-width="2"><line x1="19.44" x2="5.44" y1="18.96" y2="18.96"/><line x1="21.44" x2="11.44" y1="12.96" y2="12.96"/><line x1="18.44" x2="9.44" y1="24.96" y2="24.96"/></g></svg>