<svg width="32" height="32" viewBox="0 0 32 32" fill="none" xmlns="http://www.w3.org/2000/svg">
<path fill-rule="evenodd" clip-rule="evenodd" d="M15.925 0.00629351C16.5812 4.35114e-05 17.3313 0.0312935 17.575 0.0687935C17.825 0.106294 18.125 0.193794 18.2313 0.256294C18.3438 0.318794 18.475 0.450044 18.525 0.550044C18.5688 0.643794 18.625 0.968794 18.65 1.28129C18.6687 1.59379 18.7313 2.00004 18.7875 2.18754C18.8438 2.37504 18.975 2.70004 19.0812 2.90629C19.1812 3.11254 19.4375 3.46254 19.65 3.67504C19.8625 3.89379 20.1875 4.16254 20.375 4.27504C20.5625 4.38754 20.875 4.53129 21.0625 4.60004C21.325 4.68754 21.5812 4.71879 22.125 4.71879C22.7062 4.71879 22.925 4.69379 23.25 4.58129C23.475 4.50004 23.825 4.33754 24.0312 4.21254C24.2375 4.08754 24.5312 3.86879 24.6875 3.72504C24.8438 3.58129 25.0688 3.42504 25.1875 3.38129C25.35 3.32504 25.475 3.32504 25.6562 3.36879C25.7938 3.40629 26.0438 3.55004 26.2188 3.68754C26.3875 3.83129 26.8062 4.21879 27.15 4.55004C27.4875 4.88129 27.9688 5.39379 28.2125 5.68754C28.5063 6.03129 28.6812 6.29379 28.7062 6.43754C28.7312 6.55629 28.725 6.73754 28.7 6.84379C28.6688 6.95004 28.4875 7.23129 28.2875 7.46879C28.0875 7.70629 27.8562 8.01879 27.775 8.15629C27.6938 8.29379 27.5688 8.57504 27.5 8.78129C27.425 9.00004 27.35 9.39379 27.3312 9.71879C27.3062 10.1438 27.325 10.3875 27.4062 10.7188C27.4688 10.9563 27.6 11.325 27.7062 11.5313C27.825 11.7688 28.0688 12.0813 28.3687 12.375C28.6875 12.6938 28.975 12.9125 29.25 13.0438C29.475 13.1563 29.7938 13.275 29.9688 13.3125C30.1375 13.35 30.4937 13.4063 30.75 13.4375C31.0125 13.4688 31.3125 13.5438 31.4375 13.6125C31.5562 13.6813 31.7 13.8063 31.7563 13.8875C31.8125 13.9625 31.8937 14.2375 31.9312 14.4875C31.9688 14.7313 32 15.4 32 15.9688C32 16.5375 31.9688 17.2188 31.9375 17.4875C31.9 17.75 31.825 18.0625 31.7625 18.175C31.7063 18.2938 31.5688 18.4375 31.4688 18.5C31.3438 18.5688 31.0875 18.625 30.7188 18.65C30.4125 18.6688 30 18.7313 29.8125 18.7875C29.625 18.8438 29.3063 18.9688 29.1063 19.0688C28.9125 19.1688 28.5625 19.425 28.3375 19.6438C28.1062 19.8563 27.8312 20.1875 27.7188 20.375C27.6063 20.5625 27.4563 20.9125 27.3813 21.1563C27.2875 21.475 27.25 21.75 27.25 22.1563C27.25 22.4625 27.2938 22.8875 27.35 23.0938C27.4062 23.3 27.5375 23.6375 27.6437 23.8438C27.7562 24.0438 27.9875 24.3688 28.1688 24.5625C28.3438 24.75 28.5312 25.0125 28.5875 25.1438C28.65 25.2875 28.675 25.45 28.65 25.5813C28.625 25.6875 28.5812 25.8313 28.5562 25.8938C28.525 25.95 28.3062 26.2188 28.0688 26.4875C27.8313 26.75 27.3937 27.2125 27.0875 27.5125C26.7812 27.8063 26.375 28.175 26.1875 28.3313C26 28.4813 25.7812 28.6375 25.7 28.675C25.625 28.7188 25.475 28.75 25.375 28.75C25.275 28.75 25.1187 28.725 25.0312 28.6875C24.9438 28.65 24.6938 28.4688 24.4688 28.2813C24.2437 28.0938 23.9 27.8563 23.7 27.7563C23.5063 27.6563 23.1625 27.5313 22.9375 27.4688C22.7125 27.4125 22.2812 27.3688 21.9688 27.3625C21.5688 27.3625 21.2875 27.4 21 27.4938C20.775 27.5625 20.45 27.7063 20.2812 27.8063C20.1063 27.9063 19.8563 28.0813 19.7188 28.2C19.5812 28.3188 19.3375 28.6125 19.175 28.85C19.0125 29.0875 18.825 29.45 18.75 29.6563C18.6812 29.8625 18.5938 30.3125 18.5562 30.6563C18.5187 31 18.45 31.3563 18.4 31.4563C18.35 31.55 18.2375 31.675 18.1437 31.7375C18.05 31.7938 17.8 31.8813 17.5938 31.9188C17.3687 31.9688 16.725 31.9938 16 31.9938C15.3062 31.9938 14.5938 31.9625 14.3438 31.9125C14.1 31.8688 13.825 31.7813 13.725 31.7125C13.625 31.65 13.5125 31.525 13.4688 31.4375C13.425 31.35 13.375 31.025 13.35 30.7188C13.3313 30.4125 13.2687 30 13.2125 29.8125C13.1562 29.625 13.0187 29.2875 12.9 29.0625C12.775 28.8125 12.5312 28.5 12.2688 28.2375C11.975 27.95 11.7 27.7563 11.375 27.6C11.1187 27.475 10.7375 27.3438 10.5312 27.3063C10.325 27.2688 9.91875 27.25 9.625 27.2688C9.3 27.2875 8.9375 27.3625 8.6875 27.45C8.4625 27.5313 8.1375 27.6813 7.96875 27.7813C7.79375 27.8813 7.5125 28.0938 7.34375 28.25C7.16875 28.4125 6.93125 28.575 6.8125 28.6188C6.65 28.675 6.525 28.675 6.34375 28.6313C6.20625 28.5938 5.95 28.45 5.78125 28.3125C5.60625 28.1688 5.19375 27.7813 4.85 27.45C4.5125 27.1188 4.03125 26.6063 3.7875 26.3125C3.49375 25.9688 3.31875 25.7063 3.29375 25.5625C3.26875 25.4438 3.275 25.2563 3.3 25.1563C3.33125 25.0563 3.5125 24.775 3.7125 24.5313C3.9125 24.2875 4.15 23.9688 4.24375 23.8125C4.33125 23.6563 4.45625 23.375 4.51875 23.1875C4.58125 23 4.65 22.5875 4.66875 22.2813C4.69375 21.8563 4.675 21.6125 4.59375 21.2813C4.53125 21.0375 4.40625 20.6875 4.30625 20.5C4.2125 20.3125 4.0125 20.0125 3.8625 19.8313C3.7125 19.6563 3.45 19.4 3.28125 19.275C3.10625 19.1438 2.8 18.9625 2.59375 18.8688C2.3875 18.775 2.06875 18.6688 1.8875 18.6313C1.7125 18.5938 1.43125 18.5625 1.2625 18.5625C1.0875 18.5625 0.84375 18.5063 0.65625 18.4188C0.48125 18.3375 0.3 18.2063 0.24375 18.1188C0.1875 18.0375 0.10625 17.7625 0.06875 17.5188C0.03125 17.2688 0 16.6 0 16.0313C0 15.4625 0.03125 14.7813 0.06875 14.5125C0.10625 14.25 0.175 13.9375 0.225 13.8313C0.275 13.7188 0.39375 13.575 0.4875 13.5188C0.59375 13.45 0.91875 13.375 1.31875 13.3313C1.675 13.2938 2.15 13.1938 2.375 13.1125C2.6 13.0313 2.94375 12.8688 3.15 12.75C3.35 12.6313 3.66875 12.3625 3.85625 12.1563C4.05 11.95 4.2875 11.6188 4.38125 11.425C4.48125 11.225 4.60625 10.9 4.65625 10.7063C4.70625 10.5063 4.75 10.1063 4.75 9.81254C4.75 9.51879 4.70625 9.11254 4.65 8.90629C4.59375 8.70004 4.4625 8.36254 4.35625 8.15629C4.24375 7.95629 4.0125 7.63129 3.83125 7.43754C3.65625 7.25004 3.46875 6.98754 3.4125 6.86254C3.33125 6.67504 3.325 6.56879 3.375 6.36254C3.40625 6.21254 3.5125 5.99379 3.60625 5.87504C3.7 5.75629 3.99375 5.43129 4.25 5.16254C4.50625 4.89379 4.8875 4.50629 5.09375 4.31254C5.3 4.11254 5.625 3.82504 5.8125 3.67504C6 3.51879 6.21875 3.36254 6.29375 3.32504C6.375 3.28129 6.51875 3.25004 6.625 3.25004C6.725 3.25004 6.88125 3.28129 6.96875 3.31254C7.05625 3.34379 7.30625 3.53129 7.53125 3.71879C7.75625 3.90629 8.1 4.14379 8.29375 4.24379C8.49375 4.34379 8.8375 4.46879 9.0625 4.53129C9.2875 4.58754 9.71875 4.63129 10.0312 4.63754C10.4312 4.63754 10.7125 4.60004 11 4.50629C11.225 4.43754 11.5437 4.29379 11.7188 4.19379C11.8875 4.09379 12.1438 3.91879 12.2812 3.80004C12.4187 3.68129 12.6625 3.38754 12.825 3.15004C12.9875 2.91254 13.175 2.55004 13.25 2.34379C13.3188 2.13754 13.4062 1.68754 13.4438 1.34379C13.4813 1.00004 13.55 0.643794 13.6 0.543793C13.65 0.450043 13.7625 0.325044 13.8562 0.268794C13.95 0.206294 14.1812 0.125044 14.375 0.0812935C14.5625 0.0437935 15.2625 0.00629351 15.9187 0.00629351H15.925ZM14.1625 6.96879C13.8875 7.02504 13.4062 7.15629 13.1 7.25629C12.7938 7.36254 12.2812 7.56879 11.975 7.71879C11.6688 7.86879 11.2 8.13129 10.9438 8.30004C10.6875 8.46879 10.25 8.80629 9.975 9.04379C9.7 9.28129 9.28125 9.70004 9.04375 9.97504C8.8125 10.2438 8.475 10.6813 8.30625 10.9375C8.1375 11.1938 7.875 11.6625 7.725 11.9688C7.575 12.275 7.36875 12.7875 7.2625 13.0938C7.1625 13.4 7.03125 13.8813 6.975 14.1563C6.91875 14.4313 6.85 14.95 6.825 15.3125C6.8 15.675 6.8 16.275 6.825 16.6563C6.85 17.0375 6.91875 17.5688 6.975 17.8438C7.03125 18.1188 7.1625 18.6 7.2625 18.9063C7.36875 19.2125 7.575 19.725 7.725 20.0313C7.875 20.3375 8.1375 20.8063 8.30625 21.0625C8.475 21.3188 8.8125 21.7563 9.05 22.0313C9.2875 22.3063 9.70625 22.725 9.98125 22.9625C10.25 23.1938 10.6875 23.5313 10.9438 23.7C11.2 23.8688 11.6688 24.1313 11.975 24.2813C12.2812 24.4313 12.7938 24.6375 13.1 24.7438C13.4062 24.8438 13.8875 24.975 14.1625 25.0313C14.4375 25.0875 14.9688 25.1563 15.35 25.1813C15.7313 25.2125 16.3313 25.2125 16.6938 25.1813C17.0562 25.1563 17.575 25.0875 17.85 25.0313C18.125 24.975 18.6187 24.8375 18.9438 24.7313C19.2688 24.625 19.8438 24.3813 20.2188 24.1938C20.5938 24 20.9125 23.8188 20.925 23.7813C20.9375 23.7438 20.0375 22.8125 18.9312 21.7063L16.9125 19.6875C16.1625 19.9313 15.7375 20.0313 15.4875 20.0688C15.2312 20.1125 14.7438 20.125 14.35 20.1063C13.9563 20.0813 13.4688 20.0125 13.2063 19.9438C12.9625 19.8688 12.5688 19.725 12.3313 19.6188C12.1 19.5125 11.7438 19.3125 11.5375 19.175C11.3313 19.0375 10.9812 18.75 10.7688 18.5375C10.55 18.3313 10.25 17.9875 10.1 17.7813C9.95625 17.575 9.75 17.2375 9.64375 17.0313C9.54375 16.825 9.3875 16.425 9.29375 16.1375C9.20625 15.8563 9.10625 15.3813 9.075 15.075C9.0375 14.75 9.0375 14.3188 9.06875 14C9.1 13.7063 9.14375 13.3688 9.16875 13.25C9.19375 13.1313 9.25 12.9563 9.29375 12.8563C9.34375 12.7625 9.48125 12.6438 9.6 12.5938C9.76875 12.525 9.85625 12.5125 9.9875 12.5688C10.0875 12.6 10.8062 13.2688 11.5875 14.05L13.0125 15.4688C13.8062 15.3938 14.275 15.325 14.5688 15.275C14.8625 15.225 15.1438 15.1688 15.1938 15.1563C15.2438 15.1438 15.325 14.9938 15.3687 14.8313C15.4125 14.6688 15.4938 14.25 15.5375 13.9063C15.5875 13.5625 15.6313 13.1688 15.6313 13.0313C15.6313 12.7875 15.5875 12.7375 14.1938 11.3438C12.8375 9.98129 12.7563 9.89379 12.7563 9.66879C12.7563 9.54379 12.7875 9.38129 12.8188 9.31254C12.8563 9.24379 12.9625 9.15004 13.0562 9.10629C13.15 9.05629 13.3938 8.98754 13.6 8.95004C13.8063 8.91254 14.1438 8.86254 14.35 8.84379C14.5563 8.82504 14.9938 8.83754 15.3188 8.88129C15.6438 8.91879 16.0938 9.00629 16.3188 9.07504C16.5438 9.14379 16.9188 9.30004 17.1625 9.41879C17.4062 9.53754 17.7688 9.75629 17.975 9.90004C18.1812 10.05 18.5625 10.3938 18.8188 10.6688C19.0875 10.9563 19.4125 11.3875 19.5875 11.6938C19.75 11.9813 19.95 12.4313 20.0312 12.6875C20.1187 12.9438 20.2125 13.3375 20.25 13.5625C20.2875 13.7875 20.3188 14.2125 20.3188 14.5125C20.3188 14.8188 20.275 15.2688 20.225 15.5125C20.175 15.7625 20.0813 16.125 20.0125 16.3125L19.8937 16.6563C23.9062 20.6938 23.9125 20.6938 24.0125 20.55C24.0688 20.4688 24.2 20.2375 24.3 20.0313C24.4062 19.825 24.5938 19.3625 24.7125 19C24.8375 18.6375 24.9813 18.125 25.0312 17.8563C25.0875 17.5938 25.1562 17.075 25.1875 16.7063C25.2125 16.3313 25.2188 15.7375 25.1938 15.375C25.1625 15.0125 25.1125 14.5375 25.0688 14.3125C25.025 14.0875 24.9312 13.6813 24.85 13.4063C24.7688 13.1313 24.6 12.6688 24.4813 12.375C24.3563 12.0813 24.1 11.5875 23.9188 11.2813C23.7313 10.975 23.3937 10.4938 23.175 10.2188C22.9562 9.94379 22.5938 9.55004 22.375 9.34379C22.1562 9.13754 21.7938 8.83129 21.5688 8.65629C21.3438 8.48754 20.9062 8.20004 20.6 8.01254C20.2875 7.83129 19.7563 7.57504 19.4125 7.44379C19.0688 7.30629 18.5625 7.13754 18.2875 7.06879C18.0125 7.00004 17.5625 6.91879 17.2875 6.88129C17.0125 6.84379 16.5938 6.80629 16.35 6.79379C16.1063 6.78129 15.6313 6.79379 15.2875 6.81879C14.9438 6.84379 14.4375 6.91254 14.1625 6.96879Z" fill="white"/>
</svg>
