<svg width="30" height="30" viewBox="0 0 30 30" fill="none" xmlns="http://www.w3.org/2000/svg">
<path fill-rule="evenodd" clip-rule="evenodd" d="M28.5 0C29.6812 0 29.6875 0 30 0.3125V11.6875L29.8438 11.8438C29.6938 12 29.6875 12 28.5 12C27.3188 12 27.3125 12 27.1562 11.8438C27.0375 11.725 27 11.625 27 11.125L26.6063 11.4C26.3938 11.55 25.9625 11.8187 25.6562 11.9937C25.35 12.1687 25.075 12.3125 25.0438 12.3125C25.0188 12.3125 25 11.325 25 10.125C25 7.9875 25 7.9375 25.125 7.90625C25.1938 7.8875 25.3062 7.8 25.375 7.7C25.45 7.60625 25.5063 7.475 25.5063 7.40625C25.5063 7.3375 25.45 7.20625 25.375 7.10625C25.2875 6.98125 25.1938 6.9375 25.0438 6.9375C24.9375 6.9375 24.7188 7.00625 24.5625 7.0875C24.4062 7.175 24.1 7.29375 23.875 7.35C23.5938 7.41875 23.3375 7.44375 23.0312 7.41875C22.7875 7.4 22.45 7.3375 21.9688 7.175L20.0312 9.1125C18.7563 10.3938 18 11.1 17.8125 11.2C17.625 11.2937 17.3875 11.35 17.0938 11.3687C16.8062 11.3812 16.55 11.3562 16.3438 11.2937C16.1562 11.2312 15.9 11.075 15.6938 10.8938C15.4875 10.7125 15.2937 10.4688 15.2062 10.2812C15.1062 10.0562 15.0625 9.85625 15.0625 9.5625C15.0625 9.3375 15.1063 9.01875 15.1625 8.84375C15.2563 8.56875 15.4812 8.31875 17.1875 6.59375C18.2437 5.525 19.1437 4.59375 19.1812 4.5125C19.2188 4.4375 19.25 4.31875 19.25 4.25C19.25 4.18125 19.1812 4.05625 19.0938 3.96875C18.9937 3.86875 18.8687 3.8125 18.7437 3.8125C18.5812 3.8125 18.425 3.94375 16.8438 5.5H13.2812L15.0312 3.74375C15.9937 2.775 16.95 1.8625 17.1562 1.70625C17.3625 1.55625 17.6562 1.36875 17.8125 1.30625C17.9688 1.2375 18.2625 1.1375 18.4688 1.09375C18.775 1.01875 19.6125 1 27 1V0.65625C27.0063 0.375 27.0375 0.275 27.1562 0.15625C27.3062 0 27.3188 0 28.5 0ZM0.30625 18H3.6875L3.84375 18.1562C3.9875 18.3 4 18.3563 4 19.5L4.20625 19.525C4.3125 19.5375 4.68125 19.5812 5.01875 19.6187C5.35 19.6562 5.9125 19.7563 6.26875 19.8375C6.61875 19.925 7.21875 20.1 7.59375 20.2375C7.975 20.375 8.51875 20.5938 9.34375 20.9688L12.3125 21C15.1438 21.0312 15.2937 21.0375 15.5625 21.1625C15.7188 21.2313 15.9688 21.4 16.1187 21.5375C16.2625 21.6688 16.4375 21.8687 16.5 21.9688C16.5688 22.0688 16.6625 22.3375 16.7188 22.5625C16.8062 22.9062 16.8125 23.025 16.75 23.3438C16.7062 23.55 16.6375 23.7937 16.5875 23.8937C16.5375 23.9875 16.3812 24.1938 16.2375 24.35C16.0875 24.5125 15.8313 24.7125 15.3438 24.9688L9.175 25.0312L9.05625 25.1875C8.9875 25.275 8.93125 25.4375 8.9375 25.55C8.9375 25.6937 8.9875 25.7875 9.1125 25.875C9.275 26 9.3625 26.0063 12.2188 26C14.6812 26 15.2188 25.9875 15.5312 25.9C15.7375 25.85 16.0438 25.7313 16.2188 25.6375C16.3875 25.5438 16.6875 25.3125 16.8813 25.125C17.125 24.8875 17.3062 24.6375 17.4625 24.3125C17.5812 24.0562 17.7125 23.6625 17.75 23.4375C17.7812 23.2125 17.7937 22.9062 17.7437 22.4688L23.7812 19.85H24.2812C24.7313 19.8438 24.8188 19.8625 25.125 20.0375C25.35 20.1688 25.5375 20.3375 25.675 20.5375C25.7875 20.7063 25.9125 20.9562 25.95 21.0938C25.9813 21.2313 26 21.4813 25.9813 21.6562C25.9688 21.825 25.8938 22.0812 25.825 22.2188C25.7563 22.3563 25.5875 22.5688 25.4562 22.6938C25.325 22.8188 24.8375 23.1313 24.375 23.3875C23.9125 23.65 21.3813 25.0625 18.75 26.5375C16.1187 28.0063 13.8313 29.2625 13.6562 29.3312C13.4875 29.3937 13.175 29.4625 12.9688 29.475C12.7625 29.4937 10.6875 29.3312 4 28.7188V29.2C4 29.6313 3.98125 29.7062 3.69375 30H0.3125L0 29.6875L0.00625002 18.3062L0.30625 18ZM4.30625 6.5L15.8438 6.49375L15.2188 7.1375C14.8313 7.5375 14.5188 7.91875 14.2188 8.5H11.0312C8.0625 8.49375 7.83125 8.5 7.69375 8.60625C7.59375 8.6875 7.53125 8.81875 7.49375 9.0625C7.4625 9.25 7.3875 9.475 7.31875 9.5625C7.25625 9.65 7.1375 9.76875 7.05625 9.83125C6.975 9.8875 6.75 9.9625 6.5625 9.99375C6.31875 10.0375 6.1875 10.0938 6.10625 10.2C6.00625 10.3313 5.99375 10.4937 6 13.1875L6.15625 13.3438C6.25 13.4438 6.38125 13.5 6.5 13.5C6.6 13.5 6.775 13.5375 6.8875 13.5813C7 13.625 7.16875 13.7625 7.2625 13.8813C7.36875 14.0125 7.45625 14.225 7.49375 14.4375C7.53125 14.6812 7.59375 14.8125 7.69375 14.8938C7.8375 15 8.175 15.0063 14 15.0063C19.8188 15.0063 20.1625 15 20.3 14.8938C20.4062 14.8125 20.4625 14.6812 20.5063 14.4375C20.5312 14.25 20.6063 14.025 20.6688 13.9438C20.7313 13.8625 20.85 13.7437 20.9375 13.6812C21.025 13.6125 21.25 13.5375 21.4375 13.5063C21.6812 13.4688 21.8125 13.4062 21.8937 13.3062C21.9937 13.175 22.0063 13.0063 22 10.3125L21.8438 10.1562C21.7437 10.0625 21.6125 10 21.5 10C21.3937 10 21.2125 9.95 21.0938 9.89375C20.9688 9.83125 20.8687 9.76875 20.875 9.75C20.875 9.73125 21.1875 9.40625 22.2812 8.31875L22.5625 8.38125C22.725 8.425 23.0875 8.4375 24 8.375V16.6875L23.6938 17H4.3125L4 16.6875L4.00625 6.80625L4.30625 6.5ZM8.44375 9.5H14.0312L14.0688 9.89375C14.0938 10.1313 14.1875 10.45 14.3062 10.7188C14.45 11.025 14.625 11.275 14.8938 11.5375C15.1313 11.775 15.4312 11.9938 15.6875 12.1125C15.9062 12.2188 16.275 12.3375 16.5 12.3687C16.775 12.4125 17.0438 12.4125 17.3438 12.375C17.6 12.3313 17.9625 12.2188 18.2313 12.0938C18.5938 11.9187 18.8312 11.7375 20.1562 10.4375L20.2812 10.5688C20.35 10.6375 20.5375 10.75 21 10.9375V12.5625L20.6688 12.7063C20.4875 12.7875 20.2313 12.9625 20.0938 13.1C19.9625 13.2313 19.7812 13.4937 19.5625 14H8.4375L8.29375 13.675C8.2125 13.4938 8.0375 13.2313 7.9 13.1C7.7625 12.9625 7.50625 12.7875 7 12.5625V10.9375L7.325 10.7937C7.50625 10.7125 7.7625 10.5375 7.9 10.4062C8.0375 10.2688 8.2125 10.0125 8.29375 9.83125L8.44375 9.5Z" fill="white"/>
</svg>
