<svg width="29" height="29" viewBox="0 0 29 29" fill="none" xmlns="http://www.w3.org/2000/svg">
<path fill-rule="evenodd" clip-rule="evenodd" d="M14.4887 0.0622987C14.5227 0.0566346 15.276 0.611713 17.7568 2.52617L19.7109 2.25996C20.7871 2.10703 21.6877 1.98808 21.7217 1.98242C21.75 1.98242 22.1125 2.82636 23.2736 5.74902L25.1768 6.51367C26.219 6.93281 27.0742 7.27831 27.0742 7.27831C27.0742 7.27831 26.9496 8.18456 26.5191 11.2998L29 14.5283L28.8131 14.7549C28.7111 14.8795 28.1334 15.5988 26.4512 17.7285L26.7287 19.7279C26.8816 20.8211 27.0063 21.7273 27.0006 21.733C26.9949 21.7387 26.1623 22.0785 25.1484 22.4863C24.1346 22.8941 23.2793 23.2623 23.2453 23.2963C23.2057 23.3359 22.8828 24.1062 22.526 25.0068C22.1691 25.9074 21.8406 26.74 21.7104 27.0459L19.7619 26.7797C18.6914 26.6324 17.7908 26.5135 17.7568 26.5078C17.7229 26.5078 16.9752 27.0629 14.4717 28.983L13.5938 28.309C13.1123 27.9408 12.3816 27.3857 11.2432 26.5078L7.23868 27.0459L7.16505 26.9043C7.1254 26.825 6.79688 25.998 6.42872 25.0635C6.06055 24.1289 5.73204 23.3359 5.69805 23.2963C5.66407 23.2623 4.82012 22.9111 3.82325 22.5146C2.82637 22.1238 1.99376 21.784 1.9711 21.7613C1.94844 21.7387 2.05606 20.8324 2.20899 19.7393C2.35626 18.6518 2.46387 17.7342 2.44122 17.7002C2.4129 17.6662 1.88048 16.9695 1.2461 16.1426C0.61739 15.3156 0.0793038 14.6189 0.0509835 14.585C0.0169991 14.551 0.481452 13.8939 2.51485 11.2432L2.23165 9.24941C2.07872 8.15058 1.96544 7.24433 1.98243 7.233C1.99942 7.22167 2.85469 6.87617 5.74903 5.73203L6.49669 3.84023C7.1877 2.10136 7.26134 1.9541 7.37462 1.97109C7.44825 1.97675 8.3545 2.0957 11.2715 2.49218L12.8461 1.28007C13.707 0.611713 14.449 0.0622987 14.4887 0.0622987ZM13.101 16.8449C13.0613 16.8336 12.2514 16.1879 11.2998 15.4062C10.0934 14.4207 9.54962 14.0072 9.5043 14.0412C9.46466 14.0695 9.2211 14.3471 8.96622 14.6643L8.4961 15.2363C9.74786 16.2728 10.8297 17.1678 11.7133 17.8984C13.2936 19.2068 13.3219 19.2295 13.4182 19.1162C13.4748 19.0539 15.0438 17.2301 16.9072 15.0664C18.7707 12.9027 20.3453 11.0789 20.402 11.0166C20.5039 10.9033 20.4983 10.8977 19.9092 10.3822C19.5807 10.0934 19.2975 9.85546 19.2748 9.85546C19.2465 9.85546 17.8645 11.4357 16.1992 13.3615C14.4943 15.3383 13.1406 16.8619 13.0953 16.8449H13.101Z" fill="white"/>
</svg>
